<svg width="18" height="15" viewBox="0 0 18 15" fill="none" xmlns="http://www.w3.org/2000/svg">
<g clip-path="url(#clip0_2448_5228)">
<path d="M0.9 2.5H17.1C17.3387 2.5 17.5676 2.3683 17.7364 2.13388C17.9052 1.89946 18 1.58152 18 1.25C18 0.918479 17.9052 0.600537 17.7364 0.366117C17.5676 0.131696 17.3387 0 17.1 0H0.9C0.661305 0 0.432387 0.131696 0.263604 0.366117C0.0948211 0.600537 0 0.918479 0 1.25C0 1.58152 0.0948211 1.89946 0.263604 2.13388C0.432387 2.3683 0.661305 2.5 0.9 2.5V2.5ZM17.1 12.5H0.9C0.661305 12.5 0.432387 12.6317 0.263604 12.8661C0.0948211 13.1005 0 13.4185 0 13.75C0 14.0815 0.0948211 14.3995 0.263604 14.6339C0.432387 14.8683 0.661305 15 0.9 15H17.1C17.3387 15 17.5676 14.8683 17.7364 14.6339C17.9052 14.3995 18 14.0815 18 13.75C18 13.4185 17.9052 13.1005 17.7364 12.8661C17.5676 12.6317 17.3387 12.5 17.1 12.5ZM17.1 6.25H0.9C0.661305 6.25 0.432387 6.3817 0.263604 6.61612C0.0948211 6.85054 0 7.16848 0 7.5C0 7.83152 0.0948211 8.14946 0.263604 8.38388C0.432387 8.6183 0.661305 8.75 0.9 8.75H17.1C17.3387 8.75 17.5676 8.6183 17.7364 8.38388C17.9052 8.14946 18 7.83152 18 7.5C18 7.16848 17.9052 6.85054 17.7364 6.61612C17.5676 6.3817 17.3387 6.25 17.1 6.25Z" fill="#E2C636"/>
</g>
<defs>
<clipPath id="clip0_2448_5228">
<rect width="18" height="15" fill="white"/>
</clipPath>
</defs>
</svg>
