<svg width="24" height="20" viewBox="0 0 24 20" fill="none" xmlns="http://www.w3.org/2000/svg">
<g clip-path="url(#clip0_1108_1222)">
<path d="M1.2 3.33333H22.8C23.1183 3.33333 23.4235 3.15774 23.6485 2.84518C23.8736 2.53262 24 2.10869 24 1.66667C24 1.22464 23.8736 0.800716 23.6485 0.488156C23.4235 0.175595 23.1183 0 22.8 0H1.2C0.88174 0 0.576515 0.175595 0.351472 0.488156C0.126428 0.800716 0 1.22464 0 1.66667C0 2.10869 0.126428 2.53262 0.351472 2.84518C0.576515 3.15774 0.88174 3.33333 1.2 3.33333ZM22.8 16.6667H1.2C0.88174 16.6667 0.576515 16.8423 0.351472 17.1548C0.126428 17.4674 0 17.8913 0 18.3333C0 18.7754 0.126428 19.1993 0.351472 19.5118C0.576515 19.8244 0.88174 20 1.2 20H22.8C23.1183 20 23.4235 19.8244 23.6485 19.5118C23.8736 19.1993 24 18.7754 24 18.3333C24 17.8913 23.8736 17.4674 23.6485 17.1548C23.4235 16.8423 23.1183 16.6667 22.8 16.6667ZM22.8 8.33333H1.2C0.88174 8.33333 0.576515 8.50893 0.351472 8.82149C0.126428 9.13405 0 9.55797 0 10C0 10.442 0.126428 10.8659 0.351472 11.1785C0.576515 11.4911 0.88174 11.6667 1.2 11.6667H22.8C23.1183 11.6667 23.4235 11.4911 23.6485 11.1785C23.8736 10.8659 24 10.442 24 10C24 9.55797 23.8736 9.13405 23.6485 8.82149C23.4235 8.50893 23.1183 8.33333 22.8 8.33333Z" fill="#262626"/>
</g>
<defs>
<clipPath id="clip0_1108_1222">
<rect width="24" height="20" fill="white"/>
</clipPath>
</defs>
</svg>
