<svg width="18" height="18" viewBox="0 0 18 18" fill="none" xmlns="http://www.w3.org/2000/svg">
<g clip-path="url(#clip0_2448_5224)">
<path d="M17.1628 13.3469L15.2998 11.4389C14.8991 11.0579 14.3936 10.8056 13.8483 10.7141C13.303 10.6227 12.7428 10.6965 12.2398 10.9259L11.4298 10.1159C12.3843 8.8405 12.8202 7.25088 12.6498 5.66703C12.4794 4.08317 11.7153 2.62268 10.5113 1.57955C9.30731 0.536432 7.75288 -0.0118647 6.16089 0.0450401C4.56891 0.101945 3.05759 0.759825 1.93117 1.88625C0.804747 3.01267 0.146867 4.52399 0.089962 6.11597C0.0330572 7.70796 0.581354 9.26239 1.62448 10.4664C2.6676 11.6703 4.12809 12.4344 5.71195 12.6049C7.29581 12.7753 8.88542 12.3394 10.1608 11.3849L10.9618 12.1859C10.7054 12.6895 10.6135 13.261 10.6991 13.8197C10.7846 14.3783 11.0434 14.8961 11.4388 15.2999L13.3468 17.2079C13.853 17.7135 14.5393 17.9975 15.2548 17.9975C15.9703 17.9975 16.6565 17.7135 17.1628 17.2079C17.42 16.9564 17.6243 16.6561 17.7638 16.3246C17.9033 15.9931 17.9752 15.637 17.9752 15.2774C17.9752 14.9177 17.9033 14.5617 17.7638 14.2301C17.6243 13.8986 17.42 13.5983 17.1628 13.3469V13.3469ZM9.5308 9.53087C8.90101 10.1591 8.09917 10.5865 7.22656 10.7592C6.35396 10.932 5.44974 10.8422 4.62814 10.5012C3.80653 10.1603 3.1044 9.58353 2.61044 8.84376C2.11647 8.10398 1.85284 7.23441 1.85284 6.34487C1.85284 5.45534 2.11647 4.58576 2.61044 3.84599C3.1044 3.10622 3.80653 2.52943 4.62814 2.18851C5.44974 1.84758 6.35396 1.7578 7.22656 1.93051C8.09917 2.10322 8.90101 2.53068 9.5308 3.15887C9.94987 3.57689 10.2824 4.07346 10.5092 4.62017C10.7361 5.16688 10.8528 5.75297 10.8528 6.34487C10.8528 6.93678 10.7361 7.52287 10.5092 8.06958C10.2824 8.61628 9.94987 9.11286 9.5308 9.53087V9.53087ZM15.8938 15.8939C15.8101 15.9782 15.7106 16.0452 15.6009 16.0909C15.4912 16.1366 15.3736 16.1601 15.2548 16.1601C15.136 16.1601 15.0184 16.1366 14.9087 16.0909C14.799 16.0452 14.6995 15.9782 14.6158 15.8939L12.7078 13.9859C12.6234 13.9022 12.5565 13.8027 12.5108 13.693C12.4651 13.5833 12.4416 13.4657 12.4416 13.3469C12.4416 13.2281 12.4651 13.1104 12.5108 13.0008C12.5565 12.8911 12.6234 12.7915 12.7078 12.7079C12.7915 12.6235 12.891 12.5566 13.0007 12.5109C13.1104 12.4652 13.228 12.4417 13.3468 12.4417C13.4656 12.4417 13.5832 12.4652 13.6929 12.5109C13.8026 12.5566 13.9021 12.6235 13.9858 12.7079L15.8938 14.6159C15.9782 14.6995 16.0451 14.7991 16.0908 14.9088C16.1365 15.0184 16.16 15.1361 16.16 15.2549C16.16 15.3737 16.1365 15.4913 16.0908 15.601C16.0451 15.7107 15.9782 15.8102 15.8938 15.8939V15.8939Z" fill="#E2C636"/>
</g>
<defs>
<clipPath id="clip0_2448_5224">
<rect width="18" height="18" fill="white"/>
</clipPath>
</defs>
</svg>
