<svg width="18" height="18" viewBox="0 0 18 18" fill="none" xmlns="http://www.w3.org/2000/svg">
<g clip-path="url(#clip0_2448_5212)">
<path d="M10.8 14.5713C11.0387 14.5713 11.2676 14.4809 11.4364 14.3202C11.6051 14.1595 11.7 13.9414 11.7 13.7141V11.9998C11.7 11.7725 11.6051 11.5545 11.4364 11.3937C11.2676 11.233 11.0387 11.1427 10.8 11.1427C10.5613 11.1427 10.3323 11.233 10.1636 11.3937C9.99478 11.5545 9.89996 11.7725 9.89996 11.9998V13.7141C9.89996 13.9414 9.99478 14.1595 10.1636 14.3202C10.3323 14.4809 10.5613 14.5713 10.8 14.5713ZM7.19996 14.5713C7.43865 14.5713 7.66757 14.4809 7.83636 14.3202C8.00514 14.1595 8.09996 13.9414 8.09996 13.7141V11.9998C8.09996 11.7725 8.00514 11.5545 7.83636 11.3937C7.66757 11.233 7.43865 11.1427 7.19996 11.1427C6.96126 11.1427 6.73235 11.233 6.56356 11.3937C6.39478 11.5545 6.29996 11.7725 6.29996 11.9998V13.7141C6.29996 13.9414 6.39478 14.1595 6.56356 14.3202C6.73235 14.4809 6.96126 14.5713 7.19996 14.5713ZM15.3 4.28556H14.058L12.501 1.32842C12.4534 1.21961 12.3828 1.12131 12.2935 1.03967C12.2042 0.958033 12.0982 0.894806 11.9821 0.853942C11.8661 0.813078 11.7424 0.795455 11.6188 0.802176C11.4952 0.808896 11.3745 0.839814 11.264 0.892999C11.1536 0.946183 11.0558 1.02049 10.9769 1.11128C10.898 1.20207 10.8396 1.30738 10.8053 1.42064C10.771 1.5339 10.7617 1.65268 10.7778 1.76954C10.7939 1.88641 10.8352 1.99885 10.899 2.09985L12.042 4.28556H5.95796L7.10096 2.09985C7.18832 1.90005 7.19308 1.67618 7.1143 1.47318C7.03551 1.27018 6.87901 1.10307 6.67622 1.00542C6.47342 0.907764 6.23934 0.886787 6.02097 0.946699C5.80261 1.00661 5.61612 1.14298 5.49896 1.32842L3.94196 4.28556H2.69996C2.06383 4.29477 1.45155 4.51763 0.971104 4.91481C0.49066 5.312 0.172916 5.85801 0.0739134 6.45653C-0.0250895 7.05506 0.101008 7.66765 0.429967 8.18628C0.758926 8.7049 1.26961 9.09624 1.87196 9.29126L2.53796 15.6855C2.60512 16.322 2.91897 16.9118 3.41822 17.3398C3.91748 17.7677 4.56629 18.003 5.23796 17.9998H12.78C13.4516 18.003 14.1004 17.7677 14.5997 17.3398C15.0989 16.9118 15.4128 16.322 15.48 15.6855L16.146 9.29126C16.7496 9.09566 17.2611 8.70289 17.5898 8.18253C17.9186 7.66218 18.0433 7.04781 17.942 6.44825C17.8406 5.84869 17.5198 5.30263 17.0362 4.90679C16.5526 4.51095 15.9376 4.29088 15.3 4.28556V4.28556ZM13.671 15.5141C13.6486 15.7263 13.544 15.9229 13.3775 16.0655C13.2111 16.2082 12.9949 16.2866 12.771 16.2855H5.22896C5.00507 16.2866 4.7888 16.2082 4.62238 16.0655C4.45596 15.9229 4.35135 15.7263 4.32896 15.5141L3.68996 9.42841H14.31L13.671 15.5141ZM15.3 7.71412H2.69996C2.46127 7.71412 2.23235 7.62382 2.06356 7.46307C1.89478 7.30233 1.79996 7.08431 1.79996 6.85698C1.79996 6.62965 1.89478 6.41164 2.06356 6.25089C2.23235 6.09015 2.46127 5.99984 2.69996 5.99984H15.3C15.5387 5.99984 15.7676 6.09015 15.9364 6.25089C16.1051 6.41164 16.2 6.62965 16.2 6.85698C16.2 7.08431 16.1051 7.30233 15.9364 7.46307C15.7676 7.62382 15.5387 7.71412 15.3 7.71412Z" fill="#E2C636"/>
</g>
<defs>
<clipPath id="clip0_2448_5212">
<rect width="18" height="18" fill="white"/>
</clipPath>
</defs>
</svg>
