<svg width="17" height="18" viewBox="0 0 17 18" fill="none" xmlns="http://www.w3.org/2000/svg">
<g clip-path="url(#clip0_2448_5216)">
<path d="M11.2177 9.5807C12.0198 8.9496 12.6053 8.08418 12.8927 7.10483C13.1801 6.12549 13.1551 5.08092 12.8211 4.11645C12.4872 3.15198 11.861 2.31557 11.0295 1.72358C10.1981 1.1316 9.20286 0.813477 8.18222 0.813477C7.16157 0.813477 6.16631 1.1316 5.33488 1.72358C4.50346 2.31557 3.87722 3.15198 3.5433 4.11645C3.20937 5.08092 3.18436 6.12549 3.47175 7.10483C3.75913 8.08418 4.34462 8.9496 5.14676 9.5807C3.77228 10.1314 2.573 11.0447 1.67676 12.2234C0.780531 13.402 0.220948 14.8018 0.0576695 16.2734C0.0458505 16.3809 0.0553103 16.4896 0.0855085 16.5934C0.115707 16.6972 0.166052 16.794 0.23367 16.8783C0.37023 17.0486 0.568856 17.1577 0.785851 17.1816C1.00285 17.2055 1.22044 17.1422 1.39075 17.0056C1.56107 16.869 1.67016 16.6704 1.69403 16.4534C1.87369 14.854 2.63632 13.3769 3.83621 12.3043C5.0361 11.2316 6.58913 10.6386 8.19858 10.6386C9.80803 10.6386 11.3611 11.2316 12.5609 12.3043C13.7608 13.3769 14.5235 14.854 14.7031 16.4534C14.7254 16.6545 14.8213 16.8401 14.9724 16.9746C15.1235 17.1091 15.319 17.1828 15.5213 17.1816H15.6113C15.8258 17.1569 16.0218 17.0485 16.1567 16.8799C16.2915 16.7113 16.3543 16.4963 16.3313 16.2816C16.1673 14.8058 15.6047 13.4024 14.7038 12.222C13.803 11.0415 12.5979 10.1285 11.2177 9.5807V9.5807ZM8.18222 8.99979C7.53493 8.99979 6.90218 8.80785 6.36399 8.44824C5.82579 8.08863 5.40631 7.5775 5.15861 6.97948C4.9109 6.38147 4.84609 5.72343 4.97237 5.08859C5.09865 4.45374 5.41035 3.8706 5.86805 3.4129C6.32575 2.9552 6.90889 2.6435 7.54374 2.51722C8.17858 2.39094 8.83662 2.45575 9.43463 2.70346C10.0326 2.95116 10.5438 3.37064 10.9034 3.90883C11.263 4.44703 11.4549 5.07978 11.4549 5.72706C11.4549 6.59505 11.1101 7.42748 10.4964 8.04123C9.88263 8.65499 9.0502 8.99979 8.18222 8.99979Z" fill="#E2C636"/>
</g>
<defs>
<clipPath id="clip0_2448_5216">
<rect width="16.3636" height="18" fill="white"/>
</clipPath>
</defs>
</svg>
