<svg width="9" height="8" viewBox="0 0 9 8" fill="none" xmlns="http://www.w3.org/2000/svg">
<g clip-path="url(#clip0_1395_2109)">
<path d="M7.07344 0H1.47344C1.15518 0 0.849953 0.126428 0.624909 0.351472C0.399866 0.576516 0.273438 0.88174 0.273438 1.2V6.8C0.273438 7.11826 0.399866 7.42348 0.624909 7.64853C0.849953 7.87357 1.15518 8 1.47344 8H7.07344C7.3917 8 7.69692 7.87357 7.92197 7.64853C8.14701 7.42348 8.27344 7.11826 8.27344 6.8V1.2C8.27344 0.88174 8.14701 0.576516 7.92197 0.351472C7.69692 0.126428 7.3917 0 7.07344 0ZM3.47344 0.8H5.07344V2.052L4.49344 1.652C4.42813 1.60899 4.35164 1.58607 4.27344 1.58607C4.19524 1.58607 4.11875 1.60899 4.05344 1.652L3.47344 2.052V0.8ZM7.47344 6.8C7.47344 6.90609 7.4313 7.00783 7.35628 7.08284C7.28127 7.15786 7.17953 7.2 7.07344 7.2H1.47344C1.36735 7.2 1.26561 7.15786 1.1906 7.08284C1.11558 7.00783 1.07344 6.90609 1.07344 6.8V1.2C1.07344 1.09391 1.11558 0.992172 1.1906 0.917157C1.26561 0.842143 1.36735 0.8 1.47344 0.8H2.67344V2.8C2.67363 2.87236 2.69345 2.94332 2.73078 3.0053C2.76812 3.06729 2.82157 3.11799 2.88544 3.152C2.94799 3.18412 3.0179 3.19918 3.08812 3.19567C3.15835 3.19216 3.2264 3.1702 3.28544 3.132L4.27344 2.48L5.25344 3.132C5.3136 3.17162 5.38334 3.19426 5.4553 3.19753C5.52726 3.20079 5.59877 3.18457 5.66227 3.15056C5.72577 3.11656 5.77891 3.06604 5.81608 3.00433C5.85325 2.94263 5.87307 2.87203 5.87344 2.8V0.8H7.07344C7.17953 0.8 7.28127 0.842143 7.35628 0.917157C7.4313 0.992172 7.47344 1.09391 7.47344 1.2V6.8Z" fill="#E23636"/>
</g>
<defs>
<clipPath id="clip0_1395_2109">
<rect width="8" height="8" fill="white" transform="translate(0.273438)"/>
</clipPath>
</defs>
</svg>
