<svg width="9" height="8" viewBox="0 0 9 8" fill="none" xmlns="http://www.w3.org/2000/svg">
<g clip-path="url(#clip0_1394_2103)">
<path d="M3.82899 3.96002V6.00002C3.82899 6.10611 3.87582 6.20785 3.95917 6.28286C4.04252 6.35788 4.15556 6.40002 4.27344 6.40002C4.39131 6.40002 4.50436 6.35788 4.58771 6.28286C4.67106 6.20785 4.71788 6.10611 4.71788 6.00002V3.96002C5.25746 3.86089 5.73692 3.58498 6.0633 3.18578C6.38969 2.78658 6.53976 2.29253 6.48441 1.79941C6.42906 1.30629 6.17223 0.84923 5.76373 0.516844C5.35522 0.184459 4.82414 0.000427246 4.27344 0.000427246C3.72274 0.000427246 3.19165 0.184459 2.78315 0.516844C2.37464 0.84923 2.11782 1.30629 2.06247 1.79941C2.00712 2.29253 2.15718 2.78658 2.48357 3.18578C2.80996 3.58498 3.28942 3.86089 3.82899 3.96002ZM4.27344 0.800019C4.53715 0.800019 4.79493 0.870398 5.0142 1.00226C5.23346 1.13411 5.40436 1.32153 5.50528 1.5408C5.60619 1.76007 5.6326 2.00135 5.58115 2.23413C5.52971 2.4669 5.40272 2.68072 5.21625 2.84855C5.02978 3.01637 4.7922 3.13066 4.53356 3.17696C4.27492 3.22326 4.00683 3.1995 3.76319 3.10867C3.51956 3.01785 3.31132 2.86404 3.16481 2.6667C3.0183 2.46936 2.9401 2.23736 2.9401 2.00002C2.9401 1.68176 3.08058 1.37653 3.33063 1.15149C3.58068 0.926447 3.91982 0.800019 4.27344 0.800019ZM6.14455 4.96802C6.08618 4.95699 6.02598 4.95641 5.96736 4.96632C5.90875 4.97623 5.85288 4.99644 5.80294 5.02578C5.75301 5.05512 5.70998 5.09303 5.67632 5.13734C5.64266 5.18165 5.61903 5.23149 5.60677 5.28402C5.59452 5.33655 5.59387 5.39073 5.60489 5.44349C5.6159 5.49624 5.63835 5.54652 5.67095 5.59146C5.70355 5.63641 5.74567 5.67513 5.79491 5.70543C5.84414 5.73572 5.89952 5.75699 5.95788 5.76802C6.96677 5.94802 7.38455 6.27202 7.38455 6.40002C7.38455 6.63202 6.29566 7.20002 4.27344 7.20002C2.25122 7.20002 1.16233 6.63202 1.16233 6.40002C1.16233 6.27202 1.5801 5.94802 2.58899 5.75202C2.64736 5.74099 2.70274 5.71972 2.75197 5.68943C2.8012 5.65913 2.84332 5.62041 2.87593 5.57546C2.90853 5.53052 2.93098 5.48024 2.94199 5.42749C2.953 5.37473 2.95236 5.32055 2.9401 5.26802C2.92785 5.21549 2.90422 5.16565 2.87056 5.12134C2.8369 5.07703 2.79387 5.03912 2.74393 5.00978C2.694 4.98044 2.63813 4.96023 2.57951 4.95032C2.5209 4.94041 2.46069 4.94099 2.40233 4.95202C1.05122 5.23202 0.273438 5.75602 0.273438 6.40002C0.273438 7.45202 2.28677 8.00002 4.27344 8.00002C6.26011 8.00002 8.27344 7.45202 8.27344 6.40002C8.27344 5.75602 7.49566 5.23202 6.14455 4.96802Z" fill="#E23636"/>
</g>
<defs>
<clipPath id="clip0_1394_2103">
<rect width="8" height="8" fill="white" transform="translate(0.273438)"/>
</clipPath>
</defs>
</svg>
