<svg width="9" height="8" viewBox="0 0 9 8" fill="none" xmlns="http://www.w3.org/2000/svg">
<g clip-path="url(#clip0_1424_2139)">
<path d="M2.95744 2.28396L3.87344 1.36396V5.19996C3.87344 5.30604 3.91558 5.40779 3.9906 5.4828C4.06561 5.55782 4.16735 5.59996 4.27344 5.59996C4.37953 5.59996 4.48127 5.55782 4.55628 5.4828C4.6313 5.40779 4.67344 5.30604 4.67344 5.19996V1.36396L5.58944 2.28396C5.62662 2.32145 5.67086 2.35121 5.71961 2.37152C5.76835 2.39182 5.82063 2.40228 5.87344 2.40228C5.92624 2.40228 5.97853 2.39182 6.02727 2.37152C6.07601 2.35121 6.12025 2.32145 6.15744 2.28396C6.19493 2.24677 6.22469 2.20253 6.245 2.15379C6.2653 2.10505 6.27576 2.05276 6.27576 1.99996C6.27576 1.94715 6.2653 1.89487 6.245 1.84613C6.22469 1.79738 6.19493 1.75314 6.15744 1.71596L4.55744 0.115959C4.5194 0.0795423 4.47454 0.0509963 4.42544 0.0319585C4.32805 -0.00804868 4.21882 -0.00804868 4.12144 0.0319585C4.07234 0.0509963 4.02748 0.0795423 3.98944 0.115959L2.38944 1.71596C2.35214 1.75325 2.32256 1.79753 2.30237 1.84626C2.28219 1.89499 2.2718 1.94721 2.2718 1.99996C2.2718 2.0527 2.28219 2.10493 2.30237 2.15366C2.32256 2.20239 2.35214 2.24666 2.38944 2.28396C2.42673 2.32125 2.47101 2.35084 2.51974 2.37102C2.56847 2.39121 2.62069 2.40159 2.67344 2.40159C2.72618 2.40159 2.77841 2.39121 2.82714 2.37102C2.87587 2.35084 2.92014 2.32125 2.95744 2.28396ZM7.87344 4.79996C7.76735 4.79996 7.66561 4.8421 7.5906 4.91712C7.51558 4.99213 7.47344 5.09387 7.47344 5.19996V6.79996C7.47344 6.90604 7.4313 7.00779 7.35628 7.0828C7.28127 7.15782 7.17953 7.19996 7.07344 7.19996H1.47344C1.36735 7.19996 1.26561 7.15782 1.1906 7.0828C1.11558 7.00779 1.07344 6.90604 1.07344 6.79996V5.19996C1.07344 5.09387 1.03129 4.99213 0.95628 4.91712C0.881266 4.8421 0.779524 4.79996 0.673438 4.79996C0.567351 4.79996 0.465609 4.8421 0.390595 4.91712C0.31558 4.99213 0.273438 5.09387 0.273438 5.19996V6.79996C0.273438 7.11822 0.399866 7.42344 0.624909 7.64849C0.849953 7.87353 1.15518 7.99996 1.47344 7.99996H7.07344C7.3917 7.99996 7.69692 7.87353 7.92197 7.64849C8.14701 7.42344 8.27344 7.11822 8.27344 6.79996V5.19996C8.27344 5.09387 8.2313 4.99213 8.15628 4.91712C8.08127 4.8421 7.97953 4.79996 7.87344 4.79996Z" fill="#E23636"/>
</g>
<defs>
<clipPath id="clip0_1424_2139">
<rect width="8" height="8" fill="white" transform="translate(0.273438)"/>
</clipPath>
</defs>
</svg>
