<svg width="9" height="8" viewBox="0 0 9 8" fill="none" xmlns="http://www.w3.org/2000/svg">
<g clip-path="url(#clip0_1397_2121)">
<path d="M7.89201 3.06796C7.86795 2.9948 7.8242 2.93053 7.76604 2.88296C7.70789 2.83539 7.63784 2.80656 7.56439 2.79996L5.39677 2.46796L4.42535 0.39996C4.39415 0.332332 4.34545 0.275297 4.28481 0.23539C4.22417 0.195482 4.15405 0.174316 4.08249 0.174316C4.01092 0.174316 3.94081 0.195482 3.88017 0.23539C3.81953 0.275297 3.77083 0.332332 3.73963 0.39996L2.7682 2.46396L0.600583 2.79996C0.530077 2.81048 0.463792 2.84155 0.40925 2.88962C0.354707 2.9377 0.314091 3.00087 0.292011 3.07196C0.2718 3.14143 0.269986 3.21537 0.286765 3.28584C0.303544 3.35631 0.338281 3.42065 0.38725 3.47196L1.96058 5.07196L1.57963 7.34396C1.56603 7.41895 1.57315 7.49646 1.60015 7.56734C1.62715 7.63822 1.67291 7.6995 1.73201 7.74396C1.78962 7.7872 1.85756 7.81273 1.92822 7.81767C1.99888 7.82262 2.06945 7.80679 2.13201 7.77196L4.08249 6.70396L6.02535 7.77596C6.07881 7.80763 6.1392 7.82417 6.20058 7.82396C6.28128 7.82426 6.35998 7.79765 6.42535 7.74796C6.48445 7.7035 6.5302 7.64222 6.5572 7.57134C6.58421 7.50046 6.59133 7.42295 6.57773 7.34796L6.19677 5.07596L7.77011 3.47596C7.82511 3.42703 7.86576 3.36272 7.88734 3.2905C7.90892 3.21828 7.91054 3.14111 7.89201 3.06796ZM5.54916 4.66796C5.50448 4.71333 5.47105 4.7695 5.4518 4.83155C5.43254 4.8936 5.42804 4.95966 5.43868 5.02396L5.71297 6.69996L4.28058 5.89996C4.22547 5.86914 4.16398 5.85303 4.10154 5.85303C4.03909 5.85303 3.97761 5.86914 3.92249 5.89996L2.49011 6.69996L2.76439 5.02396C2.77504 4.95966 2.77053 4.8936 2.75127 4.83155C2.73202 4.7695 2.69859 4.71333 2.65392 4.66796L1.51106 3.46796L3.11487 3.22396C3.17658 3.21495 3.23525 3.19018 3.28573 3.15182C3.3362 3.11347 3.37695 3.0627 3.40439 3.00396L4.08249 1.47996L4.79868 3.00796C4.82612 3.0667 4.86687 3.11747 4.91735 3.15582C4.96782 3.19418 5.02649 3.21895 5.0882 3.22796L6.69201 3.47196L5.54916 4.66796Z" fill="#E23636"/>
</g>
<defs>
<clipPath id="clip0_1397_2121">
<rect width="8" height="8" fill="white" transform="translate(0.273438)"/>
</clipPath>
</defs>
</svg>
