<svg width="9" height="8" viewBox="0 0 9 8" fill="none" xmlns="http://www.w3.org/2000/svg">
<g clip-path="url(#clip0_1392_2091)">
<path d="M4.07266 6.85714H1.67266C1.56657 6.85714 1.46483 6.81701 1.38981 6.74556C1.3148 6.67412 1.27266 6.57722 1.27266 6.47619V1.14286C1.27266 1.04182 1.3148 0.944926 1.38981 0.873483C1.46483 0.802041 1.56657 0.761905 1.67266 0.761905H3.67266V1.90476C3.67266 2.20787 3.79909 2.49856 4.02413 2.71288C4.24917 2.92721 4.5544 3.04762 4.87266 3.04762H6.07266V4.95238C6.07266 5.05342 6.1148 5.15031 6.18982 5.22175C6.26483 5.2932 6.36657 5.33333 6.47266 5.33333C6.57874 5.33333 6.68049 5.2932 6.7555 5.22175C6.83052 5.15031 6.87266 5.05342 6.87266 4.95238V2.66667C6.87266 2.66667 6.87266 2.66667 6.87266 2.64381C6.86849 2.60881 6.86045 2.57434 6.84866 2.54095V2.50667C6.82943 2.4675 6.80377 2.43149 6.77266 2.4L4.37266 0.114286C4.33959 0.0846538 4.30179 0.0602213 4.26066 0.0419047C4.24742 0.0396988 4.23389 0.0396988 4.22066 0.0419047C4.18176 0.0220964 4.13996 0.00797028 4.09666 0H1.67266C1.3544 0 1.04917 0.120408 0.824128 0.334735C0.599085 0.549062 0.472656 0.839753 0.472656 1.14286V6.47619C0.472656 6.77929 0.599085 7.06998 0.824128 7.28431C1.04917 7.49864 1.3544 7.61905 1.67266 7.61905H4.07266C4.17874 7.61905 4.28049 7.57891 4.3555 7.50747C4.43051 7.43603 4.47266 7.33913 4.47266 7.23809C4.47266 7.13706 4.43051 7.04016 4.3555 6.96872C4.28049 6.89728 4.17874 6.85714 4.07266 6.85714ZM4.47266 1.29905L5.50866 2.28571H4.87266C4.76657 2.28571 4.66483 2.24558 4.58982 2.17414C4.5148 2.10269 4.47266 2.0058 4.47266 1.90476V1.29905ZM2.47266 4.57143H4.87266C4.97874 4.57143 5.08049 4.53129 5.1555 4.45985C5.23052 4.38841 5.27266 4.29151 5.27266 4.19048C5.27266 4.08944 5.23052 3.99254 5.1555 3.9211C5.08049 3.84966 4.97874 3.80952 4.87266 3.80952H2.47266C2.36657 3.80952 2.26483 3.84966 2.18981 3.9211C2.1148 3.99254 2.07266 4.08944 2.07266 4.19048C2.07266 4.29151 2.1148 4.38841 2.18981 4.45985C2.26483 4.53129 2.36657 4.57143 2.47266 4.57143ZM4.07266 5.33333H2.47266C2.36657 5.33333 2.26483 5.37347 2.18981 5.44491C2.1148 5.51635 2.07266 5.61325 2.07266 5.71429C2.07266 5.81532 2.1148 5.91222 2.18981 5.98366C2.26483 6.0551 2.36657 6.09524 2.47266 6.09524H4.07266C4.17874 6.09524 4.28049 6.0551 4.3555 5.98366C4.43051 5.91222 4.47266 5.81532 4.47266 5.71429C4.47266 5.61325 4.43051 5.51635 4.3555 5.44491C4.28049 5.37347 4.17874 5.33333 4.07266 5.33333ZM2.47266 3.04762H2.87266C2.97874 3.04762 3.08049 3.00748 3.1555 2.93604C3.23051 2.8646 3.27266 2.7677 3.27266 2.66667C3.27266 2.56563 3.23051 2.46873 3.1555 2.39729C3.08049 2.32585 2.97874 2.28571 2.87266 2.28571H2.47266C2.36657 2.28571 2.26483 2.32585 2.18981 2.39729C2.1148 2.46873 2.07266 2.56563 2.07266 2.66667C2.07266 2.7677 2.1148 2.8646 2.18981 2.93604C2.26483 3.00748 2.36657 3.04762 2.47266 3.04762ZM7.95666 5.44381C7.91947 5.4081 7.87523 5.37976 7.82649 5.36042C7.77775 5.34108 7.72546 5.33112 7.67266 5.33112C7.61985 5.33112 7.56757 5.34108 7.51883 5.36042C7.47008 5.37976 7.42584 5.4081 7.38866 5.44381L6.07266 6.70095L5.55666 6.20571C5.51936 6.17019 5.47509 6.14202 5.42636 6.1228C5.37763 6.10357 5.3254 6.09368 5.27266 6.09368C5.21991 6.09368 5.16769 6.10357 5.11896 6.1228C5.07023 6.14202 5.02595 6.17019 4.98866 6.20571C4.95136 6.24123 4.92178 6.2834 4.90159 6.32981C4.88141 6.37622 4.87102 6.42596 4.87102 6.47619C4.87102 6.52642 4.88141 6.57616 4.90159 6.62257C4.92178 6.66898 4.95136 6.71115 4.98866 6.74667L5.78866 7.50857C5.82584 7.54428 5.87008 7.57262 5.91883 7.59196C5.96757 7.6113 6.01985 7.62126 6.07266 7.62126C6.12546 7.62126 6.17774 7.6113 6.22649 7.59196C6.27523 7.57262 6.31947 7.54428 6.35666 7.50857L7.95666 5.98476C7.99415 5.94935 8.02391 5.90721 8.04422 5.86079C8.06452 5.81437 8.07498 5.76458 8.07498 5.71429C8.07498 5.664 8.06452 5.6142 8.04422 5.56778C8.02391 5.52136 7.99415 5.47922 7.95666 5.44381Z" fill="#E23636"/>
</g>
<defs>
<clipPath id="clip0_1392_2091">
<rect width="8" height="8" fill="white" transform="translate(0.273438)"/>
</clipPath>
</defs>
</svg>
