<svg width="45" height="46" viewBox="0 0 45 46" fill="none" xmlns="http://www.w3.org/2000/svg">
  <path 
    d="M30.7231 24.4048C32.929 22.6693 34.5391 20.2894 35.3294 17.5962C36.1197 14.903 36.0509 12.0304 35.1326 9.37809C34.2143 6.7258 32.4922 4.42567 30.2058 2.79771C27.9193 1.16976 25.1824 0.294922 22.3756 0.294922C19.5688 0.294922 16.8319 1.16976 14.5454 2.79771C12.259 4.42567 10.5369 6.7258 9.61858 9.37809C8.70028 12.0304 8.63151 14.903 9.42181 17.5962C10.2121 20.2894 11.8222 22.6693 14.0281 24.4048C10.2483 25.9191 6.95025 28.4308 4.48561 31.6721C2.02097 34.9134 0.48212 38.7627 0.0331029 42.8098C0.000600728 43.1053 0.0266151 43.4042 0.10966 43.6897C0.192705 43.9751 0.331154 44.2414 0.517104 44.4733C0.892645 44.9416 1.43887 45.2416 2.0356 45.3073C2.63234 45.3729 3.23071 45.1988 3.69908 44.8233C4.16746 44.4477 4.46746 43.9015 4.5331 43.3048C5.02717 38.9065 7.1244 34.8444 10.4241 31.8946C13.7238 28.9448 17.9946 27.3141 22.4206 27.3141C26.8466 27.3141 31.1174 28.9448 34.4171 31.8946C37.7168 34.8444 39.814 38.9065 40.3081 43.3048C40.3693 43.8577 40.6331 44.3683 41.0486 44.7381C41.4641 45.1079 42.0019 45.3107 42.5581 45.3073H42.8056C43.3954 45.2394 43.9345 44.9412 44.3054 44.4776C44.6762 44.014 44.8489 43.4226 44.7856 42.8323C44.3345 38.7737 42.7873 34.9145 40.31 31.6682C37.8327 28.422 34.5187 25.9111 30.7231 24.4048V24.4048ZM22.3756 22.8073C20.5956 22.8073 18.8555 22.2794 17.3755 21.2905C15.8954 20.3016 14.7419 18.896 14.0607 17.2514C13.3795 15.6069 13.2013 13.7973 13.5485 12.0515C13.8958 10.3056 14.753 8.702 16.0116 7.44333C17.2703 6.18465 18.874 5.32749 20.6198 4.98022C22.3656 4.63295 24.1752 4.81118 25.8198 5.49237C27.4643 6.17356 28.8699 7.32711 29.8588 8.80716C30.8478 10.2872 31.3756 12.0273 31.3756 13.8073C31.3756 16.1942 30.4274 18.4834 28.7396 20.1712C27.0517 21.8591 24.7625 22.8073 22.3756 22.8073Z" 
    fill="#262626" 
    
  />
</svg>
