<svg width="97" height="106" viewBox="0 0 97 106" fill="none" xmlns="http://www.w3.org/2000/svg">
<g clip-path="url(#clip0_2003_8696)">
<path d="M57.2231 26.9048C59.429 25.1693 61.0391 22.7894 61.8294 20.0962C62.6197 17.403 62.5509 14.5304 61.6326 11.8781C60.7143 9.2258 58.9922 6.92567 56.7058 5.29771C54.4193 3.66976 51.6824 2.79492 48.8756 2.79492C46.0688 2.79492 43.3319 3.66976 41.0454 5.29771C38.759 6.92567 37.0369 9.2258 36.1186 11.8781C35.2003 14.5304 35.1315 17.403 35.9218 20.0962C36.7121 22.7894 38.3222 25.1693 40.5281 26.9048C36.7483 28.4191 33.4502 30.9308 30.9856 34.1721C28.521 37.4134 26.9821 41.2627 26.5331 45.3098C26.5006 45.6053 26.5266 45.9042 26.6097 46.1897C26.6927 46.4751 26.8312 46.7414 27.0171 46.9733C27.3926 47.4416 27.9389 47.7416 28.5356 47.8073C29.1323 47.8729 29.7307 47.6988 30.1991 47.3233C30.6675 46.9477 30.9675 46.4015 31.0331 45.8048C31.5272 41.4065 33.6244 37.3444 36.9241 34.3946C40.2238 31.4448 44.4946 29.8141 48.9206 29.8141C53.3466 29.8141 57.6174 31.4448 60.9171 34.3946C64.2168 37.3444 66.314 41.4065 66.8081 45.8048C66.8693 46.3577 67.1331 46.8683 67.5486 47.2381C67.9641 47.6079 68.5019 47.8107 69.0581 47.8073H69.3056C69.8954 47.7394 70.4345 47.4412 70.8054 46.9776C71.1762 46.514 71.3489 45.9226 71.2856 45.3323C70.8345 41.2738 69.2873 37.4145 66.81 34.1682C64.3327 30.922 61.0187 28.4111 57.2231 26.9048ZM48.8756 25.3073C47.0956 25.3073 45.3555 24.7794 43.8755 23.7905C42.3954 22.8016 41.2419 21.396 40.5607 19.7514C39.8795 18.1069 39.7013 16.2973 40.0485 14.5515C40.3958 12.8056 41.253 11.202 42.5116 9.94333C43.7703 8.68465 45.374 7.82749 47.1198 7.48022C48.8656 7.13295 50.6752 7.31118 52.3198 7.99237C53.9643 8.67356 55.3699 9.82711 56.3588 11.3072C57.3478 12.7872 57.8756 14.5273 57.8756 16.3073C57.8756 18.6942 56.9274 20.9834 55.2396 22.6712C53.5517 24.3591 51.2626 25.3073 48.8756 25.3073Z" fill="#262626"/>
</g>
<g clip-path="url(#clip1_2003_8696)">
<path d="M31.7231 82.4048C33.929 80.6693 35.5391 78.2894 36.3294 75.5962C37.1197 72.903 37.0509 70.0304 36.1326 67.3781C35.2143 64.7258 33.4922 62.4257 31.2058 60.7977C28.9193 59.1698 26.1824 58.2949 23.3756 58.2949C20.5688 58.2949 17.8319 59.1698 15.5454 60.7977C13.259 62.4257 11.5369 64.7258 10.6186 67.3781C9.70028 70.0304 9.63151 72.903 10.4218 75.5962C11.2121 78.2894 12.8222 80.6693 15.0281 82.4048C11.2483 83.9191 7.95025 86.4308 5.48561 89.6721C3.02097 92.9134 1.48212 96.7627 1.0331 100.81C1.0006 101.105 1.02662 101.404 1.10966 101.69C1.19271 101.975 1.33115 102.241 1.5171 102.473C1.89265 102.942 2.43887 103.242 3.0356 103.307C3.63234 103.373 4.23071 103.199 4.69908 102.823C5.16746 102.448 5.46746 101.902 5.5331 101.305C6.02717 96.9065 8.1244 92.8444 11.4241 89.8946C14.7238 86.9448 18.9946 85.3141 23.4206 85.3141C27.8466 85.3141 32.1174 86.9448 35.4171 89.8946C38.7168 92.8444 40.814 96.9065 41.3081 101.305C41.3693 101.858 41.6331 102.368 42.0486 102.738C42.4641 103.108 43.0019 103.311 43.5581 103.307H43.8056C44.3954 103.239 44.9345 102.941 45.3054 102.478C45.6762 102.014 45.8489 101.423 45.7856 100.832C45.3345 96.7738 43.7873 92.9145 41.31 89.6682C38.8327 86.422 35.5187 83.9111 31.7231 82.4048ZM23.3756 80.8073C21.5956 80.8073 19.8555 80.2794 18.3755 79.2905C16.8954 78.3016 15.7419 76.896 15.0607 75.2514C14.3795 73.6069 14.2013 71.7973 14.5485 70.0515C14.8958 68.3056 15.753 66.702 17.0116 65.4433C18.2703 64.1847 19.874 63.3275 21.6198 62.9802C23.3656 62.633 25.1752 62.8112 26.8198 63.4924C28.4643 64.1736 29.8699 65.3271 30.8588 66.8072C31.8478 68.2872 32.3756 70.0273 32.3756 71.8073C32.3756 74.1942 31.4274 76.4834 29.7396 78.1712C28.0517 79.8591 25.7626 80.8073 23.3756 80.8073Z" fill="#262626"/>
</g>
<g clip-path="url(#clip2_2003_8696)">
<path d="M82.7231 82.4048C84.929 80.6693 86.5391 78.2894 87.3294 75.5962C88.1197 72.903 88.0509 70.0304 87.1326 67.3781C86.2143 64.7258 84.4922 62.4257 82.2058 60.7977C79.9193 59.1698 77.1824 58.2949 74.3756 58.2949C71.5688 58.2949 68.8319 59.1698 66.5454 60.7977C64.259 62.4257 62.5369 64.7258 61.6186 67.3781C60.7003 70.0304 60.6315 72.903 61.4218 75.5962C62.2121 78.2894 63.8222 80.6693 66.0281 82.4048C62.2483 83.9191 58.9502 86.4308 56.4856 89.6721C54.021 92.9134 52.4821 96.7627 52.0331 100.81C52.0006 101.105 52.0266 101.404 52.1097 101.69C52.1927 101.975 52.3312 102.241 52.5171 102.473C52.8926 102.942 53.4389 103.242 54.0356 103.307C54.6323 103.373 55.2307 103.199 55.6991 102.823C56.1675 102.448 56.4675 101.902 56.5331 101.305C57.0272 96.9065 59.1244 92.8444 62.4241 89.8946C65.7238 86.9448 69.9946 85.3141 74.4206 85.3141C78.8466 85.3141 83.1174 86.9448 86.4171 89.8946C89.7168 92.8444 91.814 96.9065 92.3081 101.305C92.3693 101.858 92.6331 102.368 93.0486 102.738C93.4641 103.108 94.0019 103.311 94.5581 103.307H94.8056C95.3954 103.239 95.9345 102.941 96.3054 102.478C96.6762 102.014 96.8489 101.423 96.7856 100.832C96.3345 96.7738 94.7873 92.9145 92.31 89.6682C89.8327 86.422 86.5187 83.9111 82.7231 82.4048ZM74.3756 80.8073C72.5956 80.8073 70.8555 80.2794 69.3755 79.2905C67.8954 78.3016 66.7419 76.896 66.0607 75.2514C65.3795 73.6069 65.2013 71.7973 65.5485 70.0515C65.8958 68.3056 66.753 66.702 68.0116 65.4433C69.2703 64.1847 70.874 63.3275 72.6198 62.9802C74.3656 62.633 76.1752 62.8112 77.8198 63.4924C79.4643 64.1736 80.8699 65.3271 81.8588 66.8072C82.8478 68.2872 83.3756 70.0273 83.3756 71.8073C83.3756 74.1942 82.4274 76.4834 80.7396 78.1712C79.0517 79.8591 76.7626 80.8073 74.3756 80.8073Z" fill="#262626"/>
</g>
<defs>
<clipPath id="clip0_2003_8696">
<rect width="45" height="49.5" fill="white" transform="translate(26.375 0.557617)"/>
</clipPath>
<clipPath id="clip1_2003_8696">
<rect width="45" height="49.5" fill="white" transform="translate(0.875 56.0576)"/>
</clipPath>
<clipPath id="clip2_2003_8696">
<rect width="45" height="49.5" fill="white" transform="translate(51.875 56.0576)"/>
</clipPath>
</defs>
</svg>
