<svg width="147" height="106" viewBox="0 0 147 106" fill="none" xmlns="http://www.w3.org/2000/svg">
<path d="M30.8481 26.8474C33.054 25.1119 34.6641 22.732 35.4544 20.0388C36.2447 17.3456 36.1759 14.473 35.2576 11.8207C34.3393 9.16842 32.6172 6.8683 30.3308 5.24034C28.0443 3.61238 25.3074 2.73755 22.5006 2.73755C19.6938 2.73755 16.9569 3.61238 14.6704 5.24034C12.384 6.8683 10.6619 9.16842 9.74358 11.8207C8.82528 14.473 8.75651 17.3456 9.54681 20.0388C10.3371 22.732 11.9472 25.1119 14.1531 26.8474C10.3733 28.3618 7.07525 30.8734 4.61061 34.1147C2.14597 37.356 0.60712 41.2054 0.158103 45.2524C0.125601 45.5479 0.151615 45.8469 0.23466 46.1323C0.317705 46.4177 0.456154 46.684 0.642104 46.9159C1.01765 47.3843 1.56387 47.6843 2.1606 47.7499C2.75734 47.8156 3.35571 47.6415 3.82408 47.2659C4.29246 46.8904 4.59246 46.3442 4.6581 45.7474C5.15217 41.3491 7.2494 37.287 10.5491 34.3372C13.8488 31.3874 18.1196 29.7567 22.5456 29.7567C26.9716 29.7567 31.2424 31.3874 34.5421 34.3372C37.8418 37.287 39.939 41.3491 40.4331 45.7474C40.4943 46.3003 40.7581 46.8109 41.1736 47.1807C41.5891 47.5505 42.1269 47.7533 42.6831 47.7499H42.9306C43.5204 47.682 44.0595 47.3838 44.4304 46.9202C44.8012 46.4566 44.9739 45.8652 44.9106 45.2749C44.4595 41.2164 42.9123 37.3571 40.435 34.1109C37.9577 30.8646 34.6437 28.3537 30.8481 26.8474ZM22.5006 25.2499C20.7206 25.2499 18.9805 24.7221 17.5005 23.7331C16.0204 22.7442 14.8669 21.3386 14.1857 19.6941C13.5045 18.0495 13.3263 16.2399 13.6735 14.4941C14.0208 12.7483 14.878 11.1446 16.1366 9.88595C17.3953 8.62728 18.999 7.77011 20.7448 7.42285C22.4906 7.07558 24.3002 7.25381 25.9448 7.935C27.5893 8.61619 28.9949 9.76974 29.9838 11.2498C30.9728 12.7298 31.5006 14.4699 31.5006 16.2499C31.5006 18.6369 30.5524 20.926 28.8646 22.6139C27.1767 24.3017 24.8876 25.2499 22.5006 25.2499Z" fill="#262626"/>
<path d="M81.8481 26.8474C84.054 25.1119 85.6641 22.732 86.4544 20.0388C87.2447 17.3456 87.1759 14.473 86.2576 11.8207C85.3393 9.16842 83.6172 6.8683 81.3308 5.24034C79.0443 3.61238 76.3074 2.73755 73.5006 2.73755C70.6938 2.73755 67.9569 3.61238 65.6704 5.24034C63.384 6.8683 61.6619 9.16842 60.7436 11.8207C59.8253 14.473 59.7565 17.3456 60.5468 20.0388C61.3371 22.732 62.9472 25.1119 65.1531 26.8474C61.3733 28.3618 58.0752 30.8734 55.6106 34.1147C53.146 37.356 51.6071 41.2054 51.1581 45.2524C51.1256 45.5479 51.1516 45.8469 51.2347 46.1323C51.3177 46.4177 51.4562 46.684 51.6421 46.9159C52.0176 47.3843 52.5639 47.6843 53.1606 47.7499C53.7573 47.8156 54.3557 47.6415 54.8241 47.2659C55.2925 46.8904 55.5925 46.3442 55.6581 45.7474C56.1522 41.3491 58.2494 37.287 61.5491 34.3372C64.8488 31.3874 69.1196 29.7567 73.5456 29.7567C77.9716 29.7567 82.2424 31.3874 85.5421 34.3372C88.8418 37.287 90.939 41.3491 91.4331 45.7474C91.4943 46.3003 91.7581 46.8109 92.1736 47.1807C92.5891 47.5505 93.1269 47.7533 93.6831 47.7499H93.9306C94.5204 47.682 95.0595 47.3838 95.4304 46.9202C95.8012 46.4566 95.9739 45.8652 95.9106 45.2749C95.4595 41.2164 93.9123 37.3571 91.435 34.1109C88.9577 30.8646 85.6437 28.3537 81.8481 26.8474ZM73.5006 25.2499C71.7206 25.2499 69.9805 24.7221 68.5005 23.7331C67.0204 22.7442 65.8669 21.3386 65.1857 19.6941C64.5045 18.0495 64.3263 16.2399 64.6735 14.4941C65.0208 12.7483 65.878 11.1446 67.1366 9.88595C68.3953 8.62728 69.999 7.77011 71.7448 7.42285C73.4906 7.07558 75.3002 7.25381 76.9448 7.935C78.5893 8.61619 79.9949 9.76974 80.9838 11.2498C81.9728 12.7298 82.5006 14.4699 82.5006 16.2499C82.5006 18.6369 81.5524 20.926 79.8646 22.6139C78.1767 24.3017 75.8876 25.2499 73.5006 25.2499Z" fill="#262626"/>
<path d="M132.848 26.8474C135.054 25.1119 136.664 22.732 137.454 20.0388C138.245 17.3456 138.176 14.473 137.258 11.8207C136.339 9.16842 134.617 6.8683 132.331 5.24034C130.044 3.61238 127.307 2.73755 124.501 2.73755C121.694 2.73755 118.957 3.61238 116.67 5.24034C114.384 6.8683 112.662 9.16842 111.744 11.8207C110.825 14.473 110.757 17.3456 111.547 20.0388C112.337 22.732 113.947 25.1119 116.153 26.8474C112.373 28.3618 109.075 30.8734 106.611 34.1147C104.146 37.356 102.607 41.2054 102.158 45.2524C102.126 45.5479 102.152 45.8469 102.235 46.1323C102.318 46.4177 102.456 46.684 102.642 46.9159C103.018 47.3843 103.564 47.6843 104.161 47.7499C104.757 47.8156 105.356 47.6415 105.824 47.2659C106.292 46.8904 106.592 46.3442 106.658 45.7474C107.152 41.3491 109.249 37.287 112.549 34.3372C115.849 31.3874 120.12 29.7567 124.546 29.7567C128.972 29.7567 133.242 31.3874 136.542 34.3372C139.842 37.287 141.939 41.3491 142.433 45.7474C142.494 46.3003 142.758 46.8109 143.174 47.1807C143.589 47.5505 144.127 47.7533 144.683 47.7499H144.931C145.52 47.682 146.059 47.3838 146.43 46.9202C146.801 46.4566 146.974 45.8652 146.911 45.2749C146.459 41.2164 144.912 37.3571 142.435 34.1109C139.958 30.8646 136.644 28.3537 132.848 26.8474ZM124.501 25.2499C122.721 25.2499 120.981 24.7221 119.5 23.7331C118.02 22.7442 116.867 21.3386 116.186 19.6941C115.504 18.0495 115.326 16.2399 115.674 14.4941C116.021 12.7483 116.878 11.1446 118.137 9.88595C119.395 8.62728 120.999 7.77011 122.745 7.42285C124.491 7.07558 126.3 7.25381 127.945 7.935C129.589 8.61619 130.995 9.76974 131.984 11.2498C132.973 12.7298 133.501 14.4699 133.501 16.2499C133.501 18.6369 132.552 20.926 130.865 22.6139C129.177 24.3017 126.888 25.2499 124.501 25.2499Z" fill="#262626"/>
<path d="M30.8481 82.3474C33.054 80.6119 34.6641 78.232 35.4544 75.5388C36.2447 72.8456 36.1759 69.973 35.2576 67.3207C34.3393 64.6684 32.6172 62.3683 30.3308 60.7403C28.0443 59.1124 25.3074 58.2375 22.5006 58.2375C19.6938 58.2375 16.9569 59.1124 14.6704 60.7403C12.384 62.3683 10.6619 64.6684 9.74358 67.3207C8.82528 69.973 8.75651 72.8456 9.54681 75.5388C10.3371 78.232 11.9472 80.6119 14.1531 82.3474C10.3733 83.8618 7.07525 86.3734 4.61061 89.6147C2.14597 92.856 0.60712 96.7054 0.158103 100.752C0.125601 101.048 0.151615 101.347 0.23466 101.632C0.317705 101.918 0.456154 102.184 0.642104 102.416C1.01765 102.884 1.56387 103.184 2.1606 103.25C2.75734 103.316 3.35571 103.141 3.82408 102.766C4.29246 102.39 4.59246 101.844 4.6581 101.247C5.15217 96.8491 7.2494 92.787 10.5491 89.8372C13.8488 86.8874 18.1196 85.2567 22.5456 85.2567C26.9716 85.2567 31.2424 86.8874 34.5421 89.8372C37.8418 92.787 39.939 96.8491 40.4331 101.247C40.4943 101.8 40.7581 102.311 41.1736 102.681C41.5891 103.051 42.1269 103.253 42.6831 103.25H42.9306C43.5204 103.182 44.0595 102.884 44.4304 102.42C44.8012 101.957 44.9739 101.365 44.9106 100.775C44.4595 96.7164 42.9123 92.8571 40.435 89.6109C37.9577 86.3646 34.6437 83.8537 30.8481 82.3474ZM22.5006 80.7499C20.7206 80.7499 18.9805 80.2221 17.5005 79.2331C16.0204 78.2442 14.8669 76.8386 14.1857 75.1941C13.5045 73.5495 13.3263 71.7399 13.6735 69.9941C14.0208 68.2483 14.878 66.6446 16.1366 65.386C17.3953 64.1273 18.999 63.2701 20.7448 62.9228C22.4906 62.5756 24.3002 62.7538 25.9448 63.435C27.5893 64.1162 28.9949 65.2697 29.9838 66.7498C30.9728 68.2298 31.5006 69.9699 31.5006 71.7499C31.5006 74.1369 30.5524 76.426 28.8646 78.1139C27.1767 79.8017 24.8876 80.7499 22.5006 80.7499Z" fill="#262626"/>
<path d="M81.8481 82.3474C84.054 80.6119 85.6641 78.232 86.4544 75.5388C87.2447 72.8456 87.1759 69.973 86.2576 67.3207C85.3393 64.6684 83.6172 62.3683 81.3308 60.7403C79.0443 59.1124 76.3074 58.2375 73.5006 58.2375C70.6938 58.2375 67.9569 59.1124 65.6704 60.7403C63.384 62.3683 61.6619 64.6684 60.7436 67.3207C59.8253 69.973 59.7565 72.8456 60.5468 75.5388C61.3371 78.232 62.9472 80.6119 65.1531 82.3474C61.3733 83.8618 58.0752 86.3734 55.6106 89.6147C53.146 92.856 51.6071 96.7054 51.1581 100.752C51.1256 101.048 51.1516 101.347 51.2347 101.632C51.3177 101.918 51.4562 102.184 51.6421 102.416C52.0176 102.884 52.5639 103.184 53.1606 103.25C53.7573 103.316 54.3557 103.141 54.8241 102.766C55.2925 102.39 55.5925 101.844 55.6581 101.247C56.1522 96.8491 58.2494 92.787 61.5491 89.8372C64.8488 86.8874 69.1196 85.2567 73.5456 85.2567C77.9716 85.2567 82.2424 86.8874 85.5421 89.8372C88.8418 92.787 90.939 96.8491 91.4331 101.247C91.4943 101.8 91.7581 102.311 92.1736 102.681C92.5891 103.051 93.1269 103.253 93.6831 103.25H93.9306C94.5204 103.182 95.0595 102.884 95.4304 102.42C95.8012 101.957 95.9739 101.365 95.9106 100.775C95.4595 96.7164 93.9123 92.8571 91.435 89.6109C88.9577 86.3646 85.6437 83.8537 81.8481 82.3474ZM73.5006 80.7499C71.7206 80.7499 69.9805 80.2221 68.5005 79.2331C67.0204 78.2442 65.8669 76.8386 65.1857 75.1941C64.5045 73.5495 64.3263 71.7399 64.6735 69.9941C65.0208 68.2483 65.878 66.6446 67.1366 65.386C68.3953 64.1273 69.999 63.2701 71.7448 62.9228C73.4906 62.5756 75.3002 62.7538 76.9448 63.435C78.5893 64.1162 79.9949 65.2697 80.9838 66.7498C81.9728 68.2298 82.5006 69.9699 82.5006 71.7499C82.5006 74.1369 81.5524 76.426 79.8646 78.1139C78.1767 79.8017 75.8876 80.7499 73.5006 80.7499Z" fill="#262626"/>
<path d="M132.848 82.3474C135.054 80.6119 136.664 78.232 137.454 75.5388C138.245 72.8456 138.176 69.973 137.258 67.3207C136.339 64.6684 134.617 62.3683 132.331 60.7403C130.044 59.1124 127.307 58.2375 124.501 58.2375C121.694 58.2375 118.957 59.1124 116.67 60.7403C114.384 62.3683 112.662 64.6684 111.744 67.3207C110.825 69.973 110.757 72.8456 111.547 75.5388C112.337 78.232 113.947 80.6119 116.153 82.3474C112.373 83.8618 109.075 86.3734 106.611 89.6147C104.146 92.856 102.607 96.7054 102.158 100.752C102.126 101.048 102.152 101.347 102.235 101.632C102.318 101.918 102.456 102.184 102.642 102.416C103.018 102.884 103.564 103.184 104.161 103.25C104.757 103.316 105.356 103.141 105.824 102.766C106.292 102.39 106.592 101.844 106.658 101.247C107.152 96.8491 109.249 92.787 112.549 89.8372C115.849 86.8874 120.12 85.2567 124.546 85.2567C128.972 85.2567 133.242 86.8874 136.542 89.8372C139.842 92.787 141.939 96.8491 142.433 101.247C142.494 101.8 142.758 102.311 143.174 102.681C143.589 103.051 144.127 103.253 144.683 103.25H144.931C145.52 103.182 146.059 102.884 146.43 102.42C146.801 101.957 146.974 101.365 146.911 100.775C146.459 96.7164 144.912 92.8571 142.435 89.6109C139.958 86.3646 136.644 83.8537 132.848 82.3474ZM124.501 80.7499C122.721 80.7499 120.981 80.2221 119.5 79.2331C118.02 78.2442 116.867 76.8386 116.186 75.1941C115.504 73.5495 115.326 71.7399 115.674 69.9941C116.021 68.2483 116.878 66.6446 118.137 65.386C119.395 64.1273 120.999 63.2701 122.745 62.9228C124.491 62.5756 126.3 62.7538 127.945 63.435C129.589 64.1162 130.995 65.2697 131.984 66.7498C132.973 68.2298 133.501 69.9699 133.501 71.7499C133.501 74.1369 132.552 76.426 130.865 78.1139C129.177 79.8017 126.888 80.7499 124.501 80.7499Z" fill="#262626"/>
</svg>
