<svg width="60" height="66" viewBox="0 0 60 66" fill="none" xmlns="http://www.w3.org/2000/svg">
<path d="M41.13 35.1299C44.0712 32.8159 46.218 29.6427 47.2717 26.0517C48.3255 22.4608 48.2337 18.6307 47.0093 15.0943C45.785 11.5579 43.4888 8.49106 40.4402 6.32045C37.3916 4.14984 33.7423 2.9834 30 2.9834C26.2576 2.9834 22.6083 4.14984 19.5598 6.32045C16.5112 8.49106 14.215 11.5579 12.9906 15.0943C11.7662 18.6307 11.6745 22.4608 12.7283 26.0517C13.782 29.6427 15.9288 32.8159 18.87 35.1299C13.8302 37.149 9.43285 40.4979 6.14667 44.8196C2.86048 49.1413 0.808679 54.2738 0.20999 59.6699C0.166654 60.0638 0.20134 60.4625 0.312066 60.8431C0.422793 61.2236 0.607392 61.5786 0.855325 61.8879C1.35605 62.5124 2.08434 62.9124 2.87999 62.9999C3.67564 63.0874 4.47347 62.8553 5.09797 62.3546C5.72246 61.8538 6.12247 61.1255 6.20999 60.3299C6.86874 54.4655 9.66505 49.0493 14.0646 45.1163C18.4642 41.1832 24.1587 39.009 30.06 39.009C35.9613 39.009 41.6557 41.1832 46.0553 45.1163C50.4549 49.0493 53.2512 54.4655 53.91 60.3299C53.9916 61.067 54.3433 61.7479 54.8973 62.2409C55.4513 62.734 56.1683 63.0044 56.91 62.9999H57.24C58.0264 62.9094 58.7452 62.5118 59.2397 61.8936C59.7342 61.2755 59.9643 60.487 59.88 59.6999C59.2785 54.2885 57.2156 49.1428 53.9125 44.8145C50.6095 40.4862 46.1907 37.1383 41.13 35.1299ZM30 32.9999C27.6266 32.9999 25.3065 32.2961 23.3331 30.9775C21.3598 29.6589 19.8217 27.7848 18.9134 25.5921C18.0052 23.3994 17.7675 20.9866 18.2306 18.6588C18.6936 16.331 19.8365 14.1928 21.5147 12.5146C23.1929 10.8364 25.3311 9.69349 27.6589 9.23046C29.9867 8.76744 32.3995 9.00508 34.5922 9.91333C36.7849 10.8216 38.659 12.3597 39.9776 14.333C41.2962 16.3064 42 18.6265 42 20.9999C42 24.1825 40.7357 27.2347 38.4853 29.4852C36.2348 31.7356 33.1826 32.9999 30 32.9999Z" fill="#262626"/>
</svg>
