<svg width="25" height="24" viewBox="0 0 25 24" fill="none" xmlns="http://www.w3.org/2000/svg">
<path d="M16.6842 7.95272C16.5828 7.85047 16.4621 7.76931 16.3292 7.71393C16.1962 7.65855 16.0536 7.63003 15.9096 7.63003C15.7656 7.63003 15.623 7.65855 15.4901 7.71393C15.3571 7.76931 15.2365 7.85047 15.1351 7.95272L12.6369 10.4618L10.1387 7.95272C9.93329 7.7473 9.65468 7.63189 9.36417 7.63189C9.07366 7.63189 8.79504 7.7473 8.58962 7.95272C8.3842 8.15814 8.26879 8.43675 8.26879 8.72726C8.26879 9.01778 8.3842 9.29639 8.58962 9.50181L11.0987 12L8.58962 14.4982C8.48737 14.5996 8.40622 14.7202 8.35083 14.8532C8.29545 14.9861 8.26693 15.1287 8.26693 15.2727C8.26693 15.4167 8.29545 15.5593 8.35083 15.6923C8.40622 15.8252 8.48737 15.9459 8.58962 16.0473C8.69104 16.1495 8.81169 16.2307 8.94463 16.2861C9.07757 16.3414 9.22015 16.37 9.36417 16.37C9.50818 16.37 9.65077 16.3414 9.7837 16.2861C9.91664 16.2307 10.0373 16.1495 10.1387 16.0473L12.6369 13.5382L15.1351 16.0473C15.2365 16.1495 15.3571 16.2307 15.4901 16.2861C15.623 16.3414 15.7656 16.37 15.9096 16.37C16.0536 16.37 16.1962 16.3414 16.3292 16.2861C16.4621 16.2307 16.5828 16.1495 16.6842 16.0473C16.7864 15.9459 16.8676 15.8252 16.923 15.6923C16.9783 15.5593 17.0069 15.4167 17.0069 15.2727C17.0069 15.1287 16.9783 14.9861 16.923 14.8532C16.8676 14.7202 16.7864 14.5996 16.6842 14.4982L14.1751 12L16.6842 9.50181C16.7864 9.4004 16.8676 9.27974 16.923 9.1468C16.9783 9.01387 17.0069 8.87128 17.0069 8.72726C17.0069 8.58325 16.9783 8.44066 16.923 8.30773C16.8676 8.17479 16.7864 8.05413 16.6842 7.95272ZM20.3496 4.28726C19.3433 3.24534 18.1395 2.41426 16.8086 1.84252C15.4776 1.27079 14.0461 0.969847 12.5976 0.95726C11.1491 0.944673 9.71263 1.22069 8.37194 1.76921C7.03125 2.31773 5.81323 3.12776 4.78895 4.15205C3.76467 5.17633 2.95463 6.39435 2.40611 7.73504C1.85759 9.07573 1.58157 10.5122 1.59416 11.9607C1.60675 13.4092 1.90769 14.8407 2.47942 16.1717C3.05116 17.5026 3.88224 18.7064 4.92417 19.7127C5.9305 20.7547 7.13426 21.5857 8.46521 22.1575C9.79616 22.7292 11.2277 23.0301 12.6762 23.0427C14.1247 23.0553 15.5612 22.7793 16.9018 22.2308C18.2425 21.6823 19.4606 20.8722 20.4848 19.8479C21.5091 18.8237 22.3192 17.6056 22.8677 16.2649C23.4162 14.9243 23.6922 13.4878 23.6796 12.0393C23.667 10.5907 23.3661 9.15926 22.7944 7.82831C22.2226 6.49735 21.3916 5.29359 20.3496 4.28726ZM18.8114 18.1745C17.3846 19.603 15.5066 20.4925 13.4974 20.6916C11.4882 20.8907 9.47217 20.387 7.79274 19.2663C6.1133 18.1456 4.87438 16.4773 4.28705 14.5456C3.69972 12.6139 3.80032 10.5383 4.57171 8.67248C5.3431 6.80664 6.73756 5.26597 8.5175 4.31297C10.2974 3.35997 12.3528 3.05359 14.3333 3.44604C16.3138 3.83848 18.0969 4.90547 19.379 6.46522C20.661 8.02497 21.3626 9.98098 21.3642 12C21.3681 13.1469 21.1444 14.2831 20.7063 15.343C20.2681 16.4028 19.6241 17.3652 18.8114 18.1745Z" fill="#262626"/>
</svg>
