<svg width="19" height="20" viewBox="0 0 19 20" fill="none" xmlns="http://www.w3.org/2000/svg">
<g clip-path="url(#clip0_1424_2629)">
<path d="M7.63672 16C7.90194 16 8.15629 15.8946 8.34383 15.7071C8.53136 15.5196 8.63672 15.2652 8.63672 15V9C8.63672 8.73478 8.53136 8.48043 8.34383 8.29289C8.15629 8.10536 7.90194 8 7.63672 8C7.3715 8 7.11715 8.10536 6.92961 8.29289C6.74208 8.48043 6.63672 8.73478 6.63672 9V15C6.63672 15.2652 6.74208 15.5196 6.92961 15.7071C7.11715 15.8946 7.3715 16 7.63672 16ZM17.6367 4H13.6367V3C13.6367 2.20435 13.3206 1.44129 12.758 0.87868C12.1954 0.316071 11.4324 0 10.6367 0H8.63672C7.84107 0 7.07801 0.316071 6.5154 0.87868C5.95279 1.44129 5.63672 2.20435 5.63672 3V4H1.63672C1.3715 4 1.11715 4.10536 0.929612 4.29289C0.742076 4.48043 0.636719 4.73478 0.636719 5C0.636719 5.26522 0.742076 5.51957 0.929612 5.70711C1.11715 5.89464 1.3715 6 1.63672 6H2.63672V17C2.63672 17.7956 2.95279 18.5587 3.5154 19.1213C4.07801 19.6839 4.84107 20 5.63672 20H13.6367C14.4324 20 15.1954 19.6839 15.758 19.1213C16.3206 18.5587 16.6367 17.7956 16.6367 17V6H17.6367C17.9019 6 18.1563 5.89464 18.3438 5.70711C18.5314 5.51957 18.6367 5.26522 18.6367 5C18.6367 4.73478 18.5314 4.48043 18.3438 4.29289C18.1563 4.10536 17.9019 4 17.6367 4ZM7.63672 3C7.63672 2.73478 7.74208 2.48043 7.92961 2.29289C8.11715 2.10536 8.3715 2 8.63672 2H10.6367C10.9019 2 11.1563 2.10536 11.3438 2.29289C11.5314 2.48043 11.6367 2.73478 11.6367 3V4H7.63672V3ZM14.6367 17C14.6367 17.2652 14.5314 17.5196 14.3438 17.7071C14.1563 17.8946 13.9019 18 13.6367 18H5.63672C5.3715 18 5.11715 17.8946 4.92961 17.7071C4.74208 17.5196 4.63672 17.2652 4.63672 17V6H14.6367V17ZM11.6367 16C11.9019 16 12.1563 15.8946 12.3438 15.7071C12.5314 15.5196 12.6367 15.2652 12.6367 15V9C12.6367 8.73478 12.5314 8.48043 12.3438 8.29289C12.1563 8.10536 11.9019 8 11.6367 8C11.3715 8 11.1171 8.10536 10.9296 8.29289C10.7421 8.48043 10.6367 8.73478 10.6367 9V15C10.6367 15.2652 10.7421 15.5196 10.9296 15.7071C11.1171 15.8946 11.3715 16 11.6367 16Z" fill="#E23636"/>
</g>
<defs>
<clipPath id="clip0_1424_2629">
<rect width="18" height="20" fill="white" transform="translate(0.636719)"/>
</clipPath>
</defs>
</svg>
