<svg width="25" height="20" viewBox="0 0 25 20" fill="none" xmlns="http://www.w3.org/2000/svg">
<g clip-path="url(#clip0_220_742)">
<path d="M0.636719 10.5555V15C0.636719 15.2947 0.751653 15.5773 0.956239 15.7857C1.16082 15.994 1.4383 16.1111 1.72763 16.1111H2.81854C2.81854 16.9952 3.16334 17.843 3.7771 18.4681C4.39085 19.0932 5.22328 19.4444 6.09126 19.4444C6.95925 19.4444 7.79168 19.0932 8.40543 18.4681C9.01919 17.843 9.36399 16.9952 9.36399 16.1111H15.9094C15.9094 16.9952 16.2543 17.843 16.868 18.4681C17.4818 19.0932 18.3142 19.4444 19.1822 19.4444C20.0502 19.4444 20.8826 19.0932 21.4963 18.4681C22.1101 17.843 22.4549 16.9952 22.4549 16.1111H23.5458C23.8351 16.1111 24.1126 15.994 24.3172 15.7857C24.5218 15.5773 24.6367 15.2947 24.6367 15V3.88888C24.6367 3.00482 24.2919 2.15697 23.6782 1.53185C23.0644 0.906732 22.232 0.555542 21.364 0.555542H8.75308C8.0675 0.556848 7.39963 0.777412 6.84374 1.1861C6.28784 1.59479 5.872 2.17097 5.6549 2.83332L4.08399 7.62221L1.12763 9.63332C0.977562 9.73397 0.854229 9.87082 0.768587 10.0317C0.682946 10.1926 0.637648 10.3725 0.636719 10.5555ZM22.4549 7.22221H20.2731V2.77776H21.364C21.6533 2.77776 21.9308 2.89483 22.1354 3.1032C22.34 3.31158 22.4549 3.59419 22.4549 3.88888V7.22221ZM18.0913 16.1111C18.0913 15.8913 18.1552 15.6765 18.2751 15.4938C18.395 15.3111 18.5654 15.1687 18.7647 15.0846C18.964 15.0005 19.1834 14.9785 19.395 15.0213C19.6066 15.0642 19.801 15.17 19.9536 15.3254C20.1061 15.4808 20.21 15.6788 20.2521 15.8943C20.2942 16.1099 20.2726 16.3333 20.19 16.5363C20.1075 16.7393 19.9676 16.9129 19.7882 17.035C19.6089 17.157 19.3979 17.2222 19.1822 17.2222C18.8928 17.2222 18.6154 17.1051 18.4108 16.8968C18.2062 16.6884 18.0913 16.4058 18.0913 16.1111ZM15.9094 9.44443H22.4549V13.8889H21.604C21.2972 13.5451 20.9234 13.2705 20.5063 13.0826C20.0892 12.8946 19.6382 12.7976 19.1822 12.7976C18.7261 12.7976 18.2751 12.8946 17.858 13.0826C17.441 13.2705 17.0671 13.5451 16.7604 13.8889H15.9094V9.44443ZM15.9094 2.77776H18.0913V7.22221H15.9094V2.77776ZM11.5458 9.44443H13.7276V13.8889H11.5458V9.44443ZM11.5458 2.77776H13.7276V7.22221H11.5458V2.77776ZM9.36399 7.22221H6.51672L7.71672 3.53332C7.7899 3.31263 7.92933 3.12095 8.11531 2.98537C8.30128 2.84979 8.52438 2.77716 8.75308 2.77776H9.36399V7.22221ZM5.00036 16.1111C5.00036 15.8913 5.06434 15.6765 5.18421 15.4938C5.30408 15.3111 5.47445 15.1687 5.67379 15.0846C5.87313 15.0005 6.09247 14.9785 6.30409 15.0213C6.51571 15.0642 6.71009 15.17 6.86265 15.3254C7.01522 15.4808 7.11912 15.6788 7.16121 15.8943C7.20331 16.1099 7.1817 16.3333 7.09913 16.5363C7.01656 16.7393 6.87674 16.9129 6.69734 17.035C6.51794 17.157 6.30703 17.2222 6.09126 17.2222C5.80194 17.2222 5.52446 17.1051 5.31988 16.8968C5.11529 16.6884 5.00036 16.4058 5.00036 16.1111ZM2.81854 11.1111L5.32763 9.44443H9.36399V13.8889H8.51308C8.20634 13.5451 7.83245 13.2705 7.41539 13.0826C6.99833 12.8946 6.54732 12.7976 6.09126 12.7976C5.63521 12.7976 5.1842 12.8946 4.76714 13.0826C4.35008 13.2705 3.97619 13.5451 3.66945 13.8889H2.81854V11.1111Z" fill="#E23636"/>
</g>
<defs>
<clipPath id="clip0_220_742">
<rect width="24" height="20" fill="white" transform="translate(0.636719)"/>
</clipPath>
</defs>
</svg>
