<svg width="22" height="24" viewBox="0 0 22 24" fill="none" xmlns="http://www.w3.org/2000/svg">
<path d="M10.1577 11.463L0.0903838 22.0106C0.203409 22.4113 0.40655 22.7808 0.684278 23.091C0.962006 23.4011 1.30697 23.6436 1.69279 23.8C2.07862 23.9564 2.49509 24.0225 2.91037 23.9933C3.32566 23.964 3.72876 23.8402 4.08886 23.6313L15.4168 17.1796L10.1577 11.463Z" fill="#EA4335"/>
<path d="M20.3379 9.66992L15.4391 6.86428L9.9251 11.7032L15.4615 17.1644L20.3229 14.3887C20.7536 14.1632 21.1144 13.8242 21.3661 13.4082C21.6178 12.9923 21.7509 12.5155 21.7509 12.0293C21.7509 11.5432 21.6178 11.0663 21.3661 10.6504C21.1144 10.2345 20.7536 9.89541 20.3229 9.66992H20.3379Z" fill="#FBBC04"/>
<path d="M0.090146 1.99544C0.0294779 2.22051 -0.000833395 2.45268 1.74245e-05 2.68579V21.3205C0.000730843 21.5536 0.03117 21.7854 0.0903838 22.0106L10.5027 11.7334L0.090146 1.99544Z" fill="#4285F4"/>
<path d="M10.2328 12.003L15.4391 6.86428L4.12596 0.382873C3.70031 0.133537 3.2162 0.00143135 2.7229 5.06126e-06C2.12731 -0.00114141 1.54769 0.192515 1.0724 0.551447C0.597117 0.910379 0.25225 1.41489 0.0903838 1.98807L10.2328 12.003Z" fill="#34A853"/>
</svg>
