<svg width="104" height="65" viewBox="0 0 104 65" fill="none" xmlns="http://www.w3.org/2000/svg">
<path fill-rule="evenodd" clip-rule="evenodd" d="M74.2856 0.533364C79.6496 1.34689 81.1639 5.09873 81.1639 5.09873C81.1639 5.09873 83.6148 7.48295 84.3263 8.39595C85.0378 9.30894 85.9072 10.3744 85.9072 10.3744C85.9072 10.3744 90.6505 10.9322 92.074 11.5918C92.8481 11.9506 94.558 13.135 96.1984 14.2712C97.5735 15.2236 98.8997 16.1422 99.5848 16.5123C101.087 17.3239 102.826 19.6068 103.459 22.4982C104.091 25.3896 104.091 27.5201 103.854 29.4478C103.763 30.1888 103.555 31.5367 103.325 33.0308C102.956 35.4238 102.529 38.192 102.431 39.4408C102.273 41.4699 101.403 46.0353 101.403 46.0353C101.403 46.0353 102.747 48.2671 102.51 49.0281C102.4 49.3825 102.564 49.726 102.723 50.0585C102.905 50.4397 103.08 50.8064 102.826 51.1585C102.725 51.2992 102.592 51.4582 102.443 51.6358C101.893 52.2908 101.132 53.197 101.008 54.3544C100.85 55.8256 101.324 61.1012 101.324 61.1012C101.324 61.1012 102.431 62.5214 102.352 63.1303C102.273 63.7389 102.431 64.2971 102.431 64.2971C102.431 64.2971 98.0033 64.7536 97.9243 64.2971C97.8454 63.8406 98.3988 62.9276 98.3988 62.9276C98.3988 62.9276 99.1893 59.6304 99.1103 58.4129C99.0313 57.1955 99.0313 53.3911 99.0313 53.3911C99.0313 53.3911 98.0033 52.3257 98.0033 51.6664C98.0033 51.0072 98.0823 49.1302 98.0823 49.1302C98.0823 49.1302 99.3473 46.9491 98.7148 44.92C98.0823 42.8909 96.1849 37.3108 96.1059 37.1081C96.0269 36.9053 93.8129 33.3543 93.8129 33.3543C93.8129 33.3543 93.7339 38.782 93.4174 39.7461C93.3246 40.0293 93.177 40.3212 93.0271 40.6181C92.6666 41.3315 92.2919 42.0733 92.627 42.7895C93.1015 43.8039 95.1569 49.2319 94.9199 49.8405C94.8252 50.0836 94.2129 50.6427 93.4815 51.3105C92.3825 52.3141 91.0144 53.5633 90.7295 54.3551C90.4371 55.1677 89.0944 57.6365 88.0512 59.5545C87.4015 60.749 86.8676 61.7306 86.7766 61.9643C86.6998 62.1617 86.6728 62.4498 86.6444 62.7525C86.5853 63.3831 86.5203 64.077 85.9862 64.1454C85.1957 64.2468 80.9263 64.2975 80.8474 64.0441C80.7684 63.7903 83.2193 61.9136 83.2193 61.9136C83.2193 61.9136 86.9352 54.8627 87.6467 52.4278C88.3581 49.9929 88.9116 48.0182 88.8326 47.839C88.8262 47.8243 88.8045 47.7791 88.77 47.7074C88.3814 46.8987 86.3817 42.7375 86.3817 41.0142C86.3817 39.1371 86.2237 38.5286 86.2237 38.5286C86.2237 38.5286 84.5632 39.2389 84.6428 37.6663C84.7218 36.0937 84.1683 34.5718 83.8524 34.3691C83.5364 34.1664 82.9829 32.1879 82.9829 32.1879L81.481 30.9198L66.697 33.304C66.697 33.304 66.539 42.0289 66.697 43.6015C66.7689 44.3173 67.2994 45.2012 67.8189 46.0666C68.4408 47.1027 69.0469 48.1125 68.8314 48.7758C68.4359 49.9933 67.6454 53.0878 67.6454 53.0878L70.1753 60.2911C70.1753 60.2911 72.1518 61.8637 71.8358 62.6247C71.5199 63.3856 71.9148 64.1466 71.9148 64.1466C71.9148 64.1466 66.6351 64.2479 66.6268 63.9439C66.618 63.6394 66.6268 62.422 66.6268 62.422C66.6268 62.422 67.1715 59.074 66.46 56.284C65.7486 53.494 65.1951 51.8707 65.1951 51.8707C65.1951 51.8707 63.6142 50.6025 63.2976 49.5878C62.9817 48.5734 63.2976 43.7036 63.2976 43.7036C63.2976 43.7036 60.1352 36.0945 59.7397 35.0801C59.3442 34.0657 58.3957 33.203 58.1588 33.051C57.9218 32.899 53.8104 30.9712 53.8104 30.9712C53.8104 30.9712 53.1319 32.9496 52.7995 33.1524C52.6011 33.2733 53.0559 35.3815 53.5558 37.6982C53.8935 39.2635 54.2518 40.9243 54.4429 42.1311C54.6496 43.4345 55.0361 44.5744 55.3544 45.5131C55.767 46.7296 56.0649 47.6081 55.7079 48.0663C55.0754 48.8779 53.8104 52.6316 53.6524 54.7114C53.4945 56.7912 53.4945 61.5596 53.4945 61.5596C53.4945 61.5596 54.9964 62.9291 54.3639 63.3856C53.7314 63.8421 52.7995 64.2479 52.7995 64.2479C52.7995 64.2479 47.4066 63.9942 47.4856 63.7408C47.5092 63.6648 47.6956 63.4664 47.9537 63.1915C48.5584 62.5475 49.5567 61.4843 49.7786 60.5956C50.0951 59.3274 51.2015 53.494 50.8856 52.4792C50.8376 52.3253 50.7751 52.1293 50.7038 51.9058C50.3053 50.6563 49.6326 48.5471 49.6996 48.1166C49.7786 47.6094 49.9365 45.1238 49.3836 43.5512L49.3369 43.4184C48.7043 41.6202 46.3587 34.9521 45.5887 33.964C44.7983 32.9493 43.9283 31.3771 43.9283 31.3771L44.4028 30.1596L42.3473 28.8915C42.3473 28.8915 32.1487 31.1233 25.0334 26.8117C17.9181 22.5001 16.4156 16.5142 16.4156 16.5142L14.4392 14.3838L13.8067 13.5721C13.8067 13.5721 12.2258 13.6228 11.8303 13.1156C11.4348 12.6084 10.0908 11.8982 10.0908 11.8982L5.58446 10.9345L2.42206 11.5941C1.71059 11.5434 1.64398 11.1444 1.64398 11.1444L1.18067 11.1115V10.5718C1.18067 10.5718 0.202175 10.638 0.0648327 10.3955C-0.0725093 10.1531 -0.00414581 9.27226 0.390784 8.95268C0.785717 8.63347 1.19775 8.25866 1.19775 8.25866C1.19775 8.25866 1.54081 7.64181 2.14205 7.19061C2.7427 6.73902 4.16743 6.29841 4.16743 6.29841C4.16743 6.29841 4.87122 5.61573 6.46745 5.59342C8.06369 5.57148 9.91753 5.49433 9.91753 5.49433C9.91753 5.49433 11.7884 5.05372 11.9087 5.03179C11.9432 5.02549 11.9522 4.97571 11.9646 4.90764C11.9953 4.73837 12.0465 4.45603 12.5606 4.44821C13.2815 4.43724 13.6764 4.50343 13.6764 4.50343C13.6764 4.50343 15.5644 3.91985 17.2467 4.04088C18.929 4.16191 19.7696 4.32718 19.7696 4.32718C19.7696 4.32718 22.1038 3.74361 22.6532 3.85367C23.2026 3.96373 22.6532 5.86913 22.6532 5.86913L23.8545 7.19061L24.1757 8.25412C24.1757 8.25412 25.3994 8.90578 25.3305 9.3653C25.2771 9.72035 25.5135 10.3502 25.6447 10.6997C25.6832 10.8022 25.7126 10.8806 25.7231 10.9209C25.7384 10.9803 25.8597 11.1044 26.0101 11.2582C26.3093 11.5642 26.7236 11.988 26.6467 12.2541C26.5917 12.4445 26.9708 12.967 27.3533 13.4944C27.7746 14.0751 28.2001 14.6618 28.0549 14.8172C27.894 14.9892 28.068 15.4961 28.2104 15.9113C28.3132 16.2109 28.3997 16.4627 28.332 16.5063C28.1704 16.6103 27.6394 17.3803 28.7935 18.0323C28.9669 18.1303 29.144 18.2392 29.3285 18.3528C30.3726 18.9952 31.656 19.785 33.8734 19.5584C36.4823 19.2918 40.3155 18.0323 43.248 16.1065C44.243 15.4531 44.9641 14.3938 45.7623 13.2214C47.3167 10.9383 49.1631 8.22615 53.8923 7.24734C57.0311 6.59769 58.9 6.35257 60.1611 6.18717C61.7758 5.97539 62.3941 5.89431 63.4055 5.26212C64.4821 4.589 65.3442 3.85235 66.0806 3.22308C66.576 2.79977 67.0145 2.42505 67.4232 2.15097C68.4394 1.46943 69.5476 1.64719 69.5476 1.64719L70.2868 1.1733L70.3793 1.58819L71.626 0.728897L72.3186 0.995541C72.3156 0.992516 73.0654 0.348421 74.2856 0.533364Z" fill="url(#paint0_linear_1188_1083)"/>
<defs>
<linearGradient id="paint0_linear_1188_1083" x1="52" y1="0.5" x2="52" y2="64.5" gradientUnits="userSpaceOnUse">
<stop stop-color="#262626"/>
<stop offset="0.5" stop-color="#737373"/>
<stop offset="1" stop-color="#262626"/>
</linearGradient>
</defs>
</svg>
