<svg width="104" height="65" viewBox="0 0 104 65" fill="none" xmlns="http://www.w3.org/2000/svg">
<path d="M45.6831 52.4421C45.8867 50.34 44.8016 48.6439 44.8016 48.6439C44.7079 48.4952 44.6395 48.241 44.5875 47.9243C44.0493 50.1766 43.8516 52.1196 43.8516 52.1196C42.5716 53.9258 42.9225 56.5734 43.2748 58.0838C45.3501 55.3187 45.6831 52.4421 45.6831 52.4421Z" fill="url(#paint0_linear_1188_1912)"/>
<path d="M87.7735 14.4444L87.7378 14.4562C87.7794 14.4845 87.824 14.5098 87.8657 14.5366L87.7735 14.4444Z" fill="url(#paint1_linear_1188_1912)"/>
<path d="M87.8672 14.538L90.3513 17.0222C89.7299 16.0886 88.9064 15.2516 87.8672 14.538Z" fill="url(#paint2_linear_1188_1912)"/>
<path d="M36.2432 64.4747L34.8874 63.1189C34.8874 63.1189 34.4474 64.2844 36.2432 64.4747Z" fill="url(#paint3_linear_1188_1912)"/>
<path d="M99.2947 36.8862C97.0008 33.5309 94.6981 33.201 92.1783 23.2006C92.0936 21.045 91.5822 18.8686 90.3513 17.0222L87.8672 14.538C87.8256 14.5113 87.781 14.4846 87.7393 14.4578C86.9172 13.9123 85.9926 13.4247 84.8702 13.0634C84.8702 13.0634 74.7835 12.6069 69.7023 14.2749C69.7023 14.2749 54.1523 15.6783 46.7207 13.0053C46.7207 13.0053 44.6722 10.7859 36.7857 11.0906C36.7857 11.0906 33.4186 9.11184 27.6758 8.43246C31.987 2.20654 27.5212 0.5 27.5212 0.5C29.7273 4.91523 24.5256 7.22392 22.4473 7.94938C19.8993 7.65503 15.1318 7.51681 13.1234 10.1778C13.1234 10.1778 2.50454 13.667 1.29147 9.57137C1.29147 9.57137 -0.681327 11.3909 2.80775 13.212C2.80775 13.212 9.10358 14.6525 10.3167 13.8958C10.3167 13.8958 10.6214 16.0188 11.9088 18.9013C11.9088 18.9013 12.8201 20.5707 9.71008 24.5131C9.71008 24.5131 7.6616 28.5345 13.7299 28.8363C13.7299 28.8363 16.6124 29.141 20.0242 27.47C20.0242 27.47 20.4643 26.3788 22.0728 28.857C22.7879 29.9571 24.4855 30.47 25.5618 32.7802C26.1714 34.0885 26.3141 35.9363 28.1634 37.9373C28.9394 38.7787 30.0707 38.9215 31.0994 39.5295C33.096 40.7114 35.8774 46.5834 37.8502 45.9026C37.8502 45.9026 37.6985 49.9193 38.2292 50.7533C38.2292 50.7533 39.4423 52.6502 39.2164 55.0035C39.2164 55.0035 38.6841 59.6269 34.8933 63.1175L36.249 64.4732C37.1945 64.5743 38.7496 64.4079 41.3407 63.6497C41.3407 63.6497 41.7956 61.069 42.8556 61.3737C42.8556 61.3737 43.5201 61.4987 43.7654 60.9367C44.6276 60.8996 45.8466 60.6883 47.5874 60.1755C47.5874 60.1755 47.9933 57.8697 48.9447 58.1403C48.9447 58.1403 50.3689 58.4123 49.6226 56.2419C49.6226 56.2419 48.1568 52.2399 49.8397 49.8628C49.8397 49.8628 50.2321 45.9932 51.4422 43.1166C51.4422 43.1166 51.4467 43.1032 51.4571 43.0809C51.5136 42.9426 51.5761 42.8104 51.6385 42.6766L51.6697 42.7018C52.1038 42.0373 53.2366 40.7797 55.6969 40.5701C55.8604 40.5582 56.0314 40.5478 56.2068 40.5448C56.971 40.527 57.851 40.6072 58.8604 40.8272C59.8832 41.0457 61.0398 41.41 62.3465 41.9556C62.736 42.0894 63.1076 42.2515 63.457 42.4477C63.4614 42.4492 63.4659 42.4521 63.4719 42.4535V42.4552C64.5065 43.0409 65.3272 43.918 65.6884 45.2202C65.6884 45.2202 66.5982 47.0398 66.9015 44.9912C66.9015 44.9912 67.4337 40.0632 74.7895 37.7887C74.7895 37.7887 81.3885 44.7638 81.1596 48.1013C81.1596 48.1013 83.055 50.8322 77.1398 57.8089V58.7201L75.5461 60.9173C75.5461 60.9173 80.449 62.6641 81.448 60.6899L81.8419 58.7945C81.8419 58.7945 81.7438 58.5833 81.6709 58.3261C81.8241 58.451 82.0188 58.5299 82.2329 58.5299H82.7442C83.1798 58.5299 83.5411 58.2191 83.6228 57.8058C83.9083 57.1398 84.0659 56.0576 84.1164 55.0765C84.1923 53.636 87.1491 47.8723 87.1491 47.8723C87.1491 47.8723 90.7155 55.0763 85.1779 60.3092C85.1779 60.3092 81.8404 63.2691 84.7988 63.4966C84.7988 63.4966 89.2734 64.1805 90.3364 61.3723C90.3364 61.3723 90.2264 60.9307 90.2769 60.5457C90.4048 60.617 90.5504 60.6602 90.708 60.6602H91.2195C91.716 60.6602 92.1159 60.2587 92.1159 59.7651C92.1159 59.7369 92.1099 59.7101 92.1084 59.6819C92.1486 59.5941 92.1902 59.5035 92.2333 59.3995C92.373 59.068 92.2333 59.0204 92.2333 59.0204C92.2333 59.0204 91.9954 47.3802 92.9915 46.5076C93.8611 45.745 93.1432 43.0913 91.8543 42.4848C90.5654 41.8797 88.9717 37.4051 90.3379 33.1579C90.3379 33.1579 91.4707 30.4448 91.9687 26.9706C92.2467 28.7114 92.4623 30.0003 92.4623 30.0003L92.5469 30.4492C92.5469 30.4492 95.7908 39.406 96.1015 41.0442C96.4122 42.684 101.63 50.6492 103.123 47.123C103.117 47.1245 101.872 40.6607 99.2947 36.8862ZM45.6831 52.4421C45.6831 52.4421 45.3516 55.3187 43.2763 58.0838C42.9225 56.5734 42.5717 53.9258 43.8531 52.1196C43.8531 52.1196 44.0493 50.1766 44.589 47.9243C44.6395 48.241 44.7079 48.4952 44.8016 48.6439C44.7986 48.6439 45.8867 50.34 45.6831 52.4421Z" fill="url(#paint4_linear_1188_1912)"/>
<defs>
<linearGradient id="paint0_linear_1188_1912" x1="51.9293" y1="0.5" x2="51.9293" y2="64.5" gradientUnits="userSpaceOnUse">
<stop stop-color="#262626"/>
<stop offset="0.5" stop-color="#737373"/>
<stop offset="1" stop-color="#262626"/>
</linearGradient>
<linearGradient id="paint1_linear_1188_1912" x1="51.9293" y1="0.5" x2="51.9293" y2="64.5" gradientUnits="userSpaceOnUse">
<stop stop-color="#262626"/>
<stop offset="0.5" stop-color="#737373"/>
<stop offset="1" stop-color="#262626"/>
</linearGradient>
<linearGradient id="paint2_linear_1188_1912" x1="51.9293" y1="0.5" x2="51.9293" y2="64.5" gradientUnits="userSpaceOnUse">
<stop stop-color="#262626"/>
<stop offset="0.5" stop-color="#737373"/>
<stop offset="1" stop-color="#262626"/>
</linearGradient>
<linearGradient id="paint3_linear_1188_1912" x1="51.9293" y1="0.5" x2="51.9293" y2="64.5" gradientUnits="userSpaceOnUse">
<stop stop-color="#262626"/>
<stop offset="0.5" stop-color="#737373"/>
<stop offset="1" stop-color="#262626"/>
</linearGradient>
<linearGradient id="paint4_linear_1188_1912" x1="51.9293" y1="0.5" x2="51.9293" y2="64.5" gradientUnits="userSpaceOnUse">
<stop stop-color="#262626"/>
<stop offset="0.5" stop-color="#737373"/>
<stop offset="1" stop-color="#262626"/>
</linearGradient>
</defs>
</svg>
