<svg width="64" height="41" viewBox="0 0 64 41" fill="none" xmlns="http://www.w3.org/2000/svg">
<path d="M2.49453 19.6071C1.72094 19.7992 0.703129 20.2549 0.875038 21.3092C0.9568 21.8117 0.876062 22.3213 0.627633 22.7489C0.117148 23.6263 -0.123916 25.2523 3.31531 26.8783C3.31531 26.8783 8.30378 28.8077 12.3793 33.5181C12.4527 33.6036 12.5323 33.6844 12.6162 33.7582C13.1875 34.2538 15.4695 36.0367 18.5711 35.8083C19.4192 35.7462 20.2462 36.1011 20.8007 36.8204C21.3552 37.5408 22.1078 38.478 22.9024 39.3519C24.7012 41.3317 27.7515 39.5452 27.2651 36.7771C27.2599 36.7478 27.2546 36.7197 27.2494 36.6904C26.8479 34.5689 28.6876 32.7238 30.5283 33.4115C30.9633 33.5743 31.3322 33.7875 31.5828 34.0675C31.5828 34.0675 35.8553 39.2582 40.5922 38.0856C40.8407 38.0247 41.0755 37.9087 41.2935 37.7634C42.5273 36.9364 46.4654 33.9234 44.609 30.2427C43.2139 27.4769 45.6332 24.1172 48.2705 25.298C48.3418 25.3296 48.411 25.3647 48.478 25.4022C48.7139 25.5346 48.9686 25.6201 49.2265 25.6857C50.7873 26.0829 55.7391 27.5694 58.975 31.1107C60.4372 32.711 62.9551 31.7586 63.2548 29.4965C63.4708 27.867 63.3261 25.5697 62.4456 22.3319C62.2884 21.752 62.2905 21.1288 62.4614 20.5536C63.3481 17.5629 65.8482 7.96984 61.3649 8.15025C60.7391 8.17485 60.149 8.48059 59.7003 8.96792C58.0766 10.7321 53.02 15.7659 47.6761 16.3633C45.4277 16.6152 43.9801 13.7873 45.2327 11.6857C46.0357 10.3409 46.2537 8.41265 44.803 5.71128C44.5807 5.29658 44.2652 4.95335 43.8931 4.70735C41.1027 2.86114 28.4161 -4.50263 19.6068 7.64535C19.2745 8.10339 18.8227 8.43842 18.3175 8.60945C15.9034 9.42127 8.51029 12.3206 3.89601 18.6395C3.53647 19.1268 3.04484 19.4688 2.49453 19.6071Z" fill="#404040"/>
</svg>
