<svg width="104" height="65" viewBox="0 0 104 65" fill="none" xmlns="http://www.w3.org/2000/svg">
<path d="M103.001 31.3904C101.821 28.3634 103.559 31.0332 101.821 28.3634C100.083 25.6936 100.806 26.9323 98.9262 24.0725C97.4577 21.8371 97.5769 23.096 96.9387 22.3855C97.1463 21.5533 96.9368 20.5946 96.5523 19.6751C99.9912 12.7219 91.9793 3.33318 91.9793 3.33318L91.9621 3.34833C91.7929 3.07729 91.6892 2.92533 91.6892 2.92533C87.1317 -1.00723 84.6115 0.814082 82.7931 1.70951C76.8689 4.62252 81.9244 8.86278 81.9244 8.86278C84.4847 10.6511 85.1345 11.8492 85.1075 12.6167C84.6424 13.5033 83.2506 14.78 79.1025 15.393C79.1025 15.393 69.9816 12.1507 64.4822 12.6282L57.2778 11.2363C55.1114 10.313 53.0201 9.94188 51.0826 9.90389C50.9422 9.89755 42.6075 9.43528 34.1037 12.0937C32.8216 12.4965 31.5336 12.9689 30.2669 13.5249L29.9037 13.3248C29.9037 13.3248 29.1732 7.59757 20.6329 8.47147L22.0918 9.738L21.3632 10.4282L20.6329 10.7867C20.6329 10.7867 18.032 10.7866 18.3434 12.7763C18.3434 12.7763 15.0142 12.2279 15.2218 14.6292C15.4294 17.028 10.5354 12.0912 10.5354 12.0912C10.5354 12.0912 7.82903 12.2279 5.64539 13.9428C5.64539 13.9428 6.37192 14.9028 2.51981 18.1261C-1.33037 21.3507 3.55972 18.4365 4.49775 19.9968C4.49775 19.9968 1.27042 22.5856 7.4138 23.6166C7.53105 23.6356 7.63867 23.652 7.75016 23.6722C7.39839 23.9445 6.48348 25.1541 16.9883 25.3998C16.9883 25.3998 16.1559 26.7702 17.1978 27.1134C17.1978 27.1134 17.2055 27.1172 17.2074 27.1198C16.8133 28.3534 16.5097 29.673 16.3194 31.0877C15.2487 31.3651 14.4894 32.0452 14.4894 32.8482C14.4894 33.0724 14.5567 33.2826 14.6624 33.4815C14.1415 33.4346 13.5783 33.3828 12.9574 33.3194C12.9574 33.3194 8.90543 38.5641 16.429 39.3278C16.429 39.3278 17.1843 38.8478 18.2627 38.3323C18.3915 38.6439 18.626 38.9441 18.9989 39.1898C20.1176 39.9282 21.938 39.9282 23.0606 39.1898L25.0731 37.8611C25.6613 38.3474 25.8036 39.1746 23.2317 40.3765C23.2317 40.3765 25.6921 43.9038 29.1636 42.9501C29.1636 42.9501 26.2687 45.7161 34.2305 46.0023C34.2305 46.0023 27.7162 49.5309 28.5831 51.7233L36.4007 48.386C36.4007 48.386 28.2966 52.9632 30.7532 54.8706L38.6227 51.0557C38.6227 51.0557 33.502 53.8218 33.9364 57.4466L42.1846 52.3907C42.1846 52.3907 39.8702 56.013 42.0404 56.7779L51.7399 51.4382L54.6328 52.2956L49.712 55.728L45.9502 58.3041L50.0023 57.7315L51.3036 59.8277L56.0821 61.3539L55.5016 60.4014L63.8959 59.544C63.8959 59.544 61.5816 58.2091 57.0952 58.2091C52.6107 58.2091 53.045 54.6794 56.949 54.7769L64.7687 51.247C64.7687 51.247 66.935 59.1615 65.4895 60.2114L63.4653 61.3539H66.6485C66.6485 61.3539 73.3071 63.1651 73.7415 64.5C73.7415 64.5 75.6215 63.9275 72.0019 61.5452C72.0019 61.5452 77.1458 63.4576 81.2631 62.9662C81.4573 62.9421 81.6514 62.9155 81.8436 62.88C86.0417 62.1176 73.8818 61.7351 71.4272 59.3515C71.4272 59.3515 66.7927 58.1103 68.242 50.387L69.8336 55.0606L73.8838 53.8193L75.0409 54.9643L78.3721 54.5843L79.9637 54.2044L83.4352 53.9144L82.7085 52.2007C82.7085 52.2007 83.5775 54.1081 83.7255 51.2457C83.8677 48.3859 85.5284 53.1519 85.5669 50.2934C85.6053 47.4335 87.1969 50.7708 87.343 48.2897C87.4852 45.8098 90.382 48.8635 90.0918 46.2886C89.8015 43.7125 94.0016 46.2886 92.6926 44.6674C91.3951 43.0463 94.8666 45.1424 93.7094 41.7114C92.5522 38.2791 97.4711 43.525 96.4581 41.6151C95.447 39.7077 99.0647 41.7114 98.9186 39.994C98.7725 38.2792 101.379 40.0915 101.087 37.8003C100.799 35.5143 103.259 37.029 102.971 34.2211C102.69 31.4157 104.182 34.4174 103.001 31.3904ZM95.7508 18.1465C94.9973 16.9192 94.1881 16.0136 94.1881 16.0136C92.3427 14.2962 91.1471 10.5777 91.1471 10.5777C91.1471 10.4599 91.0241 10.2496 90.8299 9.99C90.8357 9.98874 90.8396 9.98617 90.8434 9.9849L90.8357 9.99124C90.8357 9.99124 94.2188 11.6479 95.4298 11.5922C96.9157 14.4608 96.4255 16.7407 95.7508 18.1465Z" fill="url(#paint0_linear_1188_1286)"/>
<defs>
<linearGradient id="paint0_linear_1188_1286" x1="52.2624" y1="0.5" x2="52.2624" y2="64.5" gradientUnits="userSpaceOnUse">
<stop stop-color="#262626"/>
<stop offset="0.5" stop-color="#737373"/>
<stop offset="1" stop-color="#262626"/>
</linearGradient>
</defs>
</svg>
