<svg width="64" height="41" viewBox="0 0 64 41" fill="none" xmlns="http://www.w3.org/2000/svg">
<path d="M63.8124 11.9095C64.2054 6.10227 59.1662 4.32022 59.1662 4.32022C59.1662 4.32022 58.0547 2.3399 56.8768 2.07477C55.7002 1.81198 54.3921 2.07477 54.3921 2.07477C53.9991 0.623551 51.1889 1.94449 51.1203 1.04115C51.0551 0.13898 48.5054 2.2073 48.2426 1.2758C47.9833 0.3443 46.9345 2.53699 45.6927 1.7451C44.4498 0.953206 43.5999 3.52716 43.0127 2.27304C42.4221 1.01892 40.9838 2.66957 40.5257 2.07477C40.0687 1.48114 38.5631 3.1318 37.7131 2.01025C36.8632 0.887523 35.1621 2.80214 35.1621 2.14165C35.1621 1.48115 32.1542 2.53817 32.1542 1.81198C32.1542 1.08578 29.4707 2.67074 29.4707 1.81198C29.4707 0.954387 27.115 3.06489 26.8546 1.74624C26.593 0.426423 25.0896 2.67074 24.6327 1.54919C24.1746 0.42646 22.9305 3.19862 22.5387 2.40673C22.1457 1.61366 20.9702 3.92488 20.7737 3.52834C20.576 3.13181 19.0738 4.91265 18.6808 4.78243C18.2878 4.65104 16.9786 5.90398 16.9786 5.90398C16.9786 5.90398 15.6694 7.29071 15.2764 6.89535C14.8834 6.49881 14.1009 7.81858 13.3823 7.55461C12.6615 7.29065 12.2045 8.74306 11.6825 8.28083C11.1569 7.81977 10.8953 10.2612 10.3721 9.33671C9.85002 8.41225 9.91515 10.3268 9.13148 10.1943C8.34666 10.0629 8.86985 11.6455 8.34664 10.9205C7.82226 10.1954 6.90839 11.5141 6.64562 12.1077C6.38401 12.7037 5.4678 12.8339 5.4678 12.8339C4.03069 12.1077 3.89814 14.0235 3.89814 14.0235C3.89814 14.9468 2.59126 15.3421 2.59126 15.3421C-1.85725 19.1033 1.28322 22.6018 1.28322 22.6018C1.93666 24.9775 1.93664 29.1363 1.93664 29.1363C2.00291 32.9632 5.53408 33.4912 5.53408 33.4912C6.58051 33.8865 8.93615 29.7945 8.93615 29.7945C8.93615 28.7398 13.2533 26.6269 13.9067 26.1659C14.5602 25.7036 13.9718 24.6478 14.4288 24.9118C14.8857 25.1757 15.9984 24.4483 15.9984 24.4483C19.0738 19.6982 21.4282 24.4483 21.4282 24.4483C22.6293 26.7759 24.2827 27.9304 25.6431 28.504C25.5035 28.7129 25.3536 29.0695 25.3698 29.4625C25.2652 30.0537 25.3687 30.7612 26.014 31.363C25.9116 32.3872 25.6186 34.161 24.7501 34.784C23.5723 35.6287 23.885 35.9408 24.4199 36.1402C24.4536 36.1531 24.4862 36.1648 24.5199 36.1754C24.6978 36.2364 25.0815 36.3068 25.514 36.3232C25.2419 36.9802 24.8838 37.5468 24.4118 37.8847C22.6549 39.1435 23.12 39.6128 23.9188 39.9108C23.9688 39.9284 24.0176 39.9471 24.0676 39.9635C24.9512 40.2603 29.1207 40.7062 28.4347 38.0337C28.4347 38.0337 28.4068 32.3896 29.2416 29.1129C30.7799 28.7656 31.567 26.8252 31.567 26.8252C44.3219 30.6533 47.9193 25.374 47.9193 25.374C52.1051 24.9129 50.5343 27.0246 51.3191 27.7508C51.5668 27.9796 52.1063 28.1098 52.7283 28.1814C52.3051 29.0155 50.5087 32.3309 48.6053 32.7016C46.5532 33.1016 46.7752 33.7024 47.3624 34.2913C47.3973 34.3277 48.3426 34.6995 48.3426 34.6995C48.3426 34.6995 50.8621 34.0074 52.0981 34.4649C52.0981 34.4649 53.6957 30.8844 55.4235 28.2354C55.6758 28.2248 55.8315 28.213 55.8315 28.213C55.9618 28.3116 56.0618 28.5193 56.1467 28.7926C55.8246 29.4613 55.6397 30.5934 56.6873 31.4651C56.7489 31.7068 56.8234 31.9285 56.9129 32.1139C56.8338 33.3656 56.4838 36.8007 54.9723 37.8871C53.2132 39.1459 53.6805 39.6151 54.4781 39.9131C54.5281 39.9307 54.577 39.9495 54.6282 39.9659C55.5107 40.2627 59.6801 40.7086 58.9941 38.0361C58.9941 38.0361 58.9767 34.1997 59.4383 31.0181C59.6929 30.6591 59.9743 30.2333 60.2801 29.7323C64.596 22.6698 60.8021 19.8319 61.98 18.1168C63.1578 16.3969 63.8124 11.9095 63.8124 11.9095Z" fill="#404040"/>
</svg>
