<svg width="20" height="20" viewBox="0 0 20 20" fill="none" xmlns="http://www.w3.org/2000/svg">
<g clip-path="url(#clip0_223_4215)">
<path d="M19.6283 7.82977C19.5921 7.62923 19.4866 7.44779 19.3302 7.31711C19.1739 7.18643 18.9766 7.11482 18.7728 7.11477H10.5831C10.4689 7.11474 10.3558 7.13721 10.2503 7.1809C10.1448 7.22459 10.0489 7.28864 9.96815 7.36939C9.8874 7.45014 9.82335 7.54601 9.77966 7.65152C9.73598 7.75703 9.71351 7.87011 9.71354 7.98431V11.3479C9.71351 11.4621 9.73598 11.5751 9.77966 11.6806C9.82335 11.7862 9.8874 11.882 9.96815 11.9628C10.0489 12.0435 10.1448 12.1076 10.2503 12.1513C10.3558 12.195 10.4689 12.2174 10.5831 12.2174H14.0286C13.7831 12.6318 13.4465 12.9849 13.0444 13.25C12.3095 13.7159 11.453 13.9535 10.5831 13.9327C9.6809 13.9224 8.80493 13.628 8.07965 13.0913C7.35436 12.5547 6.81666 11.8031 6.54297 10.9434L6.54271 10.9419C6.23814 10.0493 6.23814 9.08079 6.54271 8.1881L6.54292 8.18667C6.81681 7.32712 7.35459 6.57574 8.07986 6.03927C8.80513 5.50279 9.68102 5.2085 10.5831 5.1982C11.0843 5.1867 11.5829 5.27432 12.0501 5.45604C12.5174 5.63776 12.9441 5.90999 13.3059 6.25711C13.4702 6.41411 13.6894 6.5006 13.9167 6.49806C14.1439 6.49552 14.3611 6.40416 14.5219 6.24353L17.0159 3.74952C17.0985 3.66701 17.1637 3.56868 17.2074 3.46042C17.2512 3.35216 17.2727 3.23618 17.2706 3.11943C17.2686 3.00267 17.243 2.88753 17.1954 2.78088C17.1479 2.67423 17.0793 2.57826 16.9938 2.49871C15.2583 0.871532 12.962 -0.0233527 10.5831 0.000463458C8.80915 -0.00478503 7.06904 0.48568 5.55896 1.41655C4.04889 2.34742 2.82891 3.68167 2.03662 5.26885L2.03534 5.27039C1.36364 6.60232 1.01514 8.07375 1.01808 9.56546C1.0202 11.0566 1.36844 12.5269 2.03538 13.8605L2.03666 13.8621C2.82895 15.4492 4.04892 16.7835 5.55899 17.7144C7.06905 18.6452 8.80916 19.1357 10.5831 19.1305C12.9181 19.1896 15.1874 18.3537 16.9261 16.794L16.9268 16.7936L16.9275 16.7928L16.9276 16.7927L16.9277 16.7926C17.8701 15.886 18.6125 14.7923 19.1072 13.5817C19.602 12.3712 19.8381 11.0705 19.8003 9.76332C19.8007 9.11497 19.7432 8.46788 19.6283 7.82977ZM10.5831 1.73955C12.2101 1.72372 13.7986 2.23393 15.1121 3.19417L13.8481 4.45775C12.8896 3.79434 11.7486 3.44535 10.5831 3.45911C9.51895 3.46459 8.4755 3.75353 7.56013 4.29621C6.64476 4.83889 5.89055 5.6157 5.37511 6.54668L4.44538 5.82605L3.9367 5.43156C4.63648 4.29928 5.61491 3.36534 6.77851 2.71897C7.94211 2.0726 9.25201 1.73539 10.5831 1.73955ZM3.17407 12.09C2.61815 10.4529 2.61815 8.67803 3.17407 7.04089L4.7238 8.24246C4.52566 9.11305 4.52566 10.017 4.7238 10.8876L3.17407 12.09ZM10.5831 17.3914C9.25199 17.3955 7.94207 17.0583 6.77846 16.4119C5.61484 15.7655 4.63641 14.8315 3.93663 13.6992L4.26567 13.444L5.37511 12.5834C5.89032 13.5146 6.64446 14.2917 7.55987 14.8345C8.47527 15.3774 9.51884 15.6664 10.5831 15.6718C11.5793 15.6835 12.5642 15.4598 13.4576 15.019L14.9285 16.161C13.6348 16.9945 12.1218 17.4229 10.5831 17.3914ZM16.2576 14.9908L16.0985 14.8673L14.9008 13.9375C15.5288 13.259 15.9509 12.416 16.1179 11.5067C16.1412 11.3812 16.1367 11.2521 16.1045 11.1285C16.0723 11.005 16.0133 10.89 15.9316 10.7919C15.85 10.6937 15.7478 10.6147 15.6322 10.5605C15.5166 10.5064 15.3905 10.4783 15.2628 10.4784H11.4526V8.85386H18.0167C18.0464 9.15446 18.0613 9.45846 18.0613 9.76332C18.1121 11.6666 17.4713 13.5238 16.2576 14.9908H16.2576Z" fill="#262626"/>
</g>
<defs>
<clipPath id="clip0_223_4215">
<rect width="19.13" height="20" fill="white" transform="translate(0.844238)"/>
</clipPath>
</defs>
</svg>
