<svg width="196" height="140" viewBox="0 0 196 140" fill="none" xmlns="http://www.w3.org/2000/svg">
<path d="M75.13 35.1299C78.0712 32.8159 80.218 29.6427 81.2717 26.0517C82.3255 22.4608 82.2337 18.6307 81.0093 15.0943C79.785 11.5579 77.4888 8.49106 74.4402 6.32045C71.3916 4.14984 67.7423 2.9834 64 2.9834C60.2576 2.9834 56.6083 4.14984 53.5598 6.32045C50.5112 8.49106 48.215 11.5579 46.9906 15.0943C45.7662 18.6307 45.6745 22.4608 46.7283 26.0517C47.782 29.6427 49.9288 32.8159 52.87 35.1299C47.8302 37.149 43.4329 40.4979 40.1467 44.8196C36.8605 49.1413 34.8087 54.2738 34.21 59.6699C34.1667 60.0638 34.2013 60.4625 34.3121 60.8431C34.4228 61.2236 34.6074 61.5786 34.8553 61.8879C35.356 62.5124 36.0843 62.9124 36.88 62.9999C37.6756 63.0874 38.4735 62.8553 39.098 62.3546C39.7225 61.8538 40.1225 61.1255 40.21 60.3299C40.8687 54.4655 43.665 49.0493 48.0646 45.1163C52.4642 41.1832 58.1587 39.009 64.06 39.009C69.9613 39.009 75.6557 41.1832 80.0553 45.1163C84.4549 49.0493 87.2512 54.4655 87.91 60.3299C87.9916 61.067 88.3433 61.7479 88.8973 62.2409C89.4513 62.734 90.1683 63.0044 90.91 62.9999H91.24C92.0264 62.9094 92.7452 62.5118 93.2397 61.8936C93.7342 61.2755 93.9643 60.487 93.88 59.6999C93.2785 54.2885 91.2156 49.1428 87.9125 44.8145C84.6095 40.4862 80.1907 37.1383 75.13 35.1299ZM64 32.9999C61.6266 32.9999 59.3065 32.2961 57.3331 30.9775C55.3598 29.6589 53.8217 27.7848 52.9134 25.5921C52.0052 23.3994 51.7675 20.9866 52.2306 18.6588C52.6936 16.331 53.8365 14.1928 55.5147 12.5146C57.1929 10.8364 59.3311 9.69349 61.6589 9.23046C63.9867 8.76744 66.3995 9.00508 68.5922 9.91333C70.7849 10.8216 72.659 12.3597 73.9776 14.333C75.2962 16.3064 76 18.6265 76 20.9999C76 24.1825 74.7357 27.2347 72.4853 29.4852C70.2348 31.7356 67.1826 32.9999 64 32.9999Z" fill="#262626"/>
<path d="M143.13 35.1299C146.071 32.8159 148.218 29.6427 149.272 26.0517C150.325 22.4608 150.234 18.6307 149.009 15.0943C147.785 11.5579 145.489 8.49106 142.44 6.32045C139.392 4.14984 135.742 2.9834 132 2.9834C128.258 2.9834 124.608 4.14984 121.56 6.32045C118.511 8.49106 116.215 11.5579 114.991 15.0943C113.766 18.6307 113.675 22.4608 114.728 26.0517C115.782 29.6427 117.929 32.8159 120.87 35.1299C115.83 37.149 111.433 40.4979 108.147 44.8196C104.86 49.1413 102.809 54.2738 102.21 59.6699C102.167 60.0638 102.201 60.4625 102.312 60.8431C102.423 61.2236 102.607 61.5786 102.855 61.8879C103.356 62.5124 104.084 62.9124 104.88 62.9999C105.676 63.0874 106.473 62.8553 107.098 62.3546C107.722 61.8538 108.122 61.1255 108.21 60.3299C108.869 54.4655 111.665 49.0493 116.065 45.1163C120.464 41.1832 126.159 39.009 132.06 39.009C137.961 39.009 143.656 41.1832 148.055 45.1163C152.455 49.0493 155.251 54.4655 155.91 60.3299C155.992 61.067 156.343 61.7479 156.897 62.2409C157.451 62.734 158.168 63.0044 158.91 62.9999H159.24C160.026 62.9094 160.745 62.5118 161.24 61.8936C161.734 61.2755 161.964 60.487 161.88 59.6999C161.278 54.2885 159.216 49.1428 155.913 44.8145C152.609 40.4862 148.191 37.1383 143.13 35.1299ZM132 32.9999C129.627 32.9999 127.307 32.2961 125.333 30.9775C123.36 29.6589 121.822 27.7848 120.913 25.5921C120.005 23.3994 119.768 20.9866 120.231 18.6588C120.694 16.331 121.836 14.1928 123.515 12.5146C125.193 10.8364 127.331 9.69349 129.659 9.23046C131.987 8.76744 134.399 9.00508 136.592 9.91333C138.785 10.8216 140.659 12.3597 141.978 14.333C143.296 16.3064 144 18.6265 144 20.9999C144 24.1825 142.736 27.2347 140.485 29.4852C138.235 31.7356 135.183 32.9999 132 32.9999Z" fill="#262626"/>
<path d="M41.13 109.13C44.0712 106.816 46.218 103.643 47.2717 100.052C48.3255 96.4608 48.2337 92.6307 47.0093 89.0943C45.785 85.5579 43.4888 82.4911 40.4402 80.3205C37.3916 78.1498 33.7423 76.9834 30 76.9834C26.2576 76.9834 22.6083 78.1498 19.5598 80.3205C16.5112 82.4911 14.215 85.5579 12.9906 89.0943C11.7662 92.6307 11.6745 96.4608 12.7283 100.052C13.782 103.643 15.9288 106.816 18.87 109.13C13.8302 111.149 9.43285 114.498 6.14667 118.82C2.86048 123.141 0.808679 128.274 0.20999 133.67C0.166654 134.064 0.20134 134.462 0.312066 134.843C0.422793 135.224 0.607392 135.579 0.855325 135.888C1.35605 136.512 2.08434 136.912 2.87999 137C3.67564 137.087 4.47347 136.855 5.09797 136.355C5.72246 135.854 6.12247 135.126 6.20999 134.33C6.86874 128.465 9.66505 123.049 14.0646 119.116C18.4642 115.183 24.1587 113.009 30.06 113.009C35.9613 113.009 41.6557 115.183 46.0553 119.116C50.4549 123.049 53.2512 128.465 53.91 134.33C53.9916 135.067 54.3433 135.748 54.8973 136.241C55.4513 136.734 56.1683 137.004 56.91 137H57.24C58.0264 136.909 58.7452 136.512 59.2397 135.894C59.7342 135.276 59.9643 134.487 59.88 133.7C59.2785 128.289 57.2156 123.143 53.9125 118.814C50.6095 114.486 46.1907 111.138 41.13 109.13ZM30 107C27.6266 107 25.3065 106.296 23.3331 104.978C21.3598 103.659 19.8217 101.785 18.9134 99.5921C18.0052 97.3994 17.7675 94.9866 18.2306 92.6588C18.6936 90.331 19.8365 88.1928 21.5147 86.5146C23.1929 84.8364 25.3311 83.6935 27.6589 83.2305C29.9867 82.7674 32.3995 83.0051 34.5922 83.9133C36.7849 84.8216 38.659 86.3597 39.9776 88.333C41.2962 90.3064 42 92.6265 42 94.9999C42 98.1825 40.7357 101.235 38.4853 103.485C36.2348 105.736 33.1826 107 30 107Z" fill="#262626"/>
<path d="M109.13 109.13C112.071 106.816 114.218 103.643 115.272 100.052C116.325 96.4608 116.234 92.6307 115.009 89.0943C113.785 85.5579 111.489 82.4911 108.44 80.3205C105.392 78.1498 101.742 76.9834 98 76.9834C94.2576 76.9834 90.6083 78.1498 87.5598 80.3205C84.5112 82.4911 82.215 85.5579 80.9906 89.0943C79.7662 92.6307 79.6745 96.4608 80.7283 100.052C81.782 103.643 83.9288 106.816 86.87 109.13C81.8302 111.149 77.4329 114.498 74.1467 118.82C70.8605 123.141 68.8087 128.274 68.21 133.67C68.1667 134.064 68.2013 134.462 68.3121 134.843C68.4228 135.224 68.6074 135.579 68.8553 135.888C69.356 136.512 70.0843 136.912 70.88 137C71.6756 137.087 72.4735 136.855 73.098 136.355C73.7225 135.854 74.1225 135.126 74.21 134.33C74.8687 128.465 77.665 123.049 82.0646 119.116C86.4642 115.183 92.1587 113.009 98.06 113.009C103.961 113.009 109.656 115.183 114.055 119.116C118.455 123.049 121.251 128.465 121.91 134.33C121.992 135.067 122.343 135.748 122.897 136.241C123.451 136.734 124.168 137.004 124.91 137H125.24C126.026 136.909 126.745 136.512 127.24 135.894C127.734 135.276 127.964 134.487 127.88 133.7C127.278 128.289 125.216 123.143 121.913 118.814C118.609 114.486 114.191 111.138 109.13 109.13ZM98 107C95.6266 107 93.3065 106.296 91.3331 104.978C89.3598 103.659 87.8217 101.785 86.9134 99.5921C86.0052 97.3994 85.7675 94.9866 86.2306 92.6588C86.6936 90.331 87.8365 88.1928 89.5147 86.5146C91.1929 84.8364 93.3311 83.6935 95.6589 83.2305C97.9867 82.7674 100.399 83.0051 102.592 83.9133C104.785 84.8216 106.659 86.3597 107.978 88.333C109.296 90.3064 110 92.6265 110 94.9999C110 98.1825 108.736 101.235 106.485 103.485C104.235 105.736 101.183 107 98 107Z" fill="#262626"/>
<path d="M177.13 109.13C180.071 106.816 182.218 103.643 183.272 100.052C184.325 96.4608 184.234 92.6307 183.009 89.0943C181.785 85.5579 179.489 82.4911 176.44 80.3205C173.392 78.1498 169.742 76.9834 166 76.9834C162.258 76.9834 158.608 78.1498 155.56 80.3205C152.511 82.4911 150.215 85.5579 148.991 89.0943C147.766 92.6307 147.675 96.4608 148.728 100.052C149.782 103.643 151.929 106.816 154.87 109.13C149.83 111.149 145.433 114.498 142.147 118.82C138.86 123.141 136.809 128.274 136.21 133.67C136.167 134.064 136.201 134.462 136.312 134.843C136.423 135.224 136.607 135.579 136.855 135.888C137.356 136.512 138.084 136.912 138.88 137C139.676 137.087 140.473 136.855 141.098 136.355C141.722 135.854 142.122 135.126 142.21 134.33C142.869 128.465 145.665 123.049 150.065 119.116C154.464 115.183 160.159 113.009 166.06 113.009C171.961 113.009 177.656 115.183 182.055 119.116C186.455 123.049 189.251 128.465 189.91 134.33C189.992 135.067 190.343 135.748 190.897 136.241C191.451 136.734 192.168 137.004 192.91 137H193.24C194.026 136.909 194.745 136.512 195.24 135.894C195.734 135.276 195.964 134.487 195.88 133.7C195.278 128.289 193.216 123.143 189.913 118.814C186.609 114.486 182.191 111.138 177.13 109.13ZM166 107C163.627 107 161.307 106.296 159.333 104.978C157.36 103.659 155.822 101.785 154.913 99.5921C154.005 97.3994 153.768 94.9866 154.231 92.6588C154.694 90.331 155.836 88.1928 157.515 86.5146C159.193 84.8364 161.331 83.6935 163.659 83.2305C165.987 82.7674 168.399 83.0051 170.592 83.9133C172.785 84.8216 174.659 86.3597 175.978 88.333C177.296 90.3064 178 92.6265 178 94.9999C178 98.1825 176.736 101.235 174.485 103.485C172.235 105.736 169.183 107 166 107Z" fill="#262626"/>
</svg>
