<svg width="128" height="140" viewBox="0 0 128 140" fill="none" xmlns="http://www.w3.org/2000/svg">
<path d="M41.13 35.1299C44.0712 32.8159 46.218 29.6427 47.2717 26.0517C48.3255 22.4608 48.2337 18.6307 47.0093 15.0943C45.785 11.5579 43.4888 8.49106 40.4402 6.32045C37.3916 4.14984 33.7423 2.9834 30 2.9834C26.2576 2.9834 22.6083 4.14984 19.5598 6.32045C16.5112 8.49106 14.215 11.5579 12.9906 15.0943C11.7662 18.6307 11.6745 22.4608 12.7283 26.0517C13.782 29.6427 15.9288 32.8159 18.87 35.1299C13.8302 37.149 9.43285 40.4979 6.14667 44.8196C2.86048 49.1413 0.808679 54.2738 0.20999 59.6699C0.166654 60.0638 0.20134 60.4625 0.312066 60.8431C0.422793 61.2236 0.607392 61.5786 0.855325 61.8879C1.35605 62.5124 2.08434 62.9124 2.87999 62.9999C3.67564 63.0874 4.47347 62.8553 5.09797 62.3546C5.72246 61.8538 6.12247 61.1255 6.20999 60.3299C6.86874 54.4655 9.66505 49.0493 14.0646 45.1163C18.4642 41.1832 24.1587 39.009 30.06 39.009C35.9613 39.009 41.6557 41.1832 46.0553 45.1163C50.4549 49.0493 53.2512 54.4655 53.91 60.3299C53.9916 61.067 54.3433 61.7479 54.8973 62.2409C55.4513 62.734 56.1683 63.0044 56.91 62.9999H57.24C58.0264 62.9094 58.7452 62.5118 59.2397 61.8936C59.7342 61.2755 59.9643 60.487 59.88 59.6999C59.2785 54.2885 57.2156 49.1428 53.9125 44.8145C50.6095 40.4862 46.1907 37.1383 41.13 35.1299ZM30 32.9999C27.6266 32.9999 25.3065 32.2961 23.3331 30.9775C21.3598 29.6589 19.8217 27.7848 18.9134 25.5921C18.0052 23.3994 17.7675 20.9866 18.2306 18.6588C18.6936 16.331 19.8365 14.1928 21.5147 12.5146C23.1929 10.8364 25.3311 9.69349 27.6589 9.23046C29.9867 8.76744 32.3995 9.00508 34.5922 9.91333C36.7849 10.8216 38.659 12.3597 39.9776 14.333C41.2962 16.3064 42 18.6265 42 20.9999C42 24.1825 40.7357 27.2347 38.4853 29.4852C36.2348 31.7356 33.1826 32.9999 30 32.9999Z" fill="#262626"/>
<path d="M109.13 35.1299C112.071 32.8159 114.218 29.6427 115.272 26.0517C116.325 22.4608 116.234 18.6307 115.009 15.0943C113.785 11.5579 111.489 8.49106 108.44 6.32045C105.392 4.14984 101.742 2.9834 98 2.9834C94.2576 2.9834 90.6083 4.14984 87.5598 6.32045C84.5112 8.49106 82.215 11.5579 80.9906 15.0943C79.7662 18.6307 79.6745 22.4608 80.7283 26.0517C81.782 29.6427 83.9288 32.8159 86.87 35.1299C81.8302 37.149 77.4329 40.4979 74.1467 44.8196C70.8605 49.1413 68.8087 54.2738 68.21 59.6699C68.1667 60.0638 68.2013 60.4625 68.3121 60.8431C68.4228 61.2236 68.6074 61.5786 68.8553 61.8879C69.356 62.5124 70.0843 62.9124 70.88 62.9999C71.6756 63.0874 72.4735 62.8553 73.098 62.3546C73.7225 61.8538 74.1225 61.1255 74.21 60.3299C74.8687 54.4655 77.665 49.0493 82.0646 45.1163C86.4642 41.1832 92.1587 39.009 98.06 39.009C103.961 39.009 109.656 41.1832 114.055 45.1163C118.455 49.0493 121.251 54.4655 121.91 60.3299C121.992 61.067 122.343 61.7479 122.897 62.2409C123.451 62.734 124.168 63.0044 124.91 62.9999H125.24C126.026 62.9094 126.745 62.5118 127.24 61.8936C127.734 61.2755 127.964 60.487 127.88 59.6999C127.278 54.2885 125.216 49.1428 121.913 44.8145C118.609 40.4862 114.191 37.1383 109.13 35.1299ZM98 32.9999C95.6266 32.9999 93.3065 32.2961 91.3331 30.9775C89.3598 29.6589 87.8217 27.7848 86.9134 25.5921C86.0052 23.3994 85.7675 20.9866 86.2306 18.6588C86.6936 16.331 87.8365 14.1928 89.5147 12.5146C91.1929 10.8364 93.3311 9.69349 95.6589 9.23046C97.9867 8.76744 100.399 9.00508 102.592 9.91333C104.785 10.8216 106.659 12.3597 107.978 14.333C109.296 16.3064 110 18.6265 110 20.9999C110 24.1825 108.736 27.2347 106.485 29.4852C104.235 31.7356 101.183 32.9999 98 32.9999Z" fill="#262626"/>
<path d="M41.13 109.13C44.0712 106.816 46.218 103.643 47.2717 100.052C48.3255 96.4608 48.2337 92.6307 47.0093 89.0943C45.785 85.5579 43.4888 82.4911 40.4402 80.3205C37.3916 78.1498 33.7423 76.9834 30 76.9834C26.2576 76.9834 22.6083 78.1498 19.5598 80.3205C16.5112 82.4911 14.215 85.5579 12.9906 89.0943C11.7662 92.6307 11.6745 96.4608 12.7283 100.052C13.782 103.643 15.9288 106.816 18.87 109.13C13.8302 111.149 9.43285 114.498 6.14667 118.82C2.86048 123.141 0.808679 128.274 0.20999 133.67C0.166654 134.064 0.20134 134.462 0.312066 134.843C0.422793 135.224 0.607392 135.579 0.855325 135.888C1.35605 136.512 2.08434 136.912 2.87999 137C3.67564 137.087 4.47347 136.855 5.09797 136.355C5.72246 135.854 6.12247 135.126 6.20999 134.33C6.86874 128.465 9.66505 123.049 14.0646 119.116C18.4642 115.183 24.1587 113.009 30.06 113.009C35.9613 113.009 41.6557 115.183 46.0553 119.116C50.4549 123.049 53.2512 128.465 53.91 134.33C53.9916 135.067 54.3433 135.748 54.8973 136.241C55.4513 136.734 56.1683 137.004 56.91 137H57.24C58.0264 136.909 58.7452 136.512 59.2397 135.894C59.7342 135.276 59.9643 134.487 59.88 133.7C59.2785 128.289 57.2156 123.143 53.9125 118.814C50.6095 114.486 46.1907 111.138 41.13 109.13ZM30 107C27.6266 107 25.3065 106.296 23.3331 104.978C21.3598 103.659 19.8217 101.785 18.9134 99.5921C18.0052 97.3994 17.7675 94.9866 18.2306 92.6588C18.6936 90.331 19.8365 88.1928 21.5147 86.5146C23.1929 84.8364 25.3311 83.6935 27.6589 83.2305C29.9867 82.7674 32.3995 83.0051 34.5922 83.9133C36.7849 84.8216 38.659 86.3597 39.9776 88.333C41.2962 90.3064 42 92.6265 42 94.9999C42 98.1825 40.7357 101.235 38.4853 103.485C36.2348 105.736 33.1826 107 30 107Z" fill="#262626"/>
<path d="M109.13 109.13C112.071 106.816 114.218 103.643 115.272 100.052C116.325 96.4608 116.234 92.6307 115.009 89.0943C113.785 85.5579 111.489 82.4911 108.44 80.3205C105.392 78.1498 101.742 76.9834 98 76.9834C94.2576 76.9834 90.6083 78.1498 87.5598 80.3205C84.5112 82.4911 82.215 85.5579 80.9906 89.0943C79.7662 92.6307 79.6745 96.4608 80.7283 100.052C81.782 103.643 83.9288 106.816 86.87 109.13C81.8302 111.149 77.4329 114.498 74.1467 118.82C70.8605 123.141 68.8087 128.274 68.21 133.67C68.1667 134.064 68.2013 134.462 68.3121 134.843C68.4228 135.224 68.6074 135.579 68.8553 135.888C69.356 136.512 70.0843 136.912 70.88 137C71.6756 137.087 72.4735 136.855 73.098 136.355C73.7225 135.854 74.1225 135.126 74.21 134.33C74.8687 128.465 77.665 123.049 82.0646 119.116C86.4642 115.183 92.1587 113.009 98.06 113.009C103.961 113.009 109.656 115.183 114.055 119.116C118.455 123.049 121.251 128.465 121.91 134.33C121.992 135.067 122.343 135.748 122.897 136.241C123.451 136.734 124.168 137.004 124.91 137H125.24C126.026 136.909 126.745 136.512 127.24 135.894C127.734 135.276 127.964 134.487 127.88 133.7C127.278 128.289 125.216 123.143 121.913 118.814C118.609 114.486 114.191 111.138 109.13 109.13ZM98 107C95.6266 107 93.3065 106.296 91.3331 104.978C89.3598 103.659 87.8217 101.785 86.9134 99.5921C86.0052 97.3994 85.7675 94.9866 86.2306 92.6588C86.6936 90.331 87.8365 88.1928 89.5147 86.5146C91.1929 84.8364 93.3311 83.6935 95.6589 83.2305C97.9867 82.7674 100.399 83.0051 102.592 83.9133C104.785 84.8216 106.659 86.3597 107.978 88.333C109.296 90.3064 110 92.6265 110 94.9999C110 98.1825 108.736 101.235 106.485 103.485C104.235 105.736 101.183 107 98 107Z" fill="#262626"/>
</svg>
