<svg width="44" height="44" viewBox="0 0 44 44" fill="none" xmlns="http://www.w3.org/2000/svg">
<path d="M30.0935 23.5492C32.2325 21.8663 33.7938 19.5585 34.5602 16.9469C35.3265 14.3353 35.2598 11.5498 34.3694 8.97784C33.4789 6.40592 31.8089 4.1755 29.5918 2.59687C27.3747 1.01825 24.7206 0.169922 21.9989 0.169922C19.2772 0.169922 16.6232 1.01825 14.406 2.59687C12.1889 4.1755 10.519 6.40592 9.62848 8.97784C8.73801 11.5498 8.67132 14.3353 9.43768 16.9469C10.204 19.5585 11.7653 21.8663 13.9044 23.5492C10.2391 25.0176 7.04101 27.4532 4.65106 30.5963C2.2611 33.7393 0.768883 37.472 0.333473 41.3965C0.301956 41.683 0.327182 41.9729 0.40771 42.2497C0.488239 42.5264 0.622493 42.7846 0.802807 43.0095C1.16697 43.4637 1.69664 43.7546 2.27529 43.8183C2.85395 43.8819 3.43419 43.7131 3.88836 43.3489C4.34254 42.9848 4.63346 42.4551 4.69711 41.8765C5.1762 37.6114 7.20988 33.6724 10.4096 30.812C13.6093 27.9516 17.7507 26.3703 22.0426 26.3703C26.3344 26.3703 30.4758 27.9516 33.6755 30.812C36.8752 33.6724 38.9089 37.6114 39.388 41.8765C39.4473 42.4126 39.7031 42.9077 40.1061 43.2663C40.509 43.6249 41.0305 43.8215 41.5698 43.8183H41.8098C42.3818 43.7525 42.9045 43.4633 43.2642 43.0137C43.6238 42.5642 43.7912 41.9907 43.7298 41.4183C43.2924 37.4827 41.7921 33.7404 39.3899 30.5925C36.9876 27.4447 33.774 25.0099 30.0935 23.5492ZM21.9989 22.0001C20.2728 22.0001 18.5855 21.4882 17.1503 20.5293C15.7151 19.5703 14.5965 18.2073 13.936 16.6126C13.2754 15.0179 13.1026 13.2631 13.4393 11.5702C13.7761 9.87729 14.6073 8.32224 15.8278 7.10171C17.0483 5.88118 18.6034 5.04999 20.2963 4.71324C21.9892 4.3765 23.744 4.54933 25.3387 5.20987C26.9334 5.87042 28.2964 6.98902 29.2554 8.42421C30.2144 9.8594 30.7262 11.5467 30.7262 13.2728C30.7262 15.5874 29.8067 17.8073 28.17 19.4439C26.5334 21.0806 24.3135 22.0001 21.9989 22.0001Z" fill="#E23636"/>
</svg>
