<svg width="48" height="49" viewBox="0 0 48 49" fill="none" xmlns="http://www.w3.org/2000/svg">
<path d="M4.16709 48.5C3.01006 48.5 2.02629 48.0947 1.21577 47.2842C0.405257 46.4733 0 45.4895 0 44.3329V15.6378C0 14.4813 0.405257 13.4977 1.21577 12.6872C2.02629 11.8767 3.01006 11.4714 4.16709 11.4714H10.9714V4.6664C10.9714 3.50983 11.3767 2.52628 12.1872 1.71577C12.9977 0.905256 13.9815 0.5 15.1385 0.5H32.8615C34.0185 0.5 35.0023 0.905256 35.8128 1.71577C36.6233 2.52628 37.0286 3.50983 37.0286 4.6664V22.4429H43.8329C44.9899 22.4429 45.9737 22.8481 46.7842 23.6586C47.5947 24.4691 48 25.4527 48 26.6093V44.3329C48 45.4895 47.5947 46.4733 46.7842 47.2842C45.9737 48.0947 44.9899 48.5 43.8329 48.5H27.4286V37.5286H20.5714V48.5H4.16709ZM4.11429 44.3857H10.9714V37.5286H4.11429V44.3857ZM4.11429 33.4143H10.9714V26.5571H4.11429V33.4143ZM4.11429 22.4429H10.9714V15.5857H4.11429V22.4429ZM15.0857 33.4143H21.9429V26.5571H15.0857V33.4143ZM15.0857 22.4429H21.9429V15.5857H15.0857V22.4429ZM15.0857 11.4714H21.9429V4.61429H15.0857V11.4714ZM26.0571 33.4143H32.9143V26.5571H26.0571V33.4143ZM26.0571 22.4429H32.9143V15.5857H26.0571V22.4429ZM26.0571 11.4714H32.9143V4.61429H26.0571V11.4714ZM37.0286 44.3857H43.8857V37.5286H37.0286V44.3857ZM37.0286 33.4143H43.8857V26.5571H37.0286V33.4143Z" fill="#E23636"/>
</svg>
