<svg width="46" height="48" viewBox="0 0 46 48" fill="none" xmlns="http://www.w3.org/2000/svg">
<g clip-path="url(#clip0_2081_13685)">
<path d="M43.5712 18.2856C43.8713 18.2856 44.1686 18.2266 44.4459 18.1117C44.7233 17.9969 44.9753 17.8285 45.1876 17.6163C45.3998 17.404 45.5682 17.152 45.683 16.8747C45.7979 16.5973 45.8569 16.3 45.8569 15.9999V9.14271C45.8571 8.66311 45.7062 8.19563 45.4258 7.80659C45.1453 7.41754 44.7495 7.1267 44.2944 6.97531L23.7229 0.118164C23.2535 -0.0380858 22.746 -0.0380858 22.2765 0.118164L1.70507 6.97531C1.24999 7.1267 0.854141 7.41754 0.573677 7.80659C0.293214 8.19563 0.142381 8.66311 0.142578 9.14271V15.9999C0.1425 16.3 0.201569 16.5973 0.316409 16.8747C0.431249 17.152 0.599611 17.404 0.811875 17.6163C1.02414 17.8285 1.27614 17.9969 1.5535 18.1117C1.83085 18.2266 2.12811 18.2856 2.42829 18.2856H4.71401V34.7068C3.38083 35.1764 2.2257 36.0471 1.40719 37.1994C0.58868 38.3518 0.146927 39.7293 0.142578 41.1427V45.7141C0.1425 46.0143 0.201569 46.3116 0.316409 46.5889C0.431249 46.8663 0.599611 47.1183 0.811875 47.3306C1.02414 47.5428 1.27614 47.7112 1.5535 47.826C1.83085 47.9409 2.12811 47.9999 2.42829 47.9999H43.5712C43.8713 47.9999 44.1686 47.9409 44.4459 47.826C44.7233 47.7112 44.9753 47.5428 45.1876 47.3306C45.3998 47.1183 45.5682 46.8663 45.683 46.5889C45.7979 46.3116 45.8569 46.0143 45.8569 45.7141V41.1427C45.8525 39.7293 45.4108 38.3518 44.5923 37.1994C43.7737 36.0471 42.6186 35.1764 41.2854 34.7068V18.2856H43.5712ZM41.2854 43.4284H4.71401V41.1427C4.71461 40.5367 4.95562 39.9557 5.38415 39.5271C5.81267 39.0986 6.3937 38.8576 6.99972 38.857H38.9997C39.6057 38.8576 40.1868 39.0986 40.6153 39.5271C41.0438 39.9557 41.2848 40.5367 41.2854 41.1427V43.4284ZM9.28544 34.2856V18.2856H13.8569V34.2856H9.28544ZM18.4283 34.2856V18.2856H27.5712V34.2856H18.4283ZM32.1426 34.2856V18.2856H36.714V34.2856H32.1426ZM4.71401 13.7141V10.79L22.9997 4.69403L41.2854 10.79V13.7141H4.71401Z" fill="#E23636"/>
</g>
<defs>
<clipPath id="clip0_2081_13685">
<rect width="45.7143" height="48" fill="white" transform="translate(0.142578)"/>
</clipPath>
</defs>
</svg>
