<svg width="25" height="25" viewBox="0 0 25 25" fill="none" xmlns="http://www.w3.org/2000/svg">
<path d="M12.4092 0.5C10.0358 0.5 7.71573 1.20379 5.74234 2.52236C3.76895 3.84094 2.23088 5.71508 1.32263 7.9078C0.414379 10.1005 0.176739 12.5133 0.639762 14.8411C1.10278 17.1689 2.24567 19.307 3.9239 20.9853C5.60213 22.6635 7.74033 23.8064 10.0681 24.2694C12.3959 24.7324 14.8087 24.4948 17.0014 23.5865C19.1941 22.6783 21.0682 21.1402 22.3868 19.1668C23.7054 17.1934 24.4092 14.8734 24.4092 12.5C24.4092 10.9241 24.0988 9.3637 23.4957 7.9078C22.8927 6.45189 22.0088 5.12902 20.8945 4.01472C19.7802 2.90041 18.4573 2.0165 17.0014 1.41345C15.5455 0.810389 13.985 0.5 12.4092 0.5ZM12.4092 22.1C10.5105 22.1 8.65442 21.537 7.07571 20.4821C5.497 19.4272 4.26654 17.9279 3.53994 16.1738C2.81334 14.4196 2.62323 12.4893 2.99365 10.6271C3.36406 8.76491 4.27837 7.05436 5.62096 5.71177C6.96354 4.36919 8.6741 3.45488 10.5363 3.08446C12.3985 2.71404 14.3288 2.90415 16.0829 3.63076C17.8371 4.35736 19.3364 5.58781 20.3913 7.16652C21.4461 8.74524 22.0092 10.6013 22.0092 12.5C22.0092 15.0461 20.9978 17.4879 19.1974 19.2882C17.3971 21.0886 14.9553 22.1 12.4092 22.1ZM17.2092 11.3H13.6092V7.7C13.6092 7.38174 13.4828 7.07651 13.2577 6.85147C13.0327 6.62643 12.7274 6.5 12.4092 6.5C12.0909 6.5 11.7857 6.62643 11.5607 6.85147C11.3356 7.07651 11.2092 7.38174 11.2092 7.7V11.3H7.60918C7.29092 11.3 6.9857 11.4264 6.76066 11.6515C6.53561 11.8765 6.40918 12.1817 6.40918 12.5C6.40918 12.8183 6.53561 13.1235 6.76066 13.3485C6.9857 13.5736 7.29092 13.7 7.60918 13.7H11.2092V17.3C11.2092 17.6183 11.3356 17.9235 11.5607 18.1485C11.7857 18.3736 12.0909 18.5 12.4092 18.5C12.7274 18.5 13.0327 18.3736 13.2577 18.1485C13.4828 17.9235 13.6092 17.6183 13.6092 17.3V13.7H17.2092C17.5274 13.7 17.8327 13.5736 18.0577 13.3485C18.2828 13.1235 18.4092 12.8183 18.4092 12.5C18.4092 12.1817 18.2828 11.8765 18.0577 11.6515C17.8327 11.4264 17.5274 11.3 17.2092 11.3Z" fill="#262626"/>
</svg>
