<svg width="32" height="27" viewBox="0 0 32 27" fill="none" xmlns="http://www.w3.org/2000/svg">
<path d="M27.2 0.75H4.8C3.52696 0.75 2.30606 1.25571 1.40589 2.15589C0.505713 3.05606 0 4.27696 0 5.55V21.55C0 22.823 0.505713 24.0439 1.40589 24.9441C2.30606 25.8443 3.52696 26.35 4.8 26.35H27.2C28.473 26.35 29.6939 25.8443 30.5941 24.9441C31.4943 24.0439 32 22.823 32 21.55V5.55C32 4.27696 31.4943 3.05606 30.5941 2.15589C29.6939 1.25571 28.473 0.75 27.2 0.75ZM4.8 3.95H27.2C27.6243 3.95 28.0313 4.11857 28.3314 4.41863C28.6314 4.71869 28.8 5.12565 28.8 5.55L16 13.358L3.2 5.55C3.2 5.12565 3.36857 4.71869 3.66863 4.41863C3.96869 4.11857 4.37565 3.95 4.8 3.95ZM28.8 21.55C28.8 21.9743 28.6314 22.3813 28.3314 22.6814C28.0313 22.9814 27.6243 23.15 27.2 23.15H4.8C4.37565 23.15 3.96869 22.9814 3.66863 22.6814C3.36857 22.3813 3.2 21.9743 3.2 21.55V9.198L15.168 16.51C15.4112 16.6504 15.6871 16.7244 15.968 16.7244C16.2489 16.7244 16.5248 16.6504 16.768 16.51L28.8 9.198V21.55Z" fill="#F2F2F2"/>
</svg>
