<svg width="37" height="24" viewBox="0 0 37 24" fill="none" xmlns="http://www.w3.org/2000/svg">
<path fill-rule="evenodd" clip-rule="evenodd" d="M5.80918 0C4.37701 0 3.0035 0.474106 1.9908 1.31802C0.978107 2.16193 0.40918 3.30653 0.40918 4.5V6H36.4092V4.5C36.4092 3.30653 35.8403 2.16193 34.8276 1.31802C33.8149 0.474106 32.4413 0 31.0092 0H5.80918ZM36.4092 9H0.40918V19.5C0.40918 20.6935 0.978107 21.8381 1.9908 22.682C3.0035 23.5259 4.37701 24 5.80918 24H31.0092C32.4413 24 33.8149 23.5259 34.8276 22.682C35.8403 21.8381 36.4092 20.6935 36.4092 19.5V9ZM11.2092 16.5C11.2092 16.1022 11.3988 15.7206 11.7364 15.4393C12.074 15.158 12.5318 15 13.0092 15H20.9544L20.7366 14.8185C20.3988 14.5372 20.209 14.1557 20.2088 13.7578C20.2086 13.3599 20.3982 12.9782 20.7357 12.6968C21.0732 12.4153 21.5311 12.2571 22.0085 12.2569C22.486 12.2568 22.944 12.4147 23.2818 12.696L26.5722 15.4395C26.9096 15.7208 27.0992 16.1023 27.0992 16.5C27.0992 16.8977 26.9096 17.2792 26.5722 17.5605L23.2818 20.3025C23.1157 20.4458 22.9171 20.56 22.6975 20.6387C22.4779 20.7173 22.2417 20.7586 22.0027 20.7604C21.7637 20.7621 21.5267 20.7242 21.3055 20.6487C21.0842 20.5733 20.8833 20.4619 20.7143 20.3211C20.5453 20.1803 20.4116 20.0128 20.3211 19.8284C20.2306 19.6441 20.1851 19.4466 20.1871 19.2474C20.1892 19.0482 20.2389 18.8514 20.3332 18.6684C20.4275 18.4854 20.5647 18.3199 20.7366 18.1815L20.9544 18H13.0092C12.5318 18 12.074 17.842 11.7364 17.5607C11.3988 17.2794 11.2092 16.8978 11.2092 16.5Z" fill="#262626"/>
</svg>
