<svg width="37" height="24" viewBox="0 0 37 24" fill="none" xmlns="http://www.w3.org/2000/svg">
<path d="M34.0092 24H2.80918C2.17266 24 1.56221 23.7471 1.11212 23.2971C0.662036 22.847 0.40918 22.2365 0.40918 21.6L0.40918 2.4C0.40918 1.76348 0.662036 1.15303 1.11212 0.702944C1.56221 0.252856 2.17266 0 2.80918 0L34.0092 0C34.6457 0 35.2561 0.252856 35.7062 0.702944C36.1563 1.15303 36.4092 1.76348 36.4092 2.4V21.6C36.4092 22.2365 36.1563 22.847 35.7062 23.2971C35.2561 23.7471 34.6457 24 34.0092 24ZM28.8932 19.719H28.8792C28.7425 19.7196 28.6073 19.7482 28.4821 19.8031C28.3569 19.8579 28.2443 19.9379 28.1512 20.038L28.1502 20.039C27.9531 20.2548 27.844 20.5365 27.8442 20.8287C27.8443 21.1209 27.9539 21.4025 28.1512 21.618L28.1502 21.617C28.3322 21.814 28.5912 21.937 28.8792 21.937H28.8932C29.022 21.9458 29.1501 21.9219 29.2673 21.8678C29.3846 21.8136 29.4863 21.7308 29.5632 21.627L29.5642 21.625V21.891H30.0172V18.922H29.5642V20.032C29.49 19.935 29.3945 19.8562 29.2851 19.8018C29.1757 19.7473 29.0554 19.7187 28.9332 19.718L28.8912 19.719H28.8932ZM24.6432 19.719H24.6202C24.3312 19.719 24.0702 19.839 23.8852 20.032C23.6879 20.2508 23.5787 20.535 23.5789 20.8297C23.5791 21.1243 23.6886 21.4084 23.8862 21.627L23.8852 21.626C24.0712 21.819 24.3322 21.939 24.6212 21.939H24.6452L24.6892 21.94C24.8082 21.94 24.9254 21.9118 25.0313 21.8575C25.1372 21.8032 25.2287 21.7246 25.2982 21.628L25.3002 21.626V21.892H25.7702V19.782H25.3012V20.032C25.2253 19.9302 25.1256 19.8485 25.011 19.7939C24.8963 19.7394 24.7701 19.7137 24.6432 19.719ZM22.5952 19.719L22.5532 19.718C22.2588 19.718 21.9765 19.8349 21.7683 20.0431C21.5601 20.2513 21.4432 20.5336 21.4432 20.828C21.4432 21.1224 21.5601 21.4047 21.7683 21.6129C21.9765 21.8211 22.2588 21.938 22.5532 21.938L22.5972 21.937H22.5952L22.6362 21.938C22.9062 21.938 23.1532 21.844 23.3482 21.686L23.3462 21.688L23.1272 21.313C22.9817 21.426 22.8051 21.4916 22.6212 21.501H22.6192C22.5273 21.5069 22.4352 21.4931 22.349 21.4607C22.2628 21.4283 22.1844 21.378 22.1192 21.313C22.0028 21.1784 21.9388 21.0063 21.939 20.8283C21.9392 20.6503 22.0035 20.4784 22.1202 20.344L22.1192 20.345C22.1758 20.285 22.2442 20.2374 22.3201 20.205C22.396 20.1727 22.4777 20.1563 22.5602 20.157H22.5812H22.5802C22.779 20.1576 22.9721 20.2241 23.1292 20.346L23.1272 20.344L23.3462 19.969C23.1393 19.806 22.8835 19.7176 22.6202 19.718L22.5952 19.719ZM18.5152 19.719H18.4902C18.3544 19.7192 18.2201 19.7471 18.0955 19.8009C17.9708 19.8547 17.8584 19.9333 17.7652 20.032C17.564 20.2495 17.4572 20.5379 17.4682 20.834V20.832L17.4672 20.878C17.4672 21.173 17.5842 21.441 17.7732 21.637C17.9632 21.826 18.2252 21.942 18.5142 21.942L18.5482 21.941H18.5462L18.5872 21.942C18.9002 21.942 19.1862 21.829 19.4082 21.642L19.4062 21.644L19.1872 21.301C19.0194 21.4498 18.8034 21.5329 18.5792 21.535C18.427 21.5482 18.2746 21.5022 18.1554 21.4067C18.0362 21.3112 17.9584 21.1734 17.9382 21.022V21.019H19.5162V20.832C19.5299 20.5368 19.4284 20.2478 19.2332 20.026L19.2342 20.027C19.1461 19.9298 19.0387 19.8521 18.9189 19.7989C18.799 19.7456 18.6693 19.7181 18.5382 19.718H18.5162L18.5152 19.719ZM15.4382 19.782V20.204H15.8752V21.158C15.8752 21.676 16.1222 21.939 16.6092 21.939H16.6262C16.8282 21.939 17.0152 21.879 17.1722 21.777L17.1682 21.779L17.0422 21.388C16.9182 21.4581 16.7786 21.4959 16.6362 21.498C16.4382 21.498 16.3378 21.3837 16.3372 21.155V20.205H17.0872V19.783H16.3372V19.143H15.8682V19.783L15.4382 19.782ZM13.4712 21.312L13.2682 21.672C13.5152 21.839 13.8192 21.938 14.1462 21.938H14.1762H14.1742L14.2402 21.94C14.4792 21.94 14.7022 21.869 14.8892 21.747L14.8842 21.75C14.9636 21.696 15.0286 21.6233 15.0735 21.5385C15.1185 21.4536 15.1421 21.359 15.1422 21.263V21.249C15.1408 20.897 14.8962 20.6897 14.4082 20.625L14.1902 20.593C13.9502 20.5517 13.8302 20.479 13.8302 20.375C13.8302 20.219 13.9605 20.141 14.2212 20.141H14.2262C14.4712 20.141 14.7012 20.205 14.9002 20.317L14.8932 20.313L15.0812 19.938C14.8207 19.7833 14.521 19.7072 14.2182 19.719H14.2212L14.1672 19.718C13.9556 19.7177 13.7494 19.7846 13.5782 19.909L13.5812 19.907C13.5078 19.9635 13.4484 20.0363 13.4078 20.1195C13.3672 20.2028 13.3465 20.2944 13.3472 20.387V20.408V20.407C13.3485 20.7497 13.5932 20.9527 14.0812 21.016L14.2842 21.048C14.5335 21.09 14.6585 21.163 14.6592 21.267C14.6598 21.4437 14.4982 21.5323 14.1742 21.533H14.1652C13.9151 21.5336 13.671 21.4559 13.4672 21.311L13.4712 21.314V21.312ZM11.6892 19.718H11.6642C11.5286 19.7184 11.3945 19.7463 11.27 19.8001C11.1456 19.8539 11.0333 19.9325 10.9402 20.031C10.7476 20.2523 10.6417 20.5358 10.6419 20.8292C10.6421 21.1225 10.7484 21.4059 10.9412 21.627L10.9402 21.626C11.0334 21.7247 11.1458 21.8033 11.2705 21.8571C11.3951 21.9109 11.5294 21.9388 11.6652 21.939H11.6912C11.8201 21.946 11.9477 21.9213 12.0649 21.8671C12.182 21.8129 12.2841 21.7308 12.3622 21.628L12.3632 21.626V21.892H12.8162V19.782H12.3632V20.032C12.2836 19.9343 12.1832 19.8556 12.0694 19.8014C11.9556 19.7473 11.8312 19.7191 11.7052 19.719L11.6892 19.718ZM26.3772 19.781V21.891H26.8302V20.704C26.8302 20.3413 26.9812 20.1593 27.2832 20.158H27.2932C27.3932 20.1587 27.4852 20.18 27.5692 20.222L27.5652 20.22L27.7052 19.782C27.6117 19.7394 27.5099 19.7179 27.4072 19.719L27.3752 19.72H27.3772H27.3602C27.2524 19.7195 27.1466 19.748 27.0537 19.8026C26.9608 19.8571 26.8843 19.9357 26.8322 20.03L26.8302 20.033V19.783L26.3772 19.781ZM19.9872 19.781V21.891H20.4562V20.704C20.4562 20.3413 20.6072 20.1593 20.9092 20.158H20.9192C21.0192 20.1587 21.1112 20.18 21.1952 20.222L21.1912 20.22L21.3322 19.782C21.2341 19.7406 21.1287 19.7192 21.0222 19.719H21.0032H20.9862C20.8786 19.7187 20.7729 19.7473 20.6802 19.8018C20.5875 19.8564 20.5112 19.9348 20.4592 20.029L20.4572 20.032V19.782L19.9872 19.781ZM9.29918 20.156C9.61118 20.1573 9.76751 20.344 9.76818 20.716V21.888H10.2372V20.56L10.2382 20.527C10.2378 20.316 10.1562 20.1133 10.0102 19.961C9.8445 19.8074 9.62711 19.7217 9.40118 19.721H9.39218C9.24794 19.7111 9.10371 19.7404 8.97481 19.8059C8.84592 19.8714 8.73719 19.9706 8.66018 20.093L8.65818 20.096C8.58703 19.9742 8.48341 19.8747 8.3589 19.8084C8.23439 19.7422 8.09391 19.7119 7.95318 19.721H7.95518H7.94618C7.82868 19.7208 7.71286 19.749 7.60858 19.8031C7.5043 19.8573 7.41462 19.9358 7.34718 20.032L7.34518 20.034V19.784H6.87818V21.894H7.34718V20.72C7.34851 20.3467 7.52051 20.16 7.86318 20.16C8.17518 20.1613 8.33151 20.348 8.33218 20.72V21.892H8.78518V20.72C8.78651 20.3467 8.95818 20.16 9.30018 20.16L9.29918 20.156ZM23.3152 2H23.2822C21.7186 1.99903 20.1909 2.46798 18.8972 3.346L18.9242 3.329C20.2297 4.3874 21.1899 5.81106 21.6822 7.418L21.6982 7.478C21.9342 8.223 22.0692 9.079 22.0692 9.968C22.0692 10.847 21.9362 11.694 21.6902 12.492L21.7062 12.432C21.2255 14.0545 20.2604 15.4914 18.9402 16.55L18.9242 16.563C20.2207 17.433 21.7478 17.8954 23.3092 17.891C24.4292 17.891 25.4942 17.658 26.4592 17.238L26.4082 17.258C28.2992 16.4651 29.8078 14.9679 30.6152 13.083L30.6342 13.032C31.0342 12.122 31.2672 11.061 31.2672 9.946C31.2672 8.831 31.0342 7.77 30.6142 6.81L30.6342 6.86C29.8407 4.96705 28.3399 3.45839 26.4512 2.655L26.4002 2.636C25.4295 2.21606 24.3828 2.00058 23.3252 2.003H23.3142L23.3152 2ZM13.5032 2H13.4922C12.4167 1.99957 11.3528 2.22155 10.3672 2.652L10.4172 2.632C8.52097 3.42032 7.00799 4.91858 6.20118 6.807L6.18218 6.858C5.78218 7.768 5.54918 8.829 5.54918 9.944C5.54918 11.059 5.78218 12.12 6.20218 13.08L6.18218 13.03C6.97512 14.921 8.47226 16.4296 10.3572 17.237L10.4082 17.256C11.3222 17.656 12.3882 17.889 13.5072 17.889C15.0797 17.8919 16.6169 17.423 17.9202 16.543L17.8922 16.561C16.5796 15.5075 15.6156 14.0824 15.1262 12.472L15.1112 12.413C14.8696 11.6158 14.7479 10.787 14.7502 9.954C14.7487 8.68834 15.0286 7.43818 15.5696 6.29396C16.1106 5.14975 16.8991 4.14008 17.8782 3.338L17.8932 3.326C16.6069 2.45634 15.0888 1.99363 13.5362 1.998H13.5002H13.5022L13.5032 2ZM18.4092 3.703C17.1459 4.67985 16.2129 6.0209 15.7362 7.545L15.7212 7.6C15.4809 8.36321 15.3595 9.15886 15.3612 9.959C15.3612 10.793 15.4902 11.596 15.7292 12.351L15.7142 12.295C16.1804 13.8354 17.1163 15.1917 18.3912 16.174L18.4092 16.187C19.6794 15.2172 20.6163 13.8762 21.0902 12.35L21.1052 12.296C21.3424 11.5398 21.4615 10.7515 21.4582 9.959C21.4582 9.116 21.3262 8.305 21.0832 7.543L21.0982 7.599C20.63 6.05998 19.6974 4.70336 18.4282 3.715L18.4102 3.702L18.4092 3.703ZM28.9552 21.5H28.9382C28.8548 21.5 28.7724 21.4827 28.6961 21.4492C28.6199 21.4156 28.5514 21.3665 28.4952 21.305C28.3786 21.1732 28.3144 21.0033 28.3146 20.8273C28.3147 20.6514 28.3794 20.4816 28.4962 20.35L28.4952 20.351C28.5549 20.289 28.6265 20.2397 28.7057 20.206C28.7849 20.1723 28.8701 20.1549 28.9562 20.1549C29.0423 20.1549 29.1275 20.1723 29.2067 20.206C29.2859 20.2397 29.3575 20.289 29.4172 20.351C29.5334 20.4842 29.5973 20.655 29.5971 20.8317C29.5969 21.0084 29.5326 21.1791 29.4162 21.312L29.4172 21.311C29.3603 21.3715 29.2914 21.4196 29.215 21.4521C29.1386 21.4846 29.0562 21.5009 28.9732 21.5H28.9552ZM24.6902 21.5H24.6682C24.5875 21.4994 24.5077 21.4826 24.4336 21.4504C24.3596 21.4183 24.2927 21.3716 24.2372 21.313C24.125 21.1762 24.0638 21.0047 24.064 20.8278C24.0642 20.6509 24.1257 20.4796 24.2382 20.343L24.2372 20.344C24.2927 20.2853 24.3594 20.2383 24.4335 20.206C24.5076 20.1737 24.5874 20.1567 24.6682 20.156H24.6912H24.7082C24.8832 20.156 25.0412 20.231 25.1502 20.351C25.2622 20.472 25.3302 20.634 25.3302 20.812V20.832V20.831L25.3312 20.858C25.3308 21.0269 25.2693 21.1899 25.1582 21.317L25.1592 21.316C25.1028 21.3746 25.035 21.4212 24.9601 21.4528C24.8851 21.4844 24.8045 21.5005 24.7232 21.5L24.6892 21.499H24.6912L24.6902 21.5ZM11.7522 21.5L11.7232 21.501C11.641 21.5014 11.5597 21.4849 11.4842 21.4526C11.4087 21.4202 11.3406 21.3727 11.2842 21.313C11.172 21.1762 11.1108 21.0047 11.111 20.8278C11.1112 20.6509 11.1727 20.4796 11.2852 20.343L11.2842 20.344C11.3443 20.2804 11.4176 20.2306 11.499 20.1983C11.5803 20.166 11.6678 20.1519 11.7552 20.157H11.7772C11.8586 20.1569 11.9391 20.1742 12.0133 20.2079C12.0875 20.2415 12.1536 20.2907 12.2072 20.352L12.2082 20.353C12.3187 20.4888 12.379 20.6586 12.3789 20.8337C12.3787 21.0088 12.318 21.1784 12.2072 21.314L12.2082 21.313C12.1525 21.372 12.0854 21.4191 12.0109 21.4514C11.9365 21.4837 11.8563 21.5006 11.7752 21.501H11.7532H11.7542L11.7522 21.5ZM19.0492 20.64H17.9562C17.9701 20.5048 18.0336 20.3795 18.1345 20.2883C18.2353 20.1972 18.3663 20.1466 18.5023 20.1464C18.6382 20.1461 18.7694 20.1962 18.8706 20.287C18.9718 20.3778 19.0358 20.5028 19.0502 20.638L19.0492 20.64Z" fill="#262626"/>
</svg>
