<svg width="37" height="24" viewBox="0 0 37 24" fill="none" xmlns="http://www.w3.org/2000/svg">
<path d="M34.0092 24H2.80918C2.17266 24 1.56221 23.7471 1.11212 23.2971C0.662036 22.847 0.40918 22.2365 0.40918 21.6L0.40918 2.4C0.40918 1.76348 0.662036 1.15303 1.11212 0.702944C1.56221 0.252856 2.17266 0 2.80918 0L34.0092 0C34.6457 0 35.2561 0.252856 35.7062 0.702944C36.1563 1.15303 36.4092 1.76348 36.4092 2.4V21.6C36.4092 22.2365 36.1563 22.847 35.7062 23.2971C35.2561 23.7471 34.6457 24 34.0092 24ZM14.4412 10.325C14.4137 10.3251 14.3867 10.3314 14.3621 10.3436C14.3375 10.3557 14.3159 10.3733 14.2992 10.395C14.2598 10.4351 14.2372 10.4888 14.2362 10.545C14.2362 10.566 14.3342 10.865 14.5442 11.478L14.9982 12.804L15.2092 13.422C15.4458 14.1153 15.5695 14.484 15.5802 14.528C15.1147 15.1045 14.6939 15.7156 14.3212 16.356L14.2832 16.426L14.2812 16.451C14.2812 16.551 14.3622 16.633 14.4632 16.633L14.4902 16.631H14.4892H15.7072C15.7639 16.6302 15.8195 16.6152 15.8689 16.5875C15.9183 16.5597 15.96 16.52 15.9902 16.472L15.9912 16.471L20.0232 10.652C20.0445 10.6242 20.0561 10.5901 20.0562 10.555L20.0552 10.54V10.541C20.0541 10.4848 20.0316 10.4311 19.9922 10.391C19.9755 10.3694 19.9542 10.3519 19.9297 10.3398C19.9053 10.3276 19.8784 10.3212 19.8512 10.321H18.6322C18.5753 10.3216 18.5195 10.3365 18.4699 10.3643C18.4203 10.3921 18.3784 10.4319 18.3482 10.48L18.3472 10.481L16.6672 12.947L15.9722 10.575C15.9543 10.5027 15.9129 10.4385 15.8544 10.3925C15.7958 10.3464 15.7236 10.3213 15.6492 10.321L15.6232 10.322H15.6242L14.4412 10.325ZM28.4192 10.214H28.3932C27.6352 10.214 26.9542 10.543 26.4842 11.065L26.4822 11.067C25.9685 11.5989 25.6816 12.3096 25.6822 13.049V13.076V13.075C25.6808 13.105 25.6802 13.1377 25.6802 13.173C25.6802 13.71 25.8892 14.199 26.2292 14.562L26.2282 14.561C26.4215 14.7495 26.6517 14.896 26.9043 14.9913C27.1569 15.0866 27.4265 15.1288 27.6962 15.115H27.6912C28.0282 15.111 28.3482 15.042 28.6402 14.918L28.6242 14.924C28.9192 14.813 29.1692 14.64 29.3662 14.42L29.3682 14.418C29.3582 14.474 29.3468 14.5243 29.3342 14.569L29.3362 14.559C29.3195 14.6205 29.3088 14.6835 29.3042 14.747V14.749C29.3042 14.917 29.3728 15.0013 29.5102 15.002H30.6012C30.6438 15.0058 30.6867 15.0011 30.7275 14.988C30.7682 14.975 30.8059 14.9539 30.8383 14.926C30.8708 14.8981 30.8973 14.864 30.9163 14.8257C30.9354 14.7874 30.9465 14.7457 30.9492 14.703V14.702L31.5972 10.575C31.6032 10.5439 31.6021 10.5118 31.594 10.4811C31.5858 10.4505 31.5709 10.422 31.5502 10.398C31.5319 10.3736 31.5082 10.3536 31.481 10.3398C31.4538 10.3259 31.4237 10.3185 31.3932 10.318H30.1902C30.0432 10.318 29.9502 10.493 29.9202 10.84C29.7441 10.6142 29.5126 10.4378 29.2482 10.328C28.9838 10.2181 28.6954 10.1785 28.4112 10.213L28.4192 10.212V10.214ZM10.4562 10.214H10.4282C9.67118 10.214 8.99018 10.543 8.52218 11.065L8.52018 11.067C8.0065 11.5989 7.71963 12.3096 7.72018 13.049V13.076V13.075C7.7067 13.3468 7.7483 13.6186 7.84247 13.8739C7.93664 14.1293 8.08144 14.363 8.26818 14.561L8.26718 14.56C8.62118 14.904 9.10518 15.116 9.63918 15.116L9.73518 15.114H9.73018C10.0622 15.109 10.3772 15.04 10.6642 14.917L10.6482 14.923C10.9472 14.809 11.2012 14.637 11.4062 14.418L11.4072 14.417C11.3702 14.515 11.3472 14.629 11.3442 14.747V14.749C11.3448 14.917 11.4135 15.0013 11.5502 15.002H12.6402C12.6828 15.0058 12.7257 15.0011 12.7665 14.988C12.8072 14.975 12.8449 14.9539 12.8773 14.926C12.9098 14.8981 12.9363 14.864 12.9553 14.8257C12.9744 14.7874 12.9855 14.7457 12.9882 14.703V14.702L13.6372 10.575C13.6428 10.5441 13.6414 10.5123 13.6331 10.482C13.6248 10.4518 13.6098 10.4237 13.5892 10.4C13.5709 10.3756 13.5472 10.3556 13.52 10.3418C13.4928 10.3279 13.4627 10.3205 13.4322 10.32H12.2292C12.0822 10.32 11.9892 10.495 11.9602 10.842C11.7822 10.6181 11.5503 10.443 11.2862 10.3332C11.0221 10.2234 10.7344 10.1823 10.4502 10.214L10.4582 10.213L10.4562 10.214ZM33.0212 8L33.0052 7.999C32.9574 7.99883 32.9114 8.01664 32.8762 8.04888C32.841 8.08112 32.8192 8.12543 32.8152 8.173L31.7872 14.752C31.7787 14.7837 31.7786 14.817 31.7869 14.8487C31.7951 14.8804 31.8114 14.9094 31.8342 14.933C31.8531 14.9554 31.8767 14.9734 31.9033 14.9856C31.9299 14.9979 31.9589 15.0042 31.9882 15.004H33.0382L33.0702 15.006C33.1497 15.006 33.2261 14.9744 33.2823 14.9181C33.3386 14.8619 33.3702 14.7856 33.3702 14.706V14.704L34.3962 8.239L34.3972 8.217C34.3973 8.15994 34.3787 8.10442 34.3442 8.059V8.06C34.3074 8.02195 34.2571 8.00002 34.2042 7.999L34.1892 8H33.0212ZM21.3512 8C21.3083 7.99469 21.2648 7.99839 21.2234 8.01088C21.1821 8.02337 21.1438 8.04436 21.111 8.07252C21.0783 8.10067 21.0517 8.13536 21.0332 8.17436C21.0146 8.21336 21.0044 8.25582 21.0032 8.299L19.9762 14.751C19.9706 14.7817 19.9719 14.8132 19.9801 14.8433C19.9882 14.8734 20.0029 14.9013 20.0232 14.925C20.0408 14.9499 20.0642 14.9701 20.0914 14.9841C20.1186 14.998 20.1487 15.0052 20.1792 15.005H21.4842C21.5429 15.0055 21.5999 14.9854 21.6453 14.9481C21.6906 14.9108 21.7214 14.8587 21.7322 14.801V14.799L22.0172 12.965C22.0211 12.9252 22.0329 12.8865 22.052 12.8513C22.071 12.8161 22.0969 12.785 22.1282 12.76C22.1968 12.7055 22.2795 12.67 22.3662 12.657H22.3692C22.4502 12.642 22.5432 12.634 22.6382 12.633C22.7222 12.633 22.8232 12.6383 22.9392 12.649C23.066 12.6638 23.1936 12.6705 23.3212 12.669C24.0538 12.6702 24.7598 12.394 25.2972 11.896L25.2952 11.898C25.5631 11.6138 25.7701 11.2778 25.9032 10.9106C26.0363 10.5434 26.0928 10.1529 26.0692 9.763V9.771C26.0907 9.51318 26.0465 9.25411 25.9407 9.01802C25.8349 8.78193 25.6709 8.57652 25.4642 8.421L25.4602 8.418C24.983 8.11625 24.424 7.96986 23.8602 7.999H23.8662L21.3512 8ZM3.36918 8C3.32735 7.99551 3.28504 7.99987 3.245 8.0128C3.20497 8.02573 3.1681 8.04693 3.13679 8.07503C3.10548 8.10314 3.08043 8.13751 3.06327 8.17592C3.04611 8.21434 3.03722 8.25593 3.03718 8.298V8.3L2.00918 14.752C2.00361 14.7827 2.00493 14.8142 2.01306 14.8443C2.02119 14.8744 2.03592 14.9023 2.05618 14.926C2.07385 14.9509 2.09725 14.9711 2.1244 14.9851C2.15156 14.999 2.18166 15.0062 2.21218 15.006H3.41618C3.45905 15.0113 3.50256 15.0076 3.54391 14.9951C3.58527 14.9826 3.62356 14.9616 3.65632 14.9335C3.68909 14.9053 3.71561 14.8706 3.73418 14.8316C3.75276 14.7926 3.76297 14.7502 3.76418 14.707L4.04918 12.968C4.05294 12.9282 4.06461 12.8896 4.0835 12.8544C4.10239 12.8192 4.12812 12.7881 4.15918 12.763C4.22779 12.7085 4.31052 12.673 4.39718 12.66H4.40018C4.48868 12.6445 4.57833 12.6365 4.66818 12.636H4.66918C4.75318 12.636 4.85318 12.6413 4.96918 12.652C5.09563 12.6667 5.22288 12.6734 5.35018 12.672C6.11318 12.672 6.80718 12.379 7.32718 11.899L7.32518 11.901C7.59314 11.6168 7.80006 11.2808 7.93317 10.9136C8.06629 10.5464 8.12279 10.1559 8.09918 9.766V9.774C8.1207 9.51618 8.07649 9.25711 7.97069 9.02102C7.86488 8.78492 7.70094 8.57952 7.49418 8.424L7.49018 8.421C7.0151 8.1203 6.45876 7.97362 5.89718 8.001H5.90318L3.36918 8ZM28.3532 13.835L28.3052 13.836C28.0497 13.8362 27.8024 13.7459 27.6072 13.581L27.6092 13.582C27.5196 13.4984 27.4479 13.3973 27.3988 13.285C27.3496 13.1727 27.3239 13.0516 27.3232 12.929L27.3242 12.884V12.857C27.3242 12.483 27.4752 12.144 27.7202 11.898C27.9612 11.651 28.2972 11.498 28.6692 11.498H28.7022H28.7002L28.7342 11.497C29.0032 11.497 29.2482 11.596 29.4362 11.759L29.4352 11.758C29.5279 11.8441 29.6019 11.9484 29.6524 12.0644C29.703 12.1803 29.7292 12.3055 29.7292 12.432L29.7282 12.48V12.478V12.502C29.7282 12.871 29.5752 13.205 29.3282 13.442C29.2035 13.5663 29.0554 13.6649 28.8926 13.732C28.7298 13.7991 28.5553 13.8334 28.3792 13.833H28.3542L28.3532 13.835ZM10.3742 13.835L10.3242 13.836C10.0622 13.836 9.82118 13.74 9.63718 13.581L9.63818 13.582C9.55024 13.4979 9.48027 13.3969 9.43249 13.285C9.38471 13.1731 9.36011 13.0527 9.36018 12.931L9.36118 12.884V12.857C9.36118 12.483 9.51218 12.144 9.75718 11.898C9.99818 11.651 10.3332 11.498 10.7052 11.498H10.7402H10.7382L10.7722 11.497C11.0412 11.497 11.2862 11.596 11.4742 11.759L11.4732 11.758C11.5656 11.8441 11.6393 11.9482 11.6897 12.064C11.7401 12.1798 11.7661 12.3047 11.7662 12.431L11.7652 12.48V12.478V12.513C11.7652 12.882 11.6122 13.214 11.3652 13.451C11.1091 13.698 10.767 13.8357 10.4112 13.835H10.3742ZM22.2812 11.275L22.5502 9.584C22.5523 9.5591 22.5593 9.53487 22.5709 9.5127C22.5824 9.49052 22.5982 9.47084 22.6173 9.45477C22.6364 9.4387 22.6585 9.42656 22.6824 9.41905C22.7062 9.41154 22.7313 9.4088 22.7562 9.411H23.0402L23.1012 9.41C23.2745 9.41 23.4448 9.42167 23.6122 9.445L23.5932 9.443C23.7482 9.471 23.8832 9.541 23.9892 9.641C24.0501 9.69772 24.0985 9.76648 24.1314 9.84292C24.1642 9.91935 24.1809 10.0018 24.1802 10.085L24.1792 10.123V10.121C24.2004 10.2881 24.1799 10.4578 24.1195 10.615C24.0591 10.7722 23.9608 10.9121 23.8332 11.022L23.8322 11.023C23.5135 11.2048 23.1482 11.2883 22.7822 11.263H22.7882L22.2832 11.279L22.2812 11.275ZM4.30218 11.275L4.57118 9.584C4.57332 9.5591 4.58035 9.53487 4.59186 9.5127C4.60338 9.49052 4.61916 9.47084 4.63829 9.45477C4.65743 9.4387 4.67954 9.42656 4.70338 9.41905C4.72721 9.41154 4.75229 9.4088 4.77718 9.411H5.07618C5.39633 9.3878 5.71676 9.45209 6.00318 9.597L5.99318 9.592C6.18251 9.714 6.24585 9.96933 6.18318 10.358C6.17869 10.5029 6.13924 10.6446 6.0682 10.771C5.99717 10.8974 5.89664 11.0048 5.77518 11.084L5.77218 11.086C5.29842 11.2614 4.79072 11.3258 4.28818 11.274L4.30218 11.275Z" fill="#262626"/>
</svg>
