<svg width="36" height="24" viewBox="0 0 36 24" fill="none" xmlns="http://www.w3.org/2000/svg">
<rect width="36" height="24" rx="3" fill="#F2F2F2"/>
<mask id="mask0_1368_995" style="mask-type:alpha" maskUnits="userSpaceOnUse" x="2" y="7" width="32" height="11">
<path d="M15.5363 13.1532H2V17.6626H15.5363V13.1532Z" fill="#84B740"/>
<path d="M15.5363 7H2V11.5134H15.5363V7Z" fill="#259BD6"/>
<path d="M29.0726 16.7463L29.0123 16.7584C28.8033 16.7986 28.727 16.8146 28.5742 16.8146C28.2205 16.8146 27.8025 16.6338 27.8025 15.7817C27.8025 15.3436 27.8748 14.7609 28.534 14.7609H28.538C28.6505 14.7689 28.7792 14.781 29.0203 14.8533L29.0726 14.8694L29.0726 16.7463ZM29.1811 12.4981L29.0726 12.5182V14.0937L28.9762 14.0655L28.948 14.0575C28.8395 14.0254 28.5904 13.953 28.3492 13.953C27.031 13.953 26.7536 14.9498 26.7536 15.7857C26.7536 16.9312 27.3967 17.5903 28.518 17.5903C28.9923 17.5903 29.3419 17.5421 29.6956 17.4256C30.0212 17.3211 30.1377 17.1723 30.1377 16.8548V12.3333C29.8242 12.3896 29.4987 12.4458 29.1811 12.4981Z" fill="#27292D"/>
<path d="M32.9913 16.7745L32.935 16.7905L32.7341 16.8428C32.5452 16.891 32.3764 16.9192 32.2477 16.9192C31.9383 16.9192 31.7534 16.7664 31.7534 16.5052C31.7534 16.3364 31.8298 16.051 32.3361 16.051H32.9912V16.7745H32.9913ZM32.5291 13.9329C32.1232 13.9329 31.7052 14.0052 31.1867 14.166L30.8491 14.2665L30.9616 15.0301L31.2912 14.9216C31.6369 14.809 32.0669 14.7367 32.3885 14.7367C32.5332 14.7367 32.9753 14.7367 32.9753 15.215V15.424H32.3604C31.239 15.424 30.7206 15.7817 30.7206 16.5493C30.7206 17.2044 31.1989 17.5983 32.0026 17.5983C32.2518 17.5983 32.5975 17.5501 32.8949 17.4777L32.9109 17.4736L32.927 17.4777L33.0275 17.4937C33.3409 17.55 33.6665 17.6063 33.984 17.6665V15.1586C33.984 14.3469 33.4937 13.9329 32.5291 13.9329Z" fill="#27292D"/>
<path d="M25.1821 16.7745L25.1259 16.7905L24.9249 16.8428C24.7361 16.891 24.5712 16.9192 24.4386 16.9192C24.1291 16.9192 23.9442 16.7664 23.9442 16.5052C23.9442 16.3364 24.0206 16.051 24.523 16.051H25.1781V16.7745H25.1821ZM24.724 13.9329C24.314 13.9329 23.9001 14.0052 23.3816 14.166L23.044 14.2665L23.1565 15.0301L23.4861 14.9216C23.8317 14.809 24.2617 14.7367 24.5833 14.7367C24.728 14.7367 25.1701 14.7367 25.1701 15.215V15.424H24.5552C23.4339 15.424 22.9114 15.7817 22.9114 16.5493C22.9114 17.2044 23.3897 17.5983 24.1975 17.5983C24.4467 17.5983 24.7924 17.5501 25.0898 17.4777L25.1058 17.4736L25.1219 17.4777L25.2183 17.4937C25.5358 17.55 25.8573 17.6063 26.1748 17.6706V15.1626C26.1789 14.3429 25.6886 13.9329 24.724 13.9329Z" fill="#27292D"/>
<path d="M20.9501 13.941C20.4396 13.941 20.0177 14.1098 19.8609 14.1821L19.8208 14.2022L19.7846 14.1741C19.5675 14.0173 19.25 13.9369 18.8079 13.9369C18.4181 13.9369 18.0524 13.9932 17.6544 14.1097C17.3128 14.2142 17.1802 14.379 17.1802 14.6885V17.5541H18.2493V14.9055L18.3015 14.8894C18.5186 14.8171 18.6472 14.805 18.7718 14.805C19.0813 14.805 19.238 14.9698 19.238 15.2914V17.5581H20.291V15.2471C20.291 15.1105 20.2629 15.0301 20.2589 15.014L20.2227 14.9457L20.295 14.9135C20.4558 14.8412 20.6326 14.805 20.8175 14.805C21.0304 14.805 21.2837 14.8894 21.2837 15.2914V17.5581H22.3326V15.1869C22.3326 14.3469 21.8825 13.941 20.9501 13.941Z" fill="#27292D"/>
<path d="M32.2035 9.94194C32.0468 9.94194 31.7855 9.92587 31.5806 9.8857L31.5203 9.87361V8.32622C31.5203 8.19758 31.4962 8.11723 31.4921 8.10514L31.46 8.04086L31.5283 8.0127C31.5444 8.00466 31.5605 8.00061 31.5806 7.99257L31.5927 7.98454C31.6168 7.9765 31.6409 7.96846 31.665 7.96043C31.6771 7.95638 31.6851 7.95239 31.6931 7.95239C31.9303 7.88811 32.1473 7.89614 32.2438 7.88811H32.2478C32.9029 7.88811 32.9793 8.47087 32.9793 8.90898C32.9752 9.76111 32.5532 9.94194 32.2035 9.94194ZM32.1995 7C32.1915 7 32.1794 7 32.1714 7C31.5565 7 30.9254 7.16882 30.7004 7.49835C30.5798 7.65913 30.5115 7.86009 30.5074 8.09718V9.69277C30.5074 9.82945 30.4793 9.88164 30.4753 9.89373L30.4391 9.96207H28.4979V8.8528H28.4939C28.4697 7.68324 27.7785 7.04018 26.7777 7.04018H25.8011C25.7609 7.32555 25.7288 7.52651 25.6886 7.81188H26.6612C27.1716 7.81188 27.4409 8.24594 27.4409 8.91311V10.0304L27.3726 9.99421C27.3605 9.99016 27.2761 9.96207 27.1435 9.96207H25.4634C25.4313 10.175 25.3911 10.4524 25.3469 10.7297H30.5114C30.6883 10.6935 30.8932 10.6614 31.0701 10.6333C31.3313 10.7619 31.8176 10.8302 32.1512 10.8302C33.2725 10.8302 34 10.0786 34 8.92114C33.996 7.77568 33.2927 7.02411 32.1995 7Z" fill="#27292D"/>
<path d="M23.1927 11.2C24.3141 11.2 24.8365 10.8302 24.8365 9.91791C24.8365 9.26276 24.3582 8.74031 23.5545 8.74031H22.5216C22.2121 8.74031 22.0272 8.56345 22.0272 8.26607C22.0272 8.0651 22.1036 7.81593 22.61 7.81593H24.8687C24.9169 7.52253 24.941 7.33764 24.9852 7.04423H22.6381C21.5449 7.04423 20.9942 7.5024 20.9942 8.26607C20.9942 9.02162 21.4725 9.41551 22.2763 9.41551H23.3092C23.6187 9.41551 23.8036 9.6607 23.8036 9.91791C23.8036 10.0867 23.7272 10.4364 23.2248 10.4364H23.052L19.7443 10.4283H19.1414C18.6309 10.4283 18.2732 10.139 18.2732 9.46777V9.00555C18.2732 8.30624 18.5506 7.87218 19.1414 7.87218H20.122C20.1662 7.57479 20.1943 7.38585 20.2346 7.10453H18.8962C17.8954 7.10453 17.2042 7.77575 17.1801 8.94525V9.46777C17.2042 10.6373 17.8954 11.196 18.8962 11.196H19.8728L21.6653 11.2L23.1927 11.2Z" fill="#27292D"/>
</mask>
<g mask="url(#mask0_1368_995)">
<rect width="36" height="24" rx="2" fill="#262626"/>
</g>
</svg>
