<svg width="18" height="20" viewBox="0 0 18 20" fill="none" xmlns="http://www.w3.org/2000/svg">
<g clip-path="url(#clip0_223_4147)">
<path d="M12.2092 3.0381C12.5693 2.62312 12.8438 2.14111 13.0171 1.61975C13.1903 1.09838 13.2588 0.547931 13.2188 0C12.1134 0.0892257 11.0873 0.609101 10.3616 1.44762C10.0141 1.8495 9.75074 2.31703 9.58715 2.82252C9.42356 3.32801 9.36306 3.86118 9.40923 4.39048C9.94842 4.39497 10.4814 4.27533 10.9669 4.04082C11.4525 3.80631 11.8775 3.46321 12.2092 3.0381ZM14.6092 10.1238C14.6156 9.39404 14.8078 8.67792 15.1678 8.04305C15.5277 7.40818 16.0435 6.87548 16.6664 6.49524C16.2733 5.9288 15.7536 5.46175 15.1485 5.13112C14.5435 4.80049 13.8697 4.61538 13.1807 4.59048C11.6949 4.4381 10.3235 5.45714 9.53304 5.45714C8.74257 5.45714 7.62828 4.60952 6.39019 4.62857C5.58079 4.65523 4.79211 4.89122 4.10109 5.31351C3.41007 5.7358 2.84029 6.32998 2.44733 7.0381C0.77114 9.95238 2.01876 14.2857 3.69495 16.6381C4.45685 17.7905 5.40923 19.0952 6.66638 19.0476C7.92352 19 8.33304 18.2667 9.79019 18.2667C11.2473 18.2667 11.6949 19.0476 12.933 19.019C14.1711 18.9905 15.0473 17.8381 15.8473 16.6857C16.414 15.8491 16.8567 14.9348 17.1616 13.9714C16.4068 13.6495 15.7629 13.1136 15.3093 12.4298C14.8557 11.746 14.6123 10.9444 14.6092 10.1238Z" fill="#262626"/>
</g>
<defs>
<clipPath id="clip0_223_4147">
<rect width="17.1429" height="20" fill="white" transform="translate(0.837891)"/>
</clipPath>
</defs>
</svg>
