<svg width="21" height="21" viewBox="0 0 21 21" fill="none" xmlns="http://www.w3.org/2000/svg">
<path d="M18.4386 11.7494C18.2186 11.7494 17.9886 11.6794 17.7686 11.6294C17.3231 11.5312 16.8853 11.4009 16.4586 11.2394C15.9947 11.0706 15.4848 11.0794 15.0269 11.264C14.5691 11.4486 14.1957 11.796 13.9786 12.2394L13.7586 12.6894C12.7846 12.1476 11.8896 11.4746 11.0986 10.6894C10.3134 9.8984 9.64046 9.00338 9.09864 8.02938L9.51864 7.74938C9.962 7.5323 10.3094 7.15891 10.494 6.70107C10.6786 6.24323 10.6874 5.73329 10.5186 5.26938C10.3599 4.8418 10.2296 4.40418 10.1286 3.95938C10.0786 3.73938 10.0386 3.50938 10.0086 3.27938C9.8872 2.575 9.51826 1.93712 8.96826 1.48062C8.41825 1.02412 7.72333 0.778989 7.00864 0.78938H4.00864C3.57767 0.785333 3.15089 0.874193 2.75735 1.04991C2.36381 1.22563 2.01275 1.48408 1.72807 1.80766C1.44339 2.13125 1.23177 2.51237 1.10762 2.92509C0.983477 3.33781 0.949715 3.77244 1.00864 4.19938C1.54137 8.38876 3.45466 12.2813 6.44629 15.262C9.43791 18.2428 13.3373 20.1419 17.5286 20.6594H17.9086C18.6461 20.6605 19.358 20.3899 19.9086 19.8994C20.225 19.6164 20.4777 19.2696 20.6501 18.8817C20.8225 18.4938 20.9106 18.0738 20.9086 17.6494V14.6494C20.8964 13.9548 20.6434 13.2859 20.193 12.757C19.7425 12.2282 19.1225 11.872 18.4386 11.7494ZM18.9386 17.7494C18.9385 17.8914 18.908 18.0317 18.8494 18.161C18.7908 18.2903 18.7053 18.4057 18.5986 18.4994C18.4872 18.5964 18.3566 18.6688 18.2153 18.7119C18.074 18.755 17.9252 18.7677 17.7786 18.7494C14.0335 18.2692 10.5549 16.5559 7.89135 13.8797C5.22783 11.2035 3.53105 7.71672 3.06864 3.96938C3.05272 3.8229 3.06667 3.67471 3.10964 3.53377C3.15261 3.39283 3.22371 3.26207 3.31864 3.14938C3.41235 3.04271 3.5277 2.95722 3.65701 2.8986C3.78633 2.83997 3.92665 2.80956 4.06864 2.80938H7.06864C7.30118 2.80421 7.52826 2.88026 7.71078 3.02445C7.8933 3.16864 8.01985 3.37195 8.06864 3.59938C8.10864 3.87271 8.15864 4.14271 8.21864 4.40938C8.33416 4.93652 8.4879 5.45456 8.67864 5.95938L7.27864 6.60938C7.15893 6.6643 7.05126 6.74233 6.96179 6.83898C6.87233 6.93562 6.80284 7.04899 6.75731 7.17257C6.71178 7.29615 6.69111 7.42751 6.69648 7.5591C6.70186 7.69069 6.73318 7.81992 6.78864 7.93938C8.22784 11.0221 10.7059 13.5002 13.7886 14.9394C14.0321 15.0394 14.3052 15.0394 14.5486 14.9394C14.6733 14.8948 14.788 14.8258 14.8858 14.7366C14.9837 14.6473 15.0628 14.5395 15.1186 14.4194L15.7386 13.0194C16.2556 13.2043 16.7832 13.3579 17.3186 13.4794C17.5853 13.5394 17.8553 13.5894 18.1286 13.6294C18.3561 13.6782 18.5594 13.8047 18.7036 13.9872C18.8478 14.1698 18.9238 14.3968 18.9186 14.6294L18.9386 17.7494Z" fill="#262626"/>
</svg>
