<svg width="20" height="21" viewBox="0 0 20 21" fill="none" xmlns="http://www.w3.org/2000/svg">
<path d="M10.71 14.04C10.753 14.0875 10.7931 14.1376 10.83 14.19C10.8678 14.2457 10.8981 14.3063 10.92 14.37C10.9488 14.4267 10.969 14.4874 10.98 14.55C10.9849 14.6166 10.9849 14.6834 10.98 14.75C10.9834 14.8812 10.956 15.0113 10.9 15.13C10.8551 15.2541 10.7834 15.3668 10.6901 15.4601C10.5968 15.5534 10.4841 15.6251 10.36 15.67C10.2403 15.7229 10.1109 15.7502 9.97999 15.7502C9.84912 15.7502 9.7197 15.7229 9.6 15.67C9.4759 15.6251 9.3632 15.5534 9.26988 15.4601C9.17656 15.3668 9.10491 15.2541 9.06 15.13C9.01559 15.0084 8.99521 14.8794 9 14.75C8.99923 14.6184 9.02446 14.4879 9.07422 14.3661C9.12399 14.2443 9.19731 14.1334 9.29 14.04C9.38296 13.9463 9.49356 13.8719 9.61542 13.8211C9.73728 13.7703 9.86798 13.7442 10 13.7442C10.132 13.7442 10.2627 13.7703 10.3846 13.8211C10.5064 13.8719 10.617 13.9463 10.71 14.04ZM10 0.75C11.9778 0.75 13.9112 1.33649 15.5557 2.4353C17.2002 3.53412 18.4819 5.0959 19.2388 6.92317C19.9957 8.75043 20.1937 10.7611 19.8078 12.7009C19.422 14.6407 18.4696 16.4225 17.0711 17.8211C15.6725 19.2196 13.8907 20.172 11.9509 20.5579C10.0111 20.9437 8.00042 20.7457 6.17316 19.9888C4.3459 19.2319 2.78411 17.9502 1.6853 16.3057C0.586487 14.6612 -3.8147e-06 12.7278 -3.8147e-06 10.75C-3.8147e-06 9.43678 0.258654 8.13642 0.7612 6.92317C1.26375 5.70991 2.00034 4.60752 2.92893 3.67893C3.85751 2.75035 4.9599 2.01375 6.17316 1.5112C7.38642 1.00866 8.68678 0.75 10 0.75ZM10 18.75C11.5822 18.75 13.129 18.2808 14.4446 17.4018C15.7602 16.5227 16.7855 15.2733 17.391 13.8115C17.9965 12.3497 18.155 10.7411 17.8463 9.18928C17.5376 7.63743 16.7757 6.21197 15.6568 5.09315C14.538 3.97433 13.1126 3.2124 11.5607 2.90372C10.0089 2.59504 8.40034 2.75346 6.93853 3.35896C5.47672 3.96447 4.22729 4.98984 3.34824 6.30544C2.46919 7.62103 2 9.16775 2 10.75C2 12.8717 2.84285 14.9066 4.34314 16.4069C5.84343 17.9071 7.87826 18.75 10 18.75ZM10 5.75C10.5269 5.74966 11.0447 5.88812 11.5011 6.15144C11.9575 6.41476 12.3365 6.79366 12.6 7.25C12.6723 7.36382 12.7209 7.4911 12.7428 7.62418C12.7647 7.75726 12.7595 7.89339 12.7274 8.02439C12.6953 8.15538 12.637 8.27854 12.5561 8.38643C12.4752 8.49433 12.3733 8.58475 12.2565 8.65224C12.1398 8.71974 12.0105 8.76292 11.8767 8.77918C11.7428 8.79544 11.607 8.78445 11.4775 8.74688C11.3479 8.7093 11.2273 8.64591 11.1229 8.56052C11.0186 8.47513 10.9325 8.3695 10.87 8.25C10.7819 8.0974 10.655 7.97078 10.5022 7.88298C10.3495 7.79518 10.1762 7.7493 10 7.75C9.73478 7.75 9.48042 7.85536 9.29289 8.04289C9.10535 8.23043 9 8.48478 9 8.75C9 9.01522 9.10535 9.26957 9.29289 9.45711C9.48042 9.64464 9.73478 9.75 10 9.75C10.2652 9.75 10.5196 9.85536 10.7071 10.0429C10.8946 10.2304 11 10.4848 11 10.75V11.75C11 12.0152 10.8946 12.2696 10.7071 12.4571C10.5196 12.6446 10.2652 12.75 10 12.75C9.73478 12.75 9.48042 12.6446 9.29289 12.4571C9.10535 12.2696 9 12.0152 9 11.75V11.57C8.33862 11.33 7.78264 10.8652 7.42922 10.2569C7.07581 9.64851 6.94746 8.93529 7.0666 8.24189C7.18574 7.54849 7.5448 6.91902 8.081 6.46352C8.61721 6.00801 9.29645 5.75546 10 5.75Z" fill="#E23636"/>
</svg>
