<svg width="20" height="21" viewBox="0 0 20 21" fill="none" xmlns="http://www.w3.org/2000/svg">
<path fill-rule="evenodd" clip-rule="evenodd" d="M17.0869 3.65667C15.2062 1.78333 12.7059 0.750833 10.0423 0.75C4.55348 0.75 0.0862466 5.195 0.0837346 10.66C0.0828972 12.4067 0.541762 14.1117 1.41344 15.615L0 20.75L5.27863 19.3717C6.73309 20.1617 8.37094 20.5775 10.0373 20.5783H10.0414C15.5294 20.5783 19.9975 16.1325 20 10.6675C20.0017 8.02 18.9667 5.52917 17.0869 3.65667ZM10.0423 18.9042H10.0389C8.55348 18.9042 7.09734 18.5067 5.82625 17.7558L5.52397 17.5775L2.39146 18.395L3.22797 15.355L3.03119 15.0433C2.20222 13.7317 1.76512 12.2158 1.76596 10.66C1.76764 6.11833 5.48126 2.42333 10.0465 2.42333C12.2571 2.42333 14.3354 3.28167 15.8978 4.83833C17.4603 6.39583 18.3203 8.465 18.3194 10.6658C18.3169 15.2092 14.6041 18.9042 10.0423 18.9042ZM14.5824 12.735C14.3337 12.6108 13.1103 12.0117 12.8817 11.9292C12.654 11.8467 12.4882 11.805 12.3215 12.0525C12.1549 12.3 11.6793 12.8583 11.5336 13.0242C11.3887 13.1892 11.243 13.21 10.9943 13.0858C10.7457 12.9617 9.94348 12.7008 8.99309 11.8567C8.25371 11.2 7.75382 10.3892 7.60896 10.1408C7.4641 9.8925 7.59389 9.75917 7.71781 9.63583C7.83002 9.525 7.96651 9.34667 8.09127 9.20167C8.21687 9.05833 8.2579 8.955 8.34164 8.78917C8.42453 8.62417 8.3835 8.47917 8.3207 8.355C8.2579 8.23167 7.76052 7.0125 7.55369 6.51667C7.35189 6.03333 7.14674 6.09917 6.99351 6.09167C6.84865 6.08417 6.68285 6.08333 6.51622 6.08333C6.35043 6.08333 6.0808 6.145 5.85304 6.39333C5.62529 6.64167 4.98221 7.24083 4.98221 8.45917C4.98221 9.67833 5.87398 10.8558 5.99791 11.0208C6.12183 11.1858 7.75214 13.6875 10.2483 14.76C10.8419 15.015 11.3058 15.1675 11.6667 15.2817C12.2629 15.47 12.8055 15.4433 13.2342 15.38C13.7124 15.3092 14.7063 14.7808 14.914 14.2025C15.1216 13.6242 15.1216 13.1275 15.0588 13.025C14.9969 12.9208 14.8311 12.8592 14.5824 12.735Z" fill="#262626"/>
</svg>
