<svg width="24" height="24" viewBox="0 0 24 24" fill="none" xmlns="http://www.w3.org/2000/svg">
<g clip-path="url(#clip0_2425_3796)">
<path d="M12 0C9.62663 0 7.30655 0.703788 5.33316 2.02236C3.35977 3.34094 1.8217 5.21508 0.913451 7.4078C0.00519941 9.60051 -0.232441 12.0133 0.230582 14.3411C0.693605 16.6689 1.83649 18.807 3.51472 20.4853C5.19295 22.1635 7.33115 23.3064 9.65892 23.7694C11.9867 24.2324 14.3995 23.9948 16.5922 23.0865C18.7849 22.1783 20.6591 20.6402 21.9776 18.6668C23.2962 16.6934 24 14.3734 24 12C24 10.4241 23.6896 8.8637 23.0866 7.4078C22.4835 5.95189 21.5996 4.62902 20.4853 3.51472C19.371 2.40041 18.0481 1.5165 16.5922 0.913445C15.1363 0.310389 13.5759 0 12 0ZM13.2 21.516V20.4C13.2 20.0817 13.0736 19.7765 12.8485 19.5515C12.6235 19.3264 12.3183 19.2 12 19.2C11.6817 19.2 11.3765 19.3264 11.1515 19.5515C10.9264 19.7765 10.8 20.0817 10.8 20.4V21.516C8.68798 21.2482 6.72489 20.2859 5.21951 18.7805C3.71412 17.2751 2.75184 15.312 2.484 13.2H3.6C3.91826 13.2 4.22349 13.0736 4.44853 12.8485C4.67358 12.6235 4.8 12.3183 4.8 12C4.8 11.6817 4.67358 11.3765 4.44853 11.1515C4.22349 10.9264 3.91826 10.8 3.6 10.8H2.484C2.75184 8.68797 3.71412 6.72489 5.21951 5.2195C6.72489 3.71411 8.68798 2.75183 10.8 2.484V3.6C10.8 3.91826 10.9264 4.22348 11.1515 4.44853C11.3765 4.67357 11.6817 4.8 12 4.8C12.3183 4.8 12.6235 4.67357 12.8485 4.44853C13.0736 4.22348 13.2 3.91826 13.2 3.6V2.484C15.312 2.75183 17.2751 3.71411 18.7805 5.2195C20.2859 6.72489 21.2482 8.68797 21.516 10.8H20.4C20.0817 10.8 19.7765 10.9264 19.5515 11.1515C19.3264 11.3765 19.2 11.6817 19.2 12C19.2 12.3183 19.3264 12.6235 19.5515 12.8485C19.7765 13.0736 20.0817 13.2 20.4 13.2H21.516C21.2482 15.312 20.2859 17.2751 18.7805 18.7805C17.2751 20.2859 15.312 21.2482 13.2 21.516ZM15.768 6.66L9.768 9.204C9.4883 9.32519 9.2652 9.54829 9.144 9.828L6.6 15.828C6.50549 16.048 6.47899 16.2913 6.5239 16.5266C6.56881 16.7618 6.68308 16.9782 6.852 17.148C7.07356 17.3741 7.37548 17.5035 7.692 17.508C7.85805 17.5082 8.02203 17.4713 8.172 17.4L14.172 14.856C14.4517 14.7348 14.6748 14.5117 14.796 14.232L17.34 8.232C17.4327 8.01211 17.4578 7.76956 17.412 7.53535C17.3662 7.30114 17.2516 7.08591 17.0828 6.91716C16.9141 6.74842 16.6989 6.63381 16.4646 6.58801C16.2304 6.5422 15.9879 6.56726 15.768 6.66ZM12.78 12.78L10.044 13.98L11.244 11.244L13.98 10.044L12.78 12.78Z" fill="#E2C636"/>
</g>
<defs>
<clipPath id="clip0_2425_3796">
<rect width="24" height="24" fill="white"/>
</clipPath>
</defs>
</svg>
