<svg width="24" height="24" viewBox="0 0 24 24" fill="none" xmlns="http://www.w3.org/2000/svg">
<path d="M12 9.02412C11.4114 9.02412 10.836 9.19866 10.3466 9.52567C9.85722 9.85268 9.47578 10.3175 9.25053 10.8613C9.02529 11.405 8.96635 12.0034 9.08118 12.5807C9.19601 13.158 9.47945 13.6883 9.89565 14.1045C10.3119 14.5207 10.8421 14.8041 11.4194 14.9189C11.9967 15.0338 12.5951 14.9748 13.1389 14.7496C13.6827 14.5243 14.1474 14.1429 14.4745 13.6535C14.8015 13.1641 14.976 12.5887 14.976 12.0001C14.976 11.6093 14.899 11.2223 14.7495 10.8613C14.5999 10.5002 14.3807 10.1721 14.1044 9.89577C13.828 9.61943 13.4999 9.40021 13.1389 9.25066C12.7778 9.1011 12.3908 9.02412 12 9.02412ZM23.916 6.08412C23.9097 5.15743 23.739 4.23921 23.412 3.37212C23.1711 2.73763 22.7985 2.16143 22.3186 1.68154C21.8387 1.20165 21.2625 0.828983 20.628 0.588122C19.7609 0.261079 18.8427 0.0904351 17.916 0.084122C16.368 0.000121988 15.912 0.00012207 12 0.00012207C8.088 0.00012207 7.632 0.000121988 6.084 0.084122C5.15731 0.0904351 4.23909 0.261079 3.372 0.588122C2.73751 0.828983 2.16131 1.20165 1.68142 1.68154C1.20153 2.16143 0.828861 2.73763 0.588 3.37212C0.260957 4.23921 0.0903131 5.15743 0.0839999 6.08412C-8.19564e-08 7.63212 0 8.08812 0 12.0001C0 15.9121 -8.19564e-08 16.3681 0.0839999 17.9161C0.0969167 18.8461 0.267329 19.7671 0.588 20.6401C0.827794 21.2717 1.20015 21.8446 1.68 22.3201C2.15783 22.8029 2.73527 23.1756 3.372 23.4121C4.23909 23.7392 5.15731 23.9098 6.084 23.9161C7.632 24.0001 8.088 24.0001 12 24.0001C15.912 24.0001 16.368 24.0001 17.916 23.9161C18.8427 23.9098 19.7609 23.7392 20.628 23.4121C21.2647 23.1756 21.8422 22.8029 22.32 22.3201C22.7998 21.8446 23.1722 21.2717 23.412 20.6401C23.7387 19.7688 23.9093 18.8467 23.916 17.9161C24 16.3681 24 15.9121 24 12.0001C24 8.08812 24 7.63212 23.916 6.08412ZM20.868 15.6841C20.8295 16.4246 20.6715 17.1541 20.4 17.8441C20.167 18.4197 19.8207 18.9426 19.3816 19.3817C18.9425 19.8208 18.4196 20.1672 17.844 20.4001C17.1474 20.6564 16.4139 20.7983 15.672 20.8201C14.724 20.8201 14.472 20.8201 12 20.8201C9.528 20.8201 9.276 20.8201 8.328 20.8201C7.58608 20.7983 6.85259 20.6564 6.156 20.4001C5.56092 20.179 5.02353 19.8262 4.584 19.3681C4.1492 18.9376 3.81341 18.4176 3.6 17.8441C3.34267 17.1483 3.20473 16.4139 3.192 15.6721C3.192 14.7241 3.192 14.4721 3.192 12.0001C3.192 9.52812 3.192 9.27612 3.192 8.32812C3.20473 7.58631 3.34267 6.85198 3.6 6.15612C3.82114 5.56105 4.17393 5.02365 4.632 4.58412C5.0644 4.15167 5.58392 3.81623 6.156 3.60012C6.85259 3.34381 7.58608 3.20197 8.328 3.18012C9.276 3.18012 9.528 3.18012 12 3.18012C14.472 3.18012 14.724 3.18012 15.672 3.18012C16.4139 3.20197 17.1474 3.34381 17.844 3.60012C18.4391 3.82126 18.9765 4.17405 19.416 4.63212C19.8508 5.06262 20.1866 5.58268 20.4 6.15612C20.6563 6.85271 20.7981 7.5862 20.82 8.32812C20.82 9.27612 20.82 9.52812 20.82 12.0001C20.82 14.4721 20.904 14.7241 20.868 15.6721V15.6841ZM18.948 6.75612C18.8051 6.3685 18.5799 6.01649 18.2877 5.72438C17.9956 5.43226 17.6436 5.207 17.256 5.06412C16.7238 4.87963 16.1632 4.79027 15.6 4.80012C14.664 4.80012 14.4 4.80012 12 4.80012C9.6 4.80012 9.336 4.80012 8.4 4.80012C7.83392 4.80566 7.27328 4.91128 6.744 5.11212C6.36231 5.24851 6.01403 5.46458 5.7223 5.74596C5.43057 6.02735 5.20207 6.36761 5.052 6.74412C4.87773 7.27856 4.79259 7.83804 4.8 8.40012C4.8 9.33612 4.8 9.60012 4.8 12.0001C4.8 14.4001 4.8 14.6641 4.8 15.6001C4.8119 16.1656 4.91732 16.7251 5.112 17.2561C5.25488 17.6437 5.48014 17.9958 5.77226 18.2879C6.06437 18.58 6.41638 18.8052 6.804 18.9481C7.316 19.1364 7.85478 19.2417 8.4 19.2601C9.336 19.2601 9.6 19.2601 12 19.2601C14.4 19.2601 14.664 19.2601 15.6 19.2601C16.1661 19.2546 16.7267 19.149 17.256 18.9481C17.6436 18.8052 17.9956 18.58 18.2877 18.2879C18.5799 17.9958 18.8051 17.6437 18.948 17.2561C19.1488 16.7268 19.2545 16.1662 19.26 15.6001C19.26 14.6641 19.26 14.4001 19.26 12.0001C19.26 9.60012 19.26 9.33612 19.26 8.40012C19.2603 7.83348 19.1545 7.27179 18.948 6.74412V6.75612ZM12 16.5841C11.3986 16.5841 10.8031 16.4655 10.2476 16.235C9.69211 16.0044 9.18756 15.6666 8.76286 15.2408C8.33815 14.815 8.00163 14.3095 7.77257 13.7534C7.54352 13.1973 7.42642 12.6015 7.428 12.0001C7.428 11.093 7.69716 10.2062 8.20138 9.45215C8.70561 8.69805 9.42225 8.11052 10.2606 7.76392C11.0989 7.41733 12.0212 7.32725 12.9107 7.5051C13.8003 7.68295 14.617 8.12073 15.2576 8.76301C15.8982 9.4053 16.3339 10.2232 16.5094 11.1132C16.6849 12.0032 16.5924 12.9253 16.2436 13.7627C15.8948 14.6001 15.3054 15.3152 14.55 15.8174C13.7946 16.3197 12.9071 16.5865 12 16.5841ZM16.8 8.31612C16.5347 8.28804 16.2892 8.16279 16.1108 7.96449C15.9324 7.76619 15.8337 7.50887 15.8337 7.24212C15.8337 6.97537 15.9324 6.71806 16.1108 6.51976C16.2892 6.32146 16.5347 6.1962 16.8 6.16812C17.0653 6.1962 17.3108 6.32146 17.4892 6.51976C17.6676 6.71806 17.7663 6.97537 17.7663 7.24212C17.7663 7.50887 17.6676 7.76619 17.4892 7.96449C17.3108 8.16279 17.0653 8.28804 16.8 8.31612Z" fill="#F2F2F2"/>
</svg>
