<svg width="24" height="24" viewBox="0 0 24 24" fill="none" xmlns="http://www.w3.org/2000/svg">
<path d="M22.1637 0.000289865H1.83597C1.60747 -0.00288364 1.38058 0.0389863 1.16826 0.123509C0.955943 0.208031 0.762353 0.33355 0.598549 0.492897C0.434744 0.652245 0.303933 0.842299 0.213587 1.05221C0.123241 1.26211 0.075129 1.48776 0.0719989 1.71627V22.284C0.075129 22.5125 0.123241 22.7381 0.213587 22.948C0.303933 23.1579 0.434744 23.348 0.598549 23.5073C0.762353 23.6667 0.955943 23.7922 1.16826 23.8767C1.38058 23.9613 1.60747 24.0031 1.83597 24H22.1637C22.3922 24.0031 22.6191 23.9613 22.8314 23.8767C23.0437 23.7922 23.2373 23.6667 23.4011 23.5073C23.5649 23.348 23.6957 23.1579 23.7861 22.948C23.8764 22.7381 23.9245 22.5125 23.9277 22.284V1.71627C23.9245 1.48776 23.8764 1.26211 23.7861 1.05221C23.6957 0.842299 23.5649 0.652245 23.4011 0.492897C23.2373 0.33355 23.0437 0.208031 22.8314 0.123509C22.6191 0.0389863 22.3922 -0.00288364 22.1637 0.000289865ZM7.3079 20.088H3.70795V9.28816H7.3079V20.088ZM5.50792 7.77618C5.01145 7.77618 4.5353 7.57896 4.18424 7.22789C3.83317 6.87683 3.63595 6.40068 3.63595 5.90421C3.63595 5.40773 3.83317 4.93158 4.18424 4.58052C4.5353 4.22946 5.01145 4.03223 5.50792 4.03223C5.77155 4.00234 6.03853 4.02846 6.29136 4.10889C6.5442 4.18933 6.77719 4.32226 6.97509 4.49898C7.17299 4.6757 7.33133 4.89224 7.43974 5.1344C7.54815 5.37656 7.6042 5.63889 7.6042 5.90421C7.6042 6.16953 7.54815 6.43186 7.43974 6.67402C7.33133 6.91618 7.17299 7.13271 6.97509 7.30943C6.77719 7.48616 6.5442 7.61909 6.29136 7.69952C6.03853 7.77996 5.77155 7.80608 5.50792 7.77618ZM20.2917 20.088H16.6918V14.2921C16.6918 12.8401 16.1758 11.8921 14.8678 11.8921C14.463 11.8951 14.0688 12.0221 13.7384 12.2559C13.408 12.4898 13.1572 12.8193 13.0198 13.2001C12.9259 13.4821 12.8852 13.7792 12.8998 14.0761V20.076H9.29987C9.29987 20.076 9.29987 10.2601 9.29987 9.27616H12.8998V10.8001C13.2269 10.2327 13.7025 9.76518 14.2755 9.448C14.8486 9.13082 15.4973 8.97599 16.1518 9.00016C18.5517 9.00016 20.2917 10.5481 20.2917 13.8721V20.088Z" fill="#F2F2F2"/>
</svg>
