<svg width="24" height="24" viewBox="0 0 24 24" fill="none" xmlns="http://www.w3.org/2000/svg">
<rect width="24" height="24" rx="4" fill="#F2F2F2"/>
<g clip-path="url(#clip0_1306_1047)">
<path d="M21.0881 15.2854C20.5513 15.1548 20.0452 14.9126 19.5998 14.5733C19.1544 14.2339 18.7789 13.8043 18.4956 13.3101C18.3663 13.1104 18.1664 12.9726 17.94 12.927C17.7135 12.8814 17.479 12.9317 17.288 13.0669C17.097 13.202 16.9652 13.4109 16.9216 13.6477C16.878 13.8844 16.9261 14.1296 17.0553 14.3293C17.594 15.1885 18.3073 15.9129 19.1443 16.4511C19.0271 16.4742 18.8998 16.4964 18.7605 16.5195C18.5131 16.5745 18.289 16.7105 18.1207 16.9079C17.9524 17.1052 17.8487 17.3535 17.8247 17.6167C17.245 17.5134 16.6529 17.5122 16.0728 17.6132C15.4474 17.7575 14.8637 18.0555 14.3702 18.4823C13.8625 18.953 13.2184 19.2318 12.5411 19.2742H12.3143C11.6362 19.2317 10.9914 18.9522 10.4835 18.4806C9.99699 18.0593 9.42245 17.7637 8.80636 17.6177C8.21869 17.5195 7.61975 17.5207 7.03244 17.6212C7.00952 17.3593 6.90773 17.1117 6.74172 16.914C6.5757 16.7164 6.35402 16.5788 6.10853 16.5212C5.97181 16.499 5.84613 16.4768 5.73064 16.4537C6.32171 16.0963 6.84965 15.6353 7.29144 15.091C7.49533 14.8438 7.67991 14.5799 7.84342 14.3018C7.96544 14.0974 8.00487 13.8507 7.95303 13.616C7.9012 13.3813 7.76234 13.1776 7.56698 13.0499C7.37161 12.9221 7.13572 12.8806 6.91113 12.9346C6.68655 12.9886 6.49163 13.1335 6.36923 13.3376C6.25339 13.5346 6.12307 13.7219 5.97945 13.8978C5.42372 14.6253 4.63551 15.1187 3.75969 15.2872C3.50549 15.3293 3.27448 15.4663 3.10945 15.6728C2.94442 15.8792 2.85653 16.1412 2.86206 16.4102C2.86177 16.5775 2.89595 16.7428 2.96227 16.895C3.23656 17.5457 3.96685 17.9568 5.38329 18.2355L5.41047 18.3536C5.4351 18.461 5.46057 18.5702 5.49029 18.6697C5.55695 18.9222 5.70268 19.1441 5.90419 19.2999C6.1057 19.4557 6.35135 19.5364 6.60187 19.529C6.77888 19.5243 6.95475 19.4978 7.12582 19.45C7.58069 19.3537 8.04801 19.3395 8.50744 19.4083C8.86774 19.5198 9.20082 19.7112 9.48401 19.9694C10.2834 20.6594 11.2783 21.0541 12.3143 21.0925H12.5411C13.5835 21.0524 14.5842 20.6536 15.3875 19.9579C15.6721 19.699 16.0083 19.5097 16.3717 19.4039C16.5509 19.371 16.7325 19.3549 16.9143 19.356C17.1938 19.3555 17.4724 19.3879 17.7449 19.4528C17.9214 19.4872 18.1003 19.5065 18.2798 19.5105C18.5241 19.5174 18.7634 19.4385 18.9597 19.2864C19.156 19.1343 19.2978 18.9178 19.3625 18.6715C19.3957 18.5605 19.4211 18.454 19.4449 18.3493L19.4721 18.2365C20.8843 17.9587 21.6171 17.5503 21.8787 16.927C21.9448 16.7917 21.9825 16.643 21.9891 16.4911C22.0106 16.2087 21.93 15.9281 21.7632 15.7049C21.5963 15.4816 21.3554 15.3319 21.0881 15.2854ZM5.30602 11.2256C5.48394 11.2608 5.66793 11.2374 5.83254 11.1585C5.99715 11.0796 6.13424 10.9492 6.22484 10.7852C6.56926 10.9685 6.94699 11.0732 7.33302 11.0924C7.7426 11.0981 8.13789 10.9351 8.43357 10.6388C8.52711 10.5476 8.60026 10.4359 8.64781 10.3118C8.69537 10.1877 8.71616 10.0541 8.7087 9.9206L8.67728 9.37373C8.53484 8.29475 8.58089 7.1977 8.81318 6.13592C9.10664 5.43851 9.59035 4.84711 10.2038 4.43574C10.8172 4.02437 11.533 3.81131 12.2617 3.82324L12.5989 3.81969C13.3269 3.80953 14.0416 4.02367 14.654 4.43542C15.2664 4.84716 15.7492 5.43828 16.0423 6.13503C16.2746 7.1977 16.3207 8.2956 16.1782 9.37544L16.1697 9.52371L16.1459 9.92676C16.1411 10.058 16.1628 10.1889 16.2096 10.3108C16.2565 10.4328 16.3273 10.543 16.4177 10.6343C16.7103 10.9293 17.1015 11.0934 17.508 11.0915C17.8854 11.0571 18.2523 10.9442 18.5873 10.7595C18.6552 10.9213 18.7667 11.0588 18.9082 11.1555C19.0496 11.2521 19.2149 11.3036 19.3839 11.3037H19.3991C19.6298 11.2995 19.8493 11.1996 20.0095 11.0261C20.1697 10.8527 20.2575 10.6197 20.2534 10.3786C20.2309 10.0751 20.12 9.78594 19.9357 9.55012C19.7514 9.31431 19.5026 9.14307 19.2225 9.05939C19.0185 8.97207 18.8 8.92797 18.5796 8.92964C18.3592 8.93132 18.1413 8.97874 17.9385 9.06916C18.0909 7.83542 17.9857 6.5818 17.6303 5.39462C17.2024 4.37365 16.4961 3.50723 15.5996 2.90372C14.7032 2.30021 13.6565 1.98638 12.5904 2.0015L12.249 2.00505C11.1856 1.99147 10.1419 2.30582 9.2484 2.90882C8.35489 3.51183 7.65117 4.37675 7.22518 5.39551C6.86706 6.59864 6.76277 7.86865 6.91947 9.11799C6.88975 9.10378 6.85748 9.08781 6.82266 9.07094C6.61018 8.98104 6.38219 8.93814 6.15306 8.94494C5.92393 8.95173 5.69863 9.00808 5.49136 9.11041C5.28409 9.21275 5.09934 9.35887 4.94877 9.53956C4.7982 9.72024 4.68506 9.93158 4.61648 10.1602C4.57303 10.3971 4.62123 10.6423 4.7505 10.842C4.87977 11.0417 5.07956 11.1797 5.30602 11.2256Z" fill="#262626"/>
</g>
<defs>
<clipPath id="clip0_1306_1047">
<rect width="20" height="20" fill="white" transform="translate(2 2)"/>
</clipPath>
</defs>
</svg>
