<svg width="21" height="20" viewBox="0 0 21 20" fill="none" xmlns="http://www.w3.org/2000/svg">
<g clip-path="url(#clip0_428_3489)">
<path d="M19.5909 14.5455H1.40909C1.16799 14.5455 0.936754 14.6412 0.766267 14.8117C0.595779 14.9822 0.5 15.2134 0.5 15.4545C0.5 15.6957 0.595779 15.9269 0.766267 16.0974C0.936754 16.2679 1.16799 16.3636 1.40909 16.3636H19.5909C19.832 16.3636 20.0632 16.2679 20.2337 16.0974C20.4042 15.9269 20.5 15.6957 20.5 15.4545C20.5 15.2134 20.4042 14.9822 20.2337 14.8117C20.0632 14.6412 19.832 14.5455 19.5909 14.5455ZM19.5909 18.1818H1.40909C1.16799 18.1818 0.936754 18.2776 0.766267 18.4481C0.595779 18.6186 0.5 18.8498 0.5 19.0909C0.5 19.332 0.595779 19.5632 0.766267 19.7337C0.936754 19.9042 1.16799 20 1.40909 20H19.5909C19.832 20 20.0632 19.9042 20.2337 19.7337C20.4042 19.5632 20.5 19.332 20.5 19.0909C20.5 18.8498 20.4042 18.6186 20.2337 18.4481C20.0632 18.2776 19.832 18.1818 19.5909 18.1818ZM5.04545 5.45455C4.86565 5.45455 4.68989 5.50786 4.54039 5.60776C4.39089 5.70765 4.27437 5.84963 4.20556 6.01574C4.13676 6.18186 4.11875 6.36465 4.15383 6.54099C4.18891 6.71734 4.27549 6.87932 4.40263 7.00646C4.52977 7.1336 4.69175 7.22018 4.8681 7.25526C5.04445 7.29034 5.22723 7.27233 5.39335 7.20353C5.55946 7.13472 5.70144 7.0182 5.80134 6.8687C5.90123 6.7192 5.95455 6.54344 5.95455 6.36364C5.95455 6.12253 5.85877 5.8913 5.68828 5.72081C5.51779 5.55032 5.28656 5.45455 5.04545 5.45455ZM17.7727 0H3.22727C2.50396 0 1.81026 0.287337 1.2988 0.7988C0.787337 1.31026 0.5 2.00396 0.5 2.72727V10C0.5 10.7233 0.787337 11.417 1.2988 11.9285C1.81026 12.4399 2.50396 12.7273 3.22727 12.7273H17.7727C18.496 12.7273 19.1897 12.4399 19.7012 11.9285C20.2127 11.417 20.5 10.7233 20.5 10V2.72727C20.5 2.00396 20.2127 1.31026 19.7012 0.7988C19.1897 0.287337 18.496 0 17.7727 0ZM18.6818 10C18.6818 10.2411 18.586 10.4723 18.4156 10.6428C18.2451 10.8133 18.0138 10.9091 17.7727 10.9091H3.22727C2.98617 10.9091 2.75494 10.8133 2.58445 10.6428C2.41396 10.4723 2.31818 10.2411 2.31818 10V2.72727C2.31818 2.48617 2.41396 2.25494 2.58445 2.08445C2.75494 1.91396 2.98617 1.81818 3.22727 1.81818H17.7727C18.0138 1.81818 18.2451 1.91396 18.4156 2.08445C18.586 2.25494 18.6818 2.48617 18.6818 2.72727V10ZM10.5 3.63636C9.9606 3.63636 9.43331 3.79632 8.98481 4.09599C8.53631 4.39567 8.18675 4.82161 7.98033 5.31995C7.77391 5.8183 7.7199 6.36666 7.82513 6.8957C7.93036 7.42474 8.19011 7.91069 8.57153 8.29211C8.95294 8.67353 9.4389 8.93327 9.96794 9.03851C10.497 9.14374 11.0453 9.08973 11.5437 8.88331C12.042 8.67689 12.468 8.32733 12.7676 7.87883C13.0673 7.43033 13.2273 6.90304 13.2273 6.36364C13.2273 5.64032 12.9399 4.94663 12.4285 4.43516C11.917 3.9237 11.2233 3.63636 10.5 3.63636ZM10.5 7.27273C10.3202 7.27273 10.1444 7.21941 9.99494 7.11952C9.84544 7.01963 9.72892 6.87765 9.66011 6.71153C9.5913 6.54542 9.5733 6.36263 9.60838 6.18628C9.64345 6.00994 9.73004 5.84795 9.85718 5.72081C9.98431 5.59367 10.1463 5.50709 10.3226 5.47201C10.499 5.43694 10.6818 5.45494 10.8479 5.52375C11.014 5.59255 11.156 5.70907 11.2559 5.85857C11.3558 6.00807 11.4091 6.18384 11.4091 6.36364C11.4091 6.60474 11.3133 6.83597 11.1428 7.00646C10.9723 7.17695 10.7411 7.27273 10.5 7.27273ZM15.9545 5.45455C15.7747 5.45455 15.599 5.50786 15.4495 5.60776C15.3 5.70765 15.1835 5.84963 15.1147 6.01574C15.0458 6.18186 15.0278 6.36465 15.0629 6.54099C15.098 6.71734 15.1846 6.87932 15.3117 7.00646C15.4389 7.1336 15.6008 7.22018 15.7772 7.25526C15.9535 7.29034 16.1363 7.27233 16.3024 7.20353C16.4686 7.13472 16.6105 7.0182 16.7104 6.8687C16.8103 6.7192 16.8636 6.54344 16.8636 6.36364C16.8636 6.12253 16.7679 5.8913 16.5974 5.72081C16.4269 5.55032 16.1957 5.45455 15.9545 5.45455Z" fill="#E23636"/>
</g>
<defs>
<clipPath id="clip0_428_3489">
<rect width="20" height="20" fill="white" transform="translate(0.5)"/>
</clipPath>
</defs>
</svg>
