<svg width="36" height="24" viewBox="0 0 36 24" fill="none" xmlns="http://www.w3.org/2000/svg">
<path fill-rule="evenodd" clip-rule="evenodd" d="M5.4 0C3.96783 0 2.59432 0.474106 1.58162 1.31802C0.568927 2.16193 0 3.30653 0 4.5V6H36V4.5C36 3.30653 35.4311 2.16193 34.4184 1.31802C33.4057 0.474106 32.0322 0 30.6 0H5.4ZM36 9H0V19.5C0 20.6935 0.568927 21.8381 1.58162 22.682C2.59432 23.5259 3.96783 24 5.4 24H30.6C32.0322 24 33.4057 23.5259 34.4184 22.682C35.4311 21.8381 36 20.6935 36 19.5V9ZM10.8 16.5C10.8 16.1022 10.9896 15.7206 11.3272 15.4393C11.6648 15.158 12.1226 15 12.6 15H20.5452L20.3274 14.8185C19.9896 14.5372 19.7998 14.1557 19.7996 13.7578C19.7995 13.3599 19.989 12.9782 20.3265 12.6968C20.664 12.4153 21.1219 12.2571 21.5994 12.2569C22.0768 12.2568 22.5348 12.4147 22.8726 12.696L26.163 15.4395C26.5004 15.7208 26.69 16.1023 26.69 16.5C26.69 16.8977 26.5004 17.2792 26.163 17.5605L22.8726 20.3025C22.7066 20.4458 22.5079 20.56 22.2883 20.6387C22.0687 20.7173 21.8325 20.7586 21.5935 20.7604C21.3545 20.7621 21.1175 20.7242 20.8963 20.6487C20.6751 20.5733 20.4741 20.4619 20.3051 20.3211C20.1361 20.1803 20.0024 20.0128 19.9119 19.8284C19.8214 19.6441 19.7759 19.4466 19.7779 19.2474C19.78 19.0482 19.8297 18.8514 19.924 18.6684C20.0184 18.4854 20.1555 18.3199 20.3274 18.1815L20.5452 18H12.6C12.1226 18 11.6648 17.842 11.3272 17.5607C10.9896 17.2794 10.8 16.8978 10.8 16.5Z" fill="#F2F2F2"/>
</svg>
