<svg width="36" height="24" viewBox="0 0 36 24" fill="none" xmlns="http://www.w3.org/2000/svg">
<path d="M33.6 24H2.4C1.76348 24 1.15303 23.7471 0.702944 23.2971C0.252856 22.847 0 22.2365 0 21.6L0 2.4C0 1.76348 0.252856 1.15303 0.702944 0.702944C1.15303 0.252856 1.76348 0 2.4 0L33.6 0C34.2365 0 34.847 0.252856 35.2971 0.702944C35.7471 1.15303 36 1.76348 36 2.4V21.6C36 22.2365 35.7471 22.847 35.2971 23.2971C34.847 23.7471 34.2365 24 33.6 24ZM17.84 14.762L17.481 17.012C18.3981 17.3994 19.3891 17.5806 20.384 17.543H20.373C21.5387 17.6108 22.693 17.2819 23.648 16.61L23.631 16.621C24.0206 16.3342 24.3374 15.9599 24.5559 15.5283C24.7744 15.0967 24.8885 14.6198 24.889 14.136V14.121C24.889 13.021 24.153 12.108 22.702 11.402C22.3062 11.2107 21.9275 10.9859 21.57 10.73L21.593 10.746C21.493 10.6816 21.4097 10.5943 21.3501 10.4914C21.2904 10.3885 21.2561 10.2728 21.25 10.154V10.152C21.2578 10.0282 21.2967 9.90844 21.3629 9.8036C21.4291 9.69876 21.5206 9.61225 21.629 9.552L21.633 9.55C21.9686 9.35613 22.3543 9.26666 22.741 9.293H22.735H22.815L22.892 9.292C23.536 9.292 24.147 9.431 24.698 9.68L24.67 9.669L24.904 9.794L25.263 7.623C24.5372 7.34058 23.7648 7.19741 22.986 7.201H22.937H22.94C21.8133 7.1519 20.7024 7.47986 19.783 8.133L19.799 8.122C19.4168 8.39157 19.1049 8.74901 18.8897 9.16422C18.6744 9.57944 18.562 10.0403 18.562 10.508V10.513C18.552 11.571 19.314 12.485 20.828 13.233C21.228 13.408 21.573 13.622 21.882 13.879L21.875 13.873C21.964 13.9482 22.0363 14.0411 22.0874 14.1458C22.1386 14.2504 22.1674 14.3646 22.172 14.481V14.485C22.172 14.804 21.982 15.078 21.708 15.201L21.703 15.203C21.403 15.361 21.047 15.453 20.669 15.453H20.623H20.625H20.55C19.693 15.453 18.881 15.263 18.153 14.923L18.188 14.938L17.845 14.766L17.84 14.762ZM27.965 15.903H31.28C31.3333 16.1317 31.4377 16.6317 31.593 17.403H34L31.906 7.372H29.906C29.62 7.34601 29.3332 7.4133 29.0886 7.56381C28.844 7.71432 28.6547 7.93996 28.549 8.207L28.546 8.216L24.706 17.403H27.426L27.972 15.904L27.965 15.903ZM14.891 7.372L13.265 17.403H15.859L17.484 7.372H14.891ZM4.922 9.419L7.032 17.387H9.766L13.841 7.372H11.095L8.561 14.216L8.295 12.825L7.391 8.216C7.34301 7.94992 7.19328 7.713 6.97356 7.55544C6.75385 7.39789 6.48141 7.33209 6.214 7.372L6.22 7.371H2.033L2.002 7.574C5.226 8.393 7.344 10.16 8.298 12.824C8.00594 12.0622 7.55376 11.372 6.972 10.8L6.971 10.799C6.40047 10.2131 5.71794 9.74785 4.964 9.431L4.924 9.416L4.922 9.419ZM30.859 13.84H28.699C28.845 13.4547 29.189 12.5213 29.731 11.04L29.777 10.899L29.937 10.493C30.0017 10.3263 30.0483 10.191 30.077 10.087L30.265 10.946L30.858 13.836L30.859 13.84Z" fill="#F2F2F2"/>
</svg>
