<svg width="36" height="24" viewBox="0 0 36 24" fill="none" xmlns="http://www.w3.org/2000/svg">
<path d="M33.6 24H2.4C1.76348 24 1.15303 23.7471 0.702944 23.2971C0.252856 22.847 0 22.2365 0 21.6L0 2.4C0 1.76348 0.252856 1.15303 0.702944 0.702944C1.15303 0.252856 1.76348 0 2.4 0L33.6 0C34.2365 0 34.847 0.252856 35.2971 0.702944C35.7471 1.15303 36 1.76348 36 2.4V21.6C36 22.2365 35.7471 22.847 35.2971 23.2971C34.847 23.7471 34.2365 24 33.6 24ZM14.032 10.325C14.0046 10.3251 13.9775 10.3314 13.9529 10.3436C13.9283 10.3557 13.9068 10.3733 13.89 10.395C13.8506 10.4351 13.8281 10.4888 13.827 10.545C13.827 10.566 13.925 10.865 14.135 11.478L14.589 12.804L14.8 13.422C15.0367 14.1153 15.1603 14.484 15.171 14.528C14.7056 15.1045 14.2847 15.7156 13.912 16.356L13.874 16.426L13.872 16.451C13.872 16.551 13.953 16.633 14.054 16.633L14.081 16.631H14.08H15.298C15.3547 16.6302 15.4103 16.6152 15.4597 16.5875C15.5091 16.5597 15.5508 16.52 15.581 16.472L15.582 16.471L19.614 10.652C19.6353 10.6242 19.6469 10.5901 19.647 10.555L19.646 10.54V10.541C19.6449 10.4848 19.6224 10.4311 19.583 10.391C19.5663 10.3694 19.545 10.3519 19.5206 10.3398C19.4961 10.3276 19.4693 10.3212 19.442 10.321H18.223C18.1661 10.3216 18.1104 10.3365 18.0607 10.3643C18.0111 10.3921 17.9693 10.4319 17.939 10.48L17.938 10.481L16.258 12.947L15.563 10.575C15.5452 10.5027 15.5037 10.4385 15.4452 10.3925C15.3867 10.3464 15.3144 10.3213 15.24 10.321L15.214 10.322H15.215L14.032 10.325ZM28.01 10.214H27.984C27.226 10.214 26.545 10.543 26.075 11.065L26.073 11.067C25.5593 11.5989 25.2725 12.3096 25.273 13.049V13.076V13.075C25.2717 13.105 25.271 13.1377 25.271 13.173C25.271 13.71 25.48 14.199 25.82 14.562L25.819 14.561C26.0123 14.7495 26.2425 14.896 26.4951 14.9913C26.7478 15.0866 27.0173 15.1288 27.287 15.115H27.282C27.619 15.111 27.939 15.042 28.231 14.918L28.215 14.924C28.51 14.813 28.76 14.64 28.957 14.42L28.959 14.418C28.949 14.474 28.9377 14.5243 28.925 14.569L28.927 14.559C28.9104 14.6205 28.8997 14.6835 28.895 14.747V14.749C28.895 14.917 28.9637 15.0013 29.101 15.002H30.192C30.2346 15.0058 30.2775 15.0011 30.3183 14.988C30.359 14.975 30.3967 14.9539 30.4291 14.926C30.4616 14.8981 30.4881 14.864 30.5072 14.8257C30.5262 14.7874 30.5374 14.7457 30.54 14.703V14.702L31.188 10.575C31.194 10.5439 31.193 10.5118 31.1848 10.4811C31.1767 10.4505 31.1617 10.422 31.141 10.398C31.1227 10.3736 31.099 10.3536 31.0718 10.3398C31.0446 10.3259 31.0145 10.3185 30.984 10.318H29.781C29.634 10.318 29.541 10.493 29.511 10.84C29.3349 10.6142 29.1034 10.4378 28.839 10.328C28.5746 10.2181 28.2862 10.1785 28.002 10.213L28.01 10.212V10.214ZM10.047 10.214H10.019C9.262 10.214 8.581 10.543 8.113 11.065L8.111 11.067C7.59732 11.5989 7.31045 12.3096 7.311 13.049V13.076V13.075C7.29752 13.3468 7.33912 13.6186 7.43329 13.8739C7.52746 14.1293 7.67226 14.363 7.859 14.561L7.858 14.56C8.212 14.904 8.696 15.116 9.23 15.116L9.326 15.114H9.321C9.653 15.109 9.968 15.04 10.255 14.917L10.239 14.923C10.538 14.809 10.792 14.637 10.997 14.418L10.998 14.417C10.961 14.515 10.938 14.629 10.935 14.747V14.749C10.9357 14.917 11.0043 15.0013 11.141 15.002H12.231C12.2736 15.0058 12.3165 15.0011 12.3573 14.988C12.398 14.975 12.4357 14.9539 12.4681 14.926C12.5006 14.8981 12.5271 14.864 12.5462 14.8257C12.5652 14.7874 12.5764 14.7457 12.579 14.703V14.702L13.228 10.575C13.2336 10.5441 13.2322 10.5123 13.2239 10.482C13.2156 10.4518 13.2006 10.4237 13.18 10.4C13.1617 10.3756 13.138 10.3556 13.1108 10.3418C13.0836 10.3279 13.0535 10.3205 13.023 10.32H11.82C11.673 10.32 11.58 10.495 11.551 10.842C11.373 10.6181 11.1411 10.443 10.877 10.3332C10.6129 10.2234 10.3253 10.1823 10.041 10.214L10.049 10.213L10.047 10.214ZM32.612 8L32.596 7.999C32.5483 7.99883 32.5022 8.01664 32.467 8.04888C32.4318 8.08112 32.41 8.12543 32.406 8.173L31.378 14.752C31.3696 14.7837 31.3695 14.817 31.3777 14.8487C31.3859 14.8804 31.4022 14.9094 31.425 14.933C31.4439 14.9554 31.4675 14.9734 31.4941 14.9856C31.5207 14.9979 31.5497 15.0042 31.579 15.004H32.629L32.661 15.006C32.7406 15.006 32.8169 14.9744 32.8731 14.9181C32.9294 14.8619 32.961 14.7856 32.961 14.706V14.704L33.987 8.239L33.988 8.217C33.9881 8.15994 33.9695 8.10442 33.935 8.059V8.06C33.8982 8.02195 33.8479 8.00002 33.795 7.999L33.78 8H32.612ZM20.942 8C20.8991 7.99469 20.8556 7.99839 20.8143 8.01088C20.7729 8.02337 20.7346 8.04436 20.7019 8.07252C20.6691 8.10067 20.6426 8.13536 20.624 8.17436C20.6054 8.21336 20.5952 8.25582 20.594 8.299L19.567 14.751C19.5614 14.7817 19.5628 14.8132 19.5709 14.8433C19.579 14.8734 19.5937 14.9013 19.614 14.925C19.6317 14.9499 19.6551 14.9701 19.6822 14.9841C19.7094 14.998 19.7395 15.0052 19.77 15.005H21.075C21.1337 15.0055 21.1907 14.9854 21.2361 14.9481C21.2814 14.9108 21.3122 14.8587 21.323 14.801V14.799L21.608 12.965C21.6119 12.9252 21.6237 12.8865 21.6428 12.8513C21.6618 12.8161 21.6878 12.785 21.719 12.76C21.7876 12.7055 21.8703 12.67 21.957 12.657H21.96C22.041 12.642 22.134 12.634 22.229 12.633C22.313 12.633 22.414 12.6383 22.53 12.649C22.6568 12.6638 22.7844 12.6705 22.912 12.669C23.6447 12.6702 24.3506 12.394 24.888 11.896L24.886 11.898C25.154 11.6138 25.3609 11.2778 25.494 10.9106C25.6271 10.5434 25.6836 10.1529 25.66 9.763V9.771C25.6815 9.51318 25.6373 9.25411 25.5315 9.01802C25.4257 8.78193 25.2618 8.57652 25.055 8.421L25.051 8.418C24.5738 8.11625 24.0148 7.96986 23.451 7.999H23.457L20.942 8ZM2.96 8C2.91817 7.99551 2.87586 7.99987 2.83582 8.0128C2.79579 8.02573 2.75892 8.04693 2.72761 8.07503C2.6963 8.10314 2.67125 8.13751 2.65409 8.17592C2.63693 8.21434 2.62804 8.25593 2.628 8.298V8.3L1.6 14.752C1.59443 14.7827 1.59575 14.8142 1.60388 14.8443C1.61201 14.8744 1.62674 14.9023 1.647 14.926C1.66467 14.9509 1.68807 14.9711 1.71522 14.9851C1.74238 14.999 1.77248 15.0062 1.803 15.006H3.007C3.04987 15.0113 3.09338 15.0076 3.13473 14.9951C3.17609 14.9826 3.21438 14.9616 3.24714 14.9335C3.27991 14.9053 3.30643 14.8706 3.325 14.8316C3.34358 14.7926 3.3538 14.7502 3.355 14.707L3.64 12.968C3.64376 12.9282 3.65543 12.8896 3.67432 12.8544C3.69321 12.8192 3.71894 12.7881 3.75 12.763C3.81861 12.7085 3.90134 12.673 3.988 12.66H3.991C4.0795 12.6445 4.16915 12.6365 4.259 12.636H4.26C4.344 12.636 4.444 12.6413 4.56 12.652C4.68645 12.6667 4.8137 12.6734 4.941 12.672C5.704 12.672 6.398 12.379 6.918 11.899L6.916 11.901C7.18396 11.6168 7.39088 11.2808 7.52399 10.9136C7.65711 10.5464 7.71361 10.1559 7.69 9.766V9.774C7.71152 9.51618 7.66731 9.25711 7.56151 9.02102C7.4557 8.78492 7.29176 8.57952 7.085 8.424L7.081 8.421C6.60592 8.1203 6.04958 7.97362 5.488 8.001H5.494L2.96 8ZM27.944 13.835L27.896 13.836C27.6405 13.8362 27.3932 13.7459 27.198 13.581L27.2 13.582C27.1104 13.4984 27.0388 13.3973 26.9896 13.285C26.9404 13.1727 26.9147 13.0516 26.914 12.929L26.915 12.884V12.857C26.915 12.483 27.066 12.144 27.311 11.898C27.552 11.651 27.888 11.498 28.26 11.498H28.293H28.291L28.325 11.497C28.594 11.497 28.839 11.596 29.027 11.759L29.026 11.758C29.1187 11.8441 29.1927 11.9484 29.2433 12.0644C29.2939 12.1803 29.32 12.3055 29.32 12.432L29.319 12.48V12.478V12.502C29.319 12.871 29.166 13.205 28.919 13.442C28.7943 13.5663 28.6463 13.6649 28.4834 13.732C28.3206 13.7991 28.1461 13.8334 27.97 13.833H27.945L27.944 13.835ZM9.965 13.835L9.915 13.836C9.653 13.836 9.412 13.74 9.228 13.581L9.229 13.582C9.14106 13.4979 9.07109 13.3969 9.02331 13.285C8.97553 13.1731 8.95093 13.0527 8.951 12.931L8.952 12.884V12.857C8.952 12.483 9.103 12.144 9.348 11.898C9.589 11.651 9.924 11.498 10.296 11.498H10.331H10.329L10.363 11.497C10.632 11.497 10.877 11.596 11.065 11.759L11.064 11.758C11.1564 11.8441 11.2301 11.9482 11.2805 12.064C11.3309 12.1798 11.357 12.3047 11.357 12.431L11.356 12.48V12.478V12.513C11.356 12.882 11.203 13.214 10.956 13.451C10.6999 13.698 10.3578 13.8357 10.002 13.835H9.965ZM21.872 11.275L22.141 9.584C22.1431 9.5591 22.1502 9.53487 22.1617 9.5127C22.1732 9.49052 22.189 9.47084 22.2081 9.45477C22.2272 9.4387 22.2494 9.42656 22.2732 9.41905C22.297 9.41154 22.3221 9.4088 22.347 9.411H22.631L22.692 9.41C22.8653 9.41 23.0357 9.42167 23.203 9.445L23.184 9.443C23.339 9.471 23.474 9.541 23.58 9.641C23.6409 9.69772 23.6893 9.76648 23.7222 9.84292C23.7551 9.91935 23.7717 10.0018 23.771 10.085L23.77 10.123V10.121C23.7912 10.2881 23.7707 10.4578 23.7103 10.615C23.6499 10.7722 23.5516 10.9121 23.424 11.022L23.423 11.023C23.1043 11.2048 22.739 11.2883 22.373 11.263H22.379L21.874 11.279L21.872 11.275ZM3.893 11.275L4.162 9.584C4.16414 9.5591 4.17117 9.53487 4.18268 9.5127C4.1942 9.49052 4.20998 9.47084 4.22911 9.45477C4.24825 9.4387 4.27036 9.42656 4.2942 9.41905C4.31803 9.41154 4.34311 9.4088 4.368 9.411H4.667C4.98715 9.3878 5.30758 9.45209 5.594 9.597L5.584 9.592C5.77333 9.714 5.83667 9.96933 5.774 10.358C5.76951 10.5029 5.73006 10.6446 5.65902 10.771C5.58799 10.8974 5.48746 11.0048 5.366 11.084L5.363 11.086C4.88924 11.2614 4.38154 11.3258 3.879 11.274L3.893 11.275Z" fill="#F2F2F2"/>
</svg>
