<svg width="24" height="24" viewBox="0 0 24 24" fill="none" xmlns="http://www.w3.org/2000/svg">
<g clip-path="url(#clip0_1108_1218)">
<path d="M22.8839 17.7958L20.3999 15.2518C19.8656 14.7439 19.1916 14.4074 18.4646 14.2855C17.7375 14.1636 16.9906 14.262 16.3199 14.5678L15.2399 13.4878C16.5126 11.7873 17.0938 9.66784 16.8665 7.55604C16.6393 5.44423 15.6205 3.4969 14.0152 2.10607C12.4099 0.715242 10.3373 -0.0158196 8.21469 0.0600534C6.09204 0.135926 4.07695 1.0131 2.57505 2.515C1.07316 4.01689 0.195985 6.03199 0.120112 8.15463C0.044239 10.2773 0.775301 12.3499 2.16613 13.9551C3.55696 15.5604 5.50428 16.5793 7.61609 16.8065C9.7279 17.0337 11.8474 16.4525 13.5479 15.1798L14.6159 16.2478C14.274 16.9194 14.1515 17.6813 14.2656 18.4262C14.3797 19.1711 14.7247 19.8614 15.2519 20.3998L17.7959 22.9438C18.4709 23.618 19.3859 23.9967 20.3399 23.9967C21.2939 23.9967 22.2089 23.618 22.8839 22.9438C23.2268 22.6086 23.4992 22.2082 23.6852 21.7661C23.8712 21.3241 23.967 20.8494 23.967 20.3698C23.967 19.8903 23.8712 19.4155 23.6852 18.9735C23.4992 18.5315 23.2268 18.1311 22.8839 17.7958ZM12.7079 12.7078C11.8682 13.5454 10.7991 14.1154 9.63558 14.3457C8.47211 14.5759 7.26649 14.4562 6.17101 14.0017C5.07554 13.5471 4.13936 12.778 3.48075 11.7917C2.82213 10.8053 2.47062 9.64587 2.47062 8.45983C2.47062 7.27379 2.82213 6.11435 3.48075 5.12799C4.13936 4.14162 5.07554 3.37258 6.17101 2.91801C7.26649 2.46344 8.47211 2.34373 9.63558 2.57401C10.7991 2.8043 11.8682 3.37423 12.7079 4.21183C13.2667 4.76918 13.71 5.43129 14.0124 6.16023C14.3149 6.88917 14.4706 7.67062 14.4706 8.45983C14.4706 9.24904 14.3149 10.0305 14.0124 10.7594C13.71 11.4884 13.2667 12.1505 12.7079 12.7078ZM21.1919 21.1918C21.0803 21.3043 20.9476 21.3936 20.8014 21.4545C20.6552 21.5154 20.4983 21.5468 20.3399 21.5468C20.1815 21.5468 20.0246 21.5154 19.8784 21.4545C19.7322 21.3936 19.5994 21.3043 19.4879 21.1918L16.9439 18.6478C16.8314 18.5363 16.7421 18.4036 16.6812 18.2573C16.6203 18.1111 16.5889 17.9542 16.5889 17.7958C16.5889 17.6374 16.6203 17.4806 16.6812 17.3343C16.7421 17.1881 16.8314 17.0554 16.9439 16.9438C17.0554 16.8314 17.1882 16.7421 17.3344 16.6812C17.4806 16.6202 17.6375 16.5889 17.7959 16.5889C17.9543 16.5889 18.1112 16.6202 18.2574 16.6812C18.4036 16.7421 18.5363 16.8314 18.6479 16.9438L21.1919 19.4878C21.3044 19.5994 21.3936 19.7321 21.4546 19.8783C21.5155 20.0246 21.5469 20.1814 21.5469 20.3398C21.5469 20.4982 21.5155 20.6551 21.4546 20.8013C21.3936 20.9476 21.3044 21.0803 21.1919 21.1918Z" fill="#262626"/>
</g>
<defs>
<clipPath id="clip0_1108_1218">
<rect width="24" height="24" fill="white"/>
</clipPath>
</defs>
</svg>
