<svg width="24" height="24" viewBox="0 0 24 24" fill="none" xmlns="http://www.w3.org/2000/svg">
<g clip-path="url(#clip0_1114_1140)">
<path d="M14.3999 19.4285C14.7182 19.4285 15.0234 19.3081 15.2485 19.0938C15.4735 18.8794 15.5999 18.5887 15.5999 18.2856V15.9999C15.5999 15.6968 15.4735 15.4061 15.2485 15.1918C15.0234 14.9775 14.7182 14.8571 14.3999 14.8571C14.0817 14.8571 13.7765 14.9775 13.5514 15.1918C13.3264 15.4061 13.1999 15.6968 13.1999 15.9999V18.2856C13.1999 18.5887 13.3264 18.8794 13.5514 19.0938C13.7765 19.3081 14.0817 19.4285 14.3999 19.4285ZM9.59995 19.4285C9.91821 19.4285 10.2234 19.3081 10.4485 19.0938C10.6735 18.8794 10.7999 18.5887 10.7999 18.2856V15.9999C10.7999 15.6968 10.6735 15.4061 10.4485 15.1918C10.2234 14.9775 9.91821 14.8571 9.59995 14.8571C9.28169 14.8571 8.97646 14.9775 8.75142 15.1918C8.52637 15.4061 8.39995 15.6968 8.39995 15.9999V18.2856C8.39995 18.5887 8.52637 18.8794 8.75142 19.0938C8.97646 19.3081 9.28169 19.4285 9.59995 19.4285ZM20.3999 5.71424H18.7439L16.6679 1.77139C16.6045 1.62631 16.5103 1.49524 16.3913 1.38639C16.2723 1.27754 16.131 1.19324 15.9762 1.13875C15.8214 1.08427 15.6565 1.06077 15.4917 1.06973C15.327 1.07869 15.166 1.11992 15.0187 1.19083C14.8714 1.26174 14.7411 1.36082 14.6359 1.48187C14.5306 1.60292 14.4527 1.74334 14.4071 1.89435C14.3614 2.04537 14.3489 2.20374 14.3704 2.35955C14.3919 2.51537 14.4469 2.6653 14.5319 2.79996L16.0559 5.71424H7.94395L9.46795 2.79996C9.58442 2.53357 9.59078 2.23507 9.48573 1.9644C9.38069 1.69373 9.17202 1.47093 8.90162 1.34072C8.63122 1.21051 8.31912 1.18255 8.02796 1.26243C7.73681 1.34231 7.48816 1.52413 7.33195 1.77139L5.25595 5.71424H3.59995C2.75177 5.72653 1.9354 6.02366 1.29481 6.55325C0.654213 7.08283 0.230555 7.81084 0.0985512 8.60887C-0.0334527 9.40691 0.134678 10.2237 0.57329 10.9152C1.0119 11.6067 1.69282 12.1285 2.49595 12.3885L3.38395 20.9142C3.47349 21.7629 3.89196 22.5493 4.55763 23.1198C5.22331 23.6904 6.08839 24.0042 6.98395 23.9999H17.0399C17.9355 24.0042 18.8006 23.6904 19.4663 23.1198C20.1319 22.5493 20.5504 21.7629 20.6399 20.9142L21.5279 12.3885C22.3328 12.1277 23.0148 11.604 23.4531 10.9102C23.8914 10.2164 24.0577 9.39724 23.9226 8.59783C23.7875 7.79841 23.3597 7.07034 22.7149 6.54255C22.0702 6.01477 21.2501 5.72134 20.3999 5.71424ZM18.2279 20.6856C18.1981 20.9685 18.0586 21.2307 17.8367 21.4208C17.6148 21.611 17.3265 21.7156 17.0279 21.7142H6.97195C6.67343 21.7156 6.38507 21.611 6.16317 21.4208C5.94128 21.2307 5.80179 20.9685 5.77195 20.6856L4.91995 12.5714H19.0799L18.2279 20.6856ZM20.3999 10.2857H3.59995C3.28169 10.2857 2.97646 10.1653 2.75142 9.95092C2.52638 9.7366 2.39995 9.44591 2.39995 9.1428C2.39995 8.8397 2.52638 8.54901 2.75142 8.33468C2.97646 8.12036 3.28169 7.99995 3.59995 7.99995H20.3999C20.7182 7.99995 21.0234 8.12036 21.2485 8.33468C21.4735 8.54901 21.5999 8.8397 21.5999 9.1428C21.5999 9.44591 21.4735 9.7366 21.2485 9.95092C21.0234 10.1653 20.7182 10.2857 20.3999 10.2857Z" fill="#262626"/>
</g>
<defs>
<clipPath id="clip0_1114_1140">
<rect width="24" height="24" fill="white"/>
</clipPath>
</defs>
</svg>
