<svg width="9" height="8" viewBox="0 0 9 8" fill="none" xmlns="http://www.w3.org/2000/svg">
<path d="M7.07344 1.77778H6.67344V1.33333C6.67344 0.979711 6.54701 0.640573 6.32197 0.390524C6.09692 0.140476 5.7917 0 5.47344 0H1.47344C1.15518 0 0.849953 0.140476 0.624909 0.390524C0.399866 0.640573 0.273438 0.979711 0.273438 1.33333V6.66667C0.273438 7.02029 0.399866 7.35943 0.624909 7.60948C0.849953 7.85952 1.15518 8 1.47344 8H7.07344C7.3917 8 7.69692 7.85952 7.92197 7.60948C8.14701 7.35943 8.27344 7.02029 8.27344 6.66667V3.11111C8.27344 2.75749 8.14701 2.41835 7.92197 2.1683C7.69692 1.91825 7.3917 1.77778 7.07344 1.77778ZM1.47344 0.888889H5.47344C5.57953 0.888889 5.68127 0.935714 5.75628 1.01906C5.8313 1.10241 5.87344 1.21546 5.87344 1.33333V1.77778H1.47344C1.36735 1.77778 1.26561 1.73095 1.1906 1.6476C1.11558 1.56425 1.07344 1.45121 1.07344 1.33333C1.07344 1.21546 1.11558 1.10241 1.1906 1.01906C1.26561 0.935714 1.36735 0.888889 1.47344 0.888889ZM7.47344 5.33333H7.07344C6.96735 5.33333 6.86561 5.28651 6.7906 5.20316C6.71558 5.11981 6.67344 5.00676 6.67344 4.88889C6.67344 4.77101 6.71558 4.65797 6.7906 4.57462C6.86561 4.49127 6.96735 4.44444 7.07344 4.44444H7.47344V5.33333ZM7.47344 3.55556H7.07344C6.75518 3.55556 6.44995 3.69603 6.22491 3.94608C5.99987 4.19613 5.87344 4.53527 5.87344 4.88889C5.87344 5.24251 5.99987 5.58165 6.22491 5.8317C6.44995 6.08175 6.75518 6.22222 7.07344 6.22222H7.47344V6.66667C7.47344 6.78454 7.4313 6.89759 7.35628 6.98094C7.28127 7.06429 7.17953 7.11111 7.07344 7.11111H1.47344C1.36735 7.11111 1.26561 7.06429 1.1906 6.98094C1.11558 6.89759 1.07344 6.78454 1.07344 6.66667V2.59111C1.20194 2.64134 1.33721 2.66689 1.47344 2.66667H7.07344C7.17953 2.66667 7.28127 2.71349 7.35628 2.79684C7.4313 2.88019 7.47344 2.99324 7.47344 3.11111V3.55556Z" fill="#E23636"/>
</svg>
