<svg width="9" height="8" viewBox="0 0 9 8" fill="none" xmlns="http://www.w3.org/2000/svg">
<g clip-path="url(#clip0_1396_2115)">
<path d="M7.57306 1.04401C7.1686 0.619214 6.63238 0.360941 6.0619 0.316163C5.49143 0.271385 4.92459 0.443076 4.46448 0.800011C3.97978 0.421466 3.37648 0.249816 2.77607 0.319626C2.17566 0.389436 1.62275 0.695522 1.22866 1.17624C0.834581 1.65697 0.628606 2.27662 0.652217 2.91042C0.675828 3.54421 0.927272 4.14508 1.35591 4.59201L4.19401 7.57201C4.22942 7.6095 4.27156 7.63926 4.31798 7.65957C4.3644 7.67987 4.41419 7.69033 4.46448 7.69033C4.51477 7.69033 4.56457 7.67987 4.61099 7.65957C4.65741 7.63926 4.69955 7.6095 4.73496 7.57201L7.57306 4.59201C7.79502 4.3591 7.9711 4.08255 8.09123 3.77816C8.21137 3.47377 8.2732 3.1475 8.2732 2.81801C8.2732 2.48852 8.21137 2.16226 8.09123 1.85786C7.9711 1.55347 7.79502 1.27692 7.57306 1.04401ZM7.03591 4.02801L4.46448 6.72401L1.89306 4.02801C1.66646 3.78909 1.51209 3.48523 1.44933 3.15455C1.38657 2.82386 1.41821 2.48108 1.54027 2.16921C1.66234 1.85733 1.8694 1.59025 2.13547 1.40146C2.40155 1.21267 2.71479 1.11059 3.03591 1.10801C3.46491 1.10911 3.87595 1.28895 4.17877 1.60801C4.21418 1.6455 4.25632 1.67526 4.30274 1.69557C4.34916 1.71588 4.39896 1.72633 4.44925 1.72633C4.49954 1.72633 4.54933 1.71588 4.59575 1.69557C4.64217 1.67526 4.68431 1.6455 4.71972 1.60801C5.03147 1.32436 5.4342 1.17567 5.84641 1.19202C6.25861 1.20837 6.64951 1.38855 6.93998 1.69609C7.23045 2.00362 7.3988 2.41555 7.41095 2.84849C7.42311 3.28143 7.27815 3.70305 7.00544 4.02801H7.03591Z" fill="#E23636"/>
</g>
<defs>
<clipPath id="clip0_1396_2115">
<rect width="8" height="8" fill="white" transform="translate(0.273438)"/>
</clipPath>
</defs>
</svg>
