<svg width="9" height="8" viewBox="0 0 9 8" fill="none" xmlns="http://www.w3.org/2000/svg">
<g clip-path="url(#clip0_1390_2085)">
<path d="M7.77344 2H6.27344V1.6C6.27344 1.17565 6.06273 0.768687 5.68765 0.468629C5.31258 0.168571 4.80387 0 4.27344 0C3.74301 0 3.2343 0.168571 2.85922 0.468629C2.48415 0.768687 2.27344 1.17565 2.27344 1.6V2H0.773438C0.640829 2 0.513652 2.04214 0.419884 2.11716C0.326116 2.19217 0.273438 2.29391 0.273438 2.4V6.8C0.273438 7.11826 0.431473 7.42348 0.712777 7.64853C0.994082 7.87357 1.37561 8 1.77344 8H6.77344C7.17126 8 7.55279 7.87357 7.8341 7.64853C8.1154 7.42348 8.27344 7.11826 8.27344 6.8V2.4C8.27344 2.29391 8.22076 2.19217 8.12699 2.11716C8.03323 2.04214 7.90605 2 7.77344 2ZM3.27344 1.6C3.27344 1.38783 3.3788 1.18434 3.56633 1.03431C3.75387 0.884285 4.00822 0.8 4.27344 0.8C4.53865 0.8 4.79301 0.884285 4.98055 1.03431C5.16808 1.18434 5.27344 1.38783 5.27344 1.6V2H3.27344V1.6ZM7.27344 6.8C7.27344 6.90609 7.22076 7.00783 7.12699 7.08284C7.03322 7.15786 6.90605 7.2 6.77344 7.2H1.77344C1.64083 7.2 1.51365 7.15786 1.41988 7.08284C1.32612 7.00783 1.27344 6.90609 1.27344 6.8V2.8H2.27344V3.2C2.27344 3.30609 2.32612 3.40783 2.41988 3.48284C2.51365 3.55786 2.64083 3.6 2.77344 3.6C2.90605 3.6 3.03322 3.55786 3.12699 3.48284C3.22076 3.40783 3.27344 3.30609 3.27344 3.2V2.8H5.27344V3.2C5.27344 3.30609 5.32612 3.40783 5.41989 3.48284C5.51365 3.55786 5.64083 3.6 5.77344 3.6C5.90605 3.6 6.03322 3.55786 6.12699 3.48284C6.22076 3.40783 6.27344 3.30609 6.27344 3.2V2.8H7.27344V6.8Z" fill="#E23636"/>
</g>
<defs>
<clipPath id="clip0_1390_2085">
<rect width="8" height="8" fill="white" transform="translate(0.273438)"/>
</clipPath>
</defs>
</svg>
