<svg width="19" height="21" viewBox="0 0 19 21" fill="none" xmlns="http://www.w3.org/2000/svg">
<path d="M15.4092 5.49979H15.0592C15.2874 5.03256 15.407 4.51978 15.4092 3.99979C15.4122 3.30312 15.2067 2.62148 14.819 2.04262C14.4313 1.46376 13.8793 1.01418 13.2339 0.751732C12.5886 0.489287 11.8794 0.425996 11.1978 0.570006C10.5162 0.714016 9.89323 1.05874 9.40918 1.55979C8.92513 1.05874 8.3022 0.714016 7.62056 0.570006C6.93893 0.425996 6.22979 0.489287 5.58443 0.751732C4.93908 1.01418 4.38704 1.46376 3.99937 2.04262C3.6117 2.62148 3.40615 3.30312 3.40918 3.99979C3.41131 4.51978 3.53096 5.03256 3.75918 5.49979H3.40918C2.61353 5.49979 1.85047 5.81586 1.28786 6.37847C0.72525 6.94108 0.40918 7.70414 0.40918 8.49979V10.4998C0.40918 10.765 0.514536 11.0194 0.702073 11.2069C0.889609 11.3944 1.14396 11.4998 1.40918 11.4998H2.40918V17.4998C2.40918 18.2954 2.72525 19.0585 3.28786 19.6211C3.85047 20.1837 4.61353 20.4998 5.40918 20.4998H13.4092C14.2048 20.4998 14.9679 20.1837 15.5305 19.6211C16.0931 19.0585 16.4092 18.2954 16.4092 17.4998V11.4998H17.4092C17.6744 11.4998 17.9288 11.3944 18.1163 11.2069C18.3038 11.0194 18.4092 10.765 18.4092 10.4998V8.49979C18.4092 7.70414 18.0931 6.94108 17.5305 6.37847C16.9679 5.81586 16.2048 5.49979 15.4092 5.49979ZM8.40918 18.4998H5.40918C5.14396 18.4998 4.88961 18.3944 4.70207 18.2069C4.51454 18.0194 4.40918 17.765 4.40918 17.4998V11.4998H8.40918V18.4998ZM8.40918 9.49979H2.40918V8.49979C2.40918 8.23458 2.51454 7.98022 2.70207 7.79269C2.88961 7.60515 3.14396 7.49979 3.40918 7.49979H8.40918V9.49979ZM8.40918 5.49979H6.90918C6.61251 5.49979 6.3225 5.41182 6.07582 5.247C5.82915 5.08218 5.63689 4.84791 5.52336 4.57382C5.40983 4.29973 5.38012 3.99813 5.438 3.70716C5.49588 3.41619 5.63874 3.14891 5.84852 2.93913C6.0583 2.72935 6.32557 2.58649 6.61654 2.52862C6.90752 2.47074 7.20912 2.50044 7.4832 2.61397C7.75729 2.72751 7.99156 2.91976 8.15638 3.16644C8.32121 3.41311 8.40918 3.70312 8.40918 3.99979V5.49979ZM10.4092 3.99979C10.4092 3.70312 10.4972 3.41311 10.662 3.16644C10.8268 2.91976 11.0611 2.72751 11.3352 2.61397C11.6092 2.50044 11.9108 2.47074 12.2018 2.52862C12.4928 2.58649 12.7601 2.72935 12.9698 2.93913C13.1796 3.14891 13.3225 3.41619 13.3804 3.70716C13.4382 3.99813 13.4085 4.29973 13.295 4.57382C13.1815 4.84791 12.9892 5.08218 12.7425 5.247C12.4959 5.41182 12.2059 5.49979 11.9092 5.49979H10.4092V3.99979ZM14.4092 17.4998C14.4092 17.765 14.3038 18.0194 14.1163 18.2069C13.9288 18.3944 13.6744 18.4998 13.4092 18.4998H10.4092V11.4998H14.4092V17.4998ZM16.4092 9.49979H10.4092V7.49979H15.4092C15.6744 7.49979 15.9288 7.60515 16.1163 7.79269C16.3038 7.98022 16.4092 8.23458 16.4092 8.49979V9.49979Z" fill="#262626"/>
</svg>
