<svg width="37" height="24" viewBox="0 0 37 24" fill="none" xmlns="http://www.w3.org/2000/svg">
<path d="M34.0092 24H2.80918C2.17266 24 1.56221 23.7471 1.11212 23.2971C0.662036 22.847 0.40918 22.2365 0.40918 21.6L0.40918 2.4C0.40918 1.76348 0.662036 1.15303 1.11212 0.702944C1.56221 0.252856 2.17266 0 2.80918 0L34.0092 0C34.6457 0 35.2561 0.252856 35.7062 0.702944C36.1563 1.15303 36.4092 1.76348 36.4092 2.4V21.6C36.4092 22.2365 36.1563 22.847 35.7062 23.2971C35.2561 23.7471 34.6457 24 34.0092 24ZM18.2492 14.762L17.8902 17.012C18.8073 17.3994 19.7983 17.5806 20.7932 17.543H20.7822C21.9479 17.6108 23.1022 17.2819 24.0572 16.61L24.0402 16.621C24.4298 16.3342 24.7465 15.9599 24.965 15.5283C25.1835 15.0967 25.2977 14.6198 25.2982 14.136V14.121C25.2982 13.021 24.5622 12.108 23.1112 11.402C22.7154 11.2107 22.3366 10.9859 21.9792 10.73L22.0022 10.746C21.9022 10.6816 21.8189 10.5943 21.7592 10.4914C21.6996 10.3885 21.6653 10.2728 21.6592 10.154V10.152C21.667 10.0282 21.7058 9.90844 21.7721 9.8036C21.8383 9.69876 21.9298 9.61225 22.0382 9.552L22.0422 9.55C22.3778 9.35613 22.7635 9.26666 23.1502 9.293H23.1442H23.2242L23.3012 9.292C23.9452 9.292 24.5562 9.431 25.1072 9.68L25.0792 9.669L25.3132 9.794L25.6722 7.623C24.9464 7.34058 24.1739 7.19741 23.3952 7.201H23.3462H23.3492C22.2225 7.1519 21.1116 7.47986 20.1922 8.133L20.2082 8.122C19.826 8.39157 19.5141 8.74901 19.2989 9.16422C19.0836 9.57944 18.9712 10.0403 18.9712 10.508V10.513C18.9612 11.571 19.7232 12.485 21.2372 13.233C21.6372 13.408 21.9822 13.622 22.2912 13.879L22.2842 13.873C22.3731 13.9482 22.4455 14.0411 22.4966 14.1458C22.5477 14.2504 22.5765 14.3646 22.5812 14.481V14.485C22.5812 14.804 22.3912 15.078 22.1172 15.201L22.1122 15.203C21.8122 15.361 21.4562 15.453 21.0782 15.453H21.0322H21.0342H20.9592C20.1022 15.453 19.2902 15.263 18.5622 14.923L18.5972 14.938L18.2542 14.766L18.2492 14.762ZM28.3742 15.903H31.6892C31.7425 16.1317 31.8468 16.6317 32.0022 17.403H34.4092L32.3152 7.372H30.3152C30.0292 7.34601 29.7424 7.4133 29.4978 7.56381C29.2532 7.71432 29.0639 7.93996 28.9582 8.207L28.9552 8.216L25.1152 17.403H27.8352L28.3812 15.904L28.3742 15.903ZM15.3002 7.372L13.6742 17.403H16.2682L17.8932 7.372H15.3002ZM5.33118 9.419L7.44118 17.387H10.1752L14.2502 7.372H11.5042L8.97018 14.216L8.70418 12.825L7.80018 8.216C7.75219 7.94992 7.60246 7.713 7.38274 7.55544C7.16303 7.39789 6.89059 7.33209 6.62318 7.372L6.62918 7.371H2.44218L2.41118 7.574C5.63518 8.393 7.75318 10.16 8.70718 12.824C8.41512 12.0622 7.96294 11.372 7.38118 10.8L7.38018 10.799C6.80965 10.2131 6.12712 9.74785 5.37318 9.431L5.33318 9.416L5.33118 9.419ZM31.2682 13.84H29.1082C29.2542 13.4547 29.5982 12.5213 30.1402 11.04L30.1862 10.899L30.3462 10.493C30.4108 10.3263 30.4575 10.191 30.4862 10.087L30.6742 10.946L31.2672 13.836L31.2682 13.84Z" fill="#262626"/>
</svg>
