<svg width="37" height="24" viewBox="0 0 37 24" fill="none" xmlns="http://www.w3.org/2000/svg">
<path d="M34.0092 24H2.80918C2.17266 24 1.56221 23.7471 1.11212 23.2971C0.662036 22.847 0.40918 22.2365 0.40918 21.6L0.40918 2.4C0.40918 1.76348 0.662036 1.15303 1.11212 0.702944C1.56221 0.252856 2.17266 0 2.80918 0L34.0092 0C34.6457 0 35.2561 0.252856 35.7062 0.702944C36.1563 1.15303 36.4092 1.76348 36.4092 2.4V21.6C36.4092 22.2365 36.1563 22.847 35.7062 23.2971C35.2561 23.7471 34.6457 24 34.0092 24ZM28.2022 16.89V18C28.3612 18.022 28.5442 18.035 28.7302 18.035H28.7462C30.1402 18.035 30.8012 17.493 31.3712 15.888L33.8852 8.838H32.4312L30.7452 14.284H30.7152L29.0292 8.838H27.5332L29.9582 15.551L29.8282 15.959C29.7838 16.2415 29.6348 16.497 29.4109 16.6748C29.187 16.8526 28.9044 16.9398 28.6192 16.919H28.6232C28.483 16.913 28.3429 16.9033 28.2032 16.89H28.2022ZM6.12218 8.054H6.09618C5.67521 8.06567 5.26443 8.1861 4.9038 8.40356C4.54317 8.62103 4.24496 8.92813 4.03818 9.295L4.03218 9.307C3.18818 10.759 3.72518 12.981 4.65918 14.334C5.09718 14.974 5.57718 15.6 6.21018 15.6H6.24418C6.50918 15.583 6.75418 15.514 6.97518 15.403L6.96418 15.408C7.23118 15.274 7.54518 15.195 7.87718 15.192C8.19818 15.194 8.50218 15.272 8.76918 15.408L8.75818 15.403C8.97318 15.515 9.22618 15.583 9.49518 15.589H9.52418C10.2292 15.576 10.6712 14.929 11.0622 14.359C11.3412 13.955 11.5722 13.49 11.7342 12.993L11.7452 12.955V12.945L11.7272 12.937C11.3368 12.762 11.0049 12.4785 10.7712 12.1201C10.5376 11.7618 10.4119 11.3438 10.4092 10.916V10.915C10.4125 10.5372 10.5108 10.1663 10.6952 9.83649C10.8796 9.5067 11.144 9.22866 11.4642 9.028L11.4732 9.023L11.4912 9.011C11.2858 8.71304 11.0131 8.46773 10.6951 8.29502C10.3771 8.1223 10.0229 8.02705 9.66118 8.017H9.55218C9.12313 8.03772 8.70226 8.142 8.31318 8.324L8.33418 8.315C8.15028 8.4029 7.95343 8.46064 7.75118 8.486L7.74218 8.487C7.52465 8.46317 7.31287 8.40193 7.11618 8.306L7.12718 8.311C6.81455 8.16148 6.47606 8.07355 6.13018 8.052H6.12218V8.054ZM24.2352 9.87C25.1152 9.87 25.6012 10.282 25.6012 11.029V11.538L23.8152 11.644C22.1402 11.745 21.2552 12.424 21.2552 13.607C21.2581 13.8916 21.3211 14.1724 21.44 14.431C21.559 14.6896 21.7312 14.9202 21.9453 15.1077C22.1595 15.2951 22.4109 15.4353 22.6829 15.5189C22.955 15.6025 23.2417 15.6278 23.5242 15.593L23.5142 15.594L23.5792 15.595C24.4482 15.595 25.2082 15.127 25.6202 14.428L25.6262 14.417H25.6562V15.519H26.9812V10.933C26.9812 9.603 25.9202 8.745 24.2782 8.745C22.7642 8.745 21.6382 9.613 21.5932 10.808H22.8832C22.9587 10.5141 23.1377 10.2572 23.3873 10.0847C23.637 9.91223 23.9406 9.83562 24.2422 9.869L24.2362 9.868L24.2352 9.87ZM14.4092 6.304V15.52H15.8402V12.368H17.8172C18.2245 12.3895 18.6318 12.3257 19.0131 12.1807C19.3944 12.0358 19.7411 11.8128 20.0313 11.526C20.3214 11.2393 20.5484 10.8952 20.6979 10.5156C20.8473 10.1361 20.9159 9.72955 20.8992 9.322V9.328C20.9169 8.92479 20.8503 8.52232 20.7036 8.14632C20.5569 7.77033 20.3333 7.4291 20.0472 7.14447C19.761 6.85983 19.4186 6.63806 19.0419 6.49334C18.6651 6.34861 18.2623 6.28413 17.8592 6.304H17.8662H14.4092ZM9.66218 5.6C9.09064 5.65468 8.56192 5.92674 8.18518 6.36L8.18318 6.363C7.99531 6.57259 7.8515 6.81781 7.76028 7.08408C7.66906 7.35035 7.6323 7.63224 7.65218 7.913V7.907C7.68618 7.907 7.72218 7.911 7.76218 7.911C8.02864 7.89653 8.28906 7.8261 8.52649 7.70428C8.76391 7.58247 8.97302 7.41201 9.14018 7.204L9.14318 7.2C9.52077 6.75298 9.70753 6.17546 9.66318 5.592V5.599L9.66218 5.6ZM23.8982 14.501C23.1402 14.501 22.6492 14.136 22.6492 13.572C22.6492 12.99 23.1192 12.655 24.0092 12.602L25.5992 12.502V13.023C25.5903 13.2343 25.5383 13.4416 25.4464 13.6321C25.3544 13.8226 25.2244 13.9923 25.0644 14.1306C24.9044 14.269 24.7178 14.3732 24.516 14.4367C24.3142 14.5002 24.1016 14.5217 23.8912 14.5L23.8982 14.501ZM17.4802 11.171H15.8362V7.51H17.4862C17.7403 7.4752 17.999 7.49762 18.2434 7.5756C18.4877 7.65359 18.7116 7.78518 18.8985 7.96076C19.0855 8.13634 19.2309 8.35147 19.3241 8.59045C19.4173 8.82942 19.4559 9.08619 19.4372 9.342V9.336C19.4554 9.59316 19.4159 9.85113 19.3215 10.091C19.2271 10.3309 19.0802 10.5466 18.8916 10.7224C18.703 10.8982 18.4774 11.0295 18.2315 11.1068C17.9855 11.184 17.7254 11.2053 17.4702 11.169L17.4802 11.171Z" fill="#262626"/>
</svg>
