<svg width="17" height="16" viewBox="0 0 17 16" fill="none" xmlns="http://www.w3.org/2000/svg">
<g clip-path="url(#clip0_1549_1072)">
<path d="M14.8854 10.6667H4.2187C4.01663 10.6667 3.82284 10.5864 3.67996 10.4435C3.53707 10.3006 3.4568 10.1068 3.4568 9.90476C3.4568 9.70269 3.53707 9.5089 3.67996 9.36601C3.82284 9.22313 4.01663 9.14286 4.2187 9.14286H12.173C12.6824 9.14289 13.1773 8.97272 13.579 8.65937C13.9807 8.34603 14.2662 7.90747 14.3901 7.41333L15.6473 2.46857C15.6758 2.35612 15.6783 2.23864 15.6545 2.12508C15.6308 2.01153 15.5814 1.9049 15.5101 1.81333C15.436 1.71942 15.3409 1.64426 15.2323 1.59397C15.1238 1.54367 15.0049 1.51963 14.8854 1.52381H4.03585C3.87866 1.0792 3.58779 0.694094 3.20313 0.421286C2.81848 0.148479 2.35885 0.00132534 1.88727 0H1.17108C0.969015 0 0.775221 0.0802718 0.632336 0.223157C0.489452 0.366042 0.40918 0.559835 0.40918 0.761905C0.40918 0.963974 0.489452 1.15777 0.632336 1.30065C0.775221 1.44354 0.969015 1.52381 1.17108 1.52381H1.88727C2.06132 1.51874 2.23185 1.57343 2.37048 1.67879C2.50911 1.78415 2.60747 1.93381 2.64918 2.10286L2.69489 2.46857L4.01299 7.61905C3.40678 7.64633 2.83624 7.9133 2.42687 8.36125C2.01751 8.80919 1.80285 9.40141 1.83013 10.0076C1.85741 10.6138 2.12439 11.1844 2.57233 11.5937C3.02028 12.0031 3.61249 12.2178 4.2187 12.1905H4.35585C4.23054 12.5357 4.19027 12.9061 4.23846 13.2702C4.28665 13.6343 4.42186 13.9814 4.63266 14.2822C4.84346 14.5829 5.12363 14.8285 5.44945 14.998C5.77527 15.1675 6.13714 15.256 6.50442 15.256C6.8717 15.256 7.23357 15.1675 7.55939 14.998C7.88521 14.8285 8.16538 14.5829 8.37617 14.2822C8.58697 13.9814 8.72219 13.6343 8.77038 13.2702C8.81856 12.9061 8.7783 12.5357 8.65299 12.1905H10.4511C10.3258 12.5357 10.2855 12.9061 10.3337 13.2702C10.3819 13.6343 10.5171 13.9814 10.7279 14.2822C10.9387 14.5829 11.2189 14.8285 11.5447 14.998C11.8705 15.1675 12.2324 15.256 12.5997 15.256C12.9669 15.256 13.3288 15.1675 13.6546 14.998C13.9804 14.8285 14.2606 14.5829 14.4714 14.2822C14.6822 13.9814 14.8174 13.6343 14.8656 13.2702C14.9138 12.9061 14.8735 12.5357 14.7482 12.1905H14.8854C15.0874 12.1905 15.2812 12.1102 15.4241 11.9673C15.567 11.8244 15.6473 11.6306 15.6473 11.4286C15.6473 11.2265 15.567 11.0327 15.4241 10.8898C15.2812 10.7469 15.0874 10.6667 14.8854 10.6667ZM13.9101 3.04762L12.912 7.04C12.8703 7.20905 12.772 7.35871 12.6333 7.46407C12.4947 7.56942 12.3242 7.62412 12.1501 7.61905H5.57489L4.43204 3.04762H13.9101ZM6.50442 13.7143C6.35373 13.7143 6.20642 13.6696 6.08113 13.5859C5.95583 13.5022 5.85818 13.3832 5.80051 13.2439C5.74284 13.1047 5.72775 12.9515 5.75715 12.8037C5.78655 12.6559 5.85912 12.5202 5.96567 12.4136C6.07222 12.3071 6.20798 12.2345 6.35578 12.2051C6.50357 12.1757 6.65677 12.1908 6.79599 12.2485C6.93521 12.3061 7.0542 12.4038 7.13792 12.5291C7.22164 12.6544 7.26632 12.8017 7.26632 12.9524C7.26632 13.1545 7.18605 13.3482 7.04317 13.4911C6.90028 13.634 6.70649 13.7143 6.50442 13.7143ZM12.5997 13.7143C12.449 13.7143 12.3017 13.6696 12.1764 13.5859C12.0511 13.5022 11.9534 13.3832 11.8957 13.2439C11.8381 13.1047 11.823 12.9515 11.8524 12.8037C11.8818 12.6559 11.9544 12.5202 12.0609 12.4136C12.1675 12.3071 12.3032 12.2345 12.451 12.2051C12.5988 12.1757 12.752 12.1908 12.8912 12.2485C13.0304 12.3061 13.1494 12.4038 13.2332 12.5291C13.3169 12.6544 13.3616 12.8017 13.3616 12.9524C13.3616 13.1545 13.2813 13.3482 13.1384 13.4911C12.9955 13.634 12.8017 13.7143 12.5997 13.7143Z" fill="#F2F2F2"/>
</g>
<defs>
<clipPath id="clip0_1549_1072">
<rect width="16" height="16" fill="white" transform="translate(0.40918)"/>
</clipPath>
</defs>
</svg>
