<svg width="25" height="16" viewBox="0 0 25 16" fill="none" xmlns="http://www.w3.org/2000/svg">
<path d="M8.04322 6.99996H16.0432C16.1909 6.99898 16.3366 6.9653 16.4697 6.90132C16.6029 6.83735 16.7202 6.74467 16.8132 6.62996C16.911 6.51749 16.9824 6.38459 17.0222 6.24099C17.0619 6.09739 17.0691 5.9467 17.0432 5.79996L16.0432 0.799959C15.9965 0.570684 15.8708 0.365062 15.6881 0.218887C15.5054 0.0727124 15.2772 -0.00475863 15.0432 -4.07016e-05H9.04322C8.80927 -0.00475863 8.58108 0.0727124 8.39836 0.218887C8.21564 0.365062 8.08997 0.570684 8.04322 0.799959L7.04322 5.79996C7.01459 5.94523 7.01858 6.09503 7.0549 6.23857C7.09122 6.38211 7.15895 6.51579 7.25322 6.62996C7.34839 6.74731 7.46892 6.84156 7.60575 6.90564C7.74257 6.96973 7.89214 7.00197 8.04322 6.99996ZM9.86322 1.99996H14.2232L14.8232 4.99996H9.26322L9.86322 1.99996ZM22.0432 9.79996C21.9965 9.57068 21.8708 9.36506 21.6881 9.21889C21.5054 9.07271 21.2772 8.99524 21.0432 8.99996H15.0432C14.8093 8.99524 14.5811 9.07271 14.3984 9.21889C14.2156 9.36506 14.09 9.57068 14.0432 9.79996L13.0432 14.8C13.0146 14.9452 13.0186 15.095 13.0549 15.2386C13.0912 15.3821 13.159 15.5158 13.2532 15.63C13.3484 15.7473 13.4689 15.8416 13.6057 15.9056C13.7426 15.9697 13.8921 16.002 14.0432 16H22.0432C22.1909 15.999 22.3366 15.9653 22.4697 15.9013C22.6029 15.8373 22.7202 15.7447 22.8132 15.63C22.911 15.5175 22.9824 15.3846 23.0222 15.241C23.0619 15.0974 23.0691 14.9467 23.0432 14.8L22.0432 9.79996ZM15.2632 14L15.8632 11H20.2232L20.8232 14H15.2632ZM9.04322 8.99996H3.04322C2.80927 8.99524 2.58108 9.07271 2.39836 9.21889C2.21564 9.36506 2.08997 9.57068 2.04322 9.79996L1.04322 14.8C1.01459 14.9452 1.01859 15.095 1.0549 15.2386C1.09122 15.3821 1.15895 15.5158 1.25322 15.63C1.34839 15.7473 1.46892 15.8416 1.60575 15.9056C1.74257 15.9697 1.89214 16.002 2.04322 16H10.0432C10.1909 15.999 10.3366 15.9653 10.4697 15.9013C10.6029 15.8373 10.7202 15.7447 10.8132 15.63C10.911 15.5175 10.9824 15.3846 11.0222 15.241C11.0619 15.0974 11.0691 14.9467 11.0432 14.8L10.0432 9.79996C9.99647 9.57068 9.87079 9.36506 9.68808 9.21889C9.50536 9.07271 9.27716 8.99524 9.04322 8.99996ZM3.26322 14L3.86322 11H8.22322L8.82322 14H3.26322Z" fill={value === 1 ? "#E23636" : "#404040"}/>
</svg>
