<svg width="18" height="20" viewBox="0 0 18 20" fill="none" xmlns="http://www.w3.org/2000/svg">
<g clip-path="url(#clip0_905_3916)">
<path d="M16.2338 6.66677L10.5195 1.65724C9.99566 1.18871 9.31752 0.929688 8.61473 0.929688C7.91194 0.929688 7.2338 1.18871 6.70997 1.65724L0.995684 6.66677C0.693178 6.93731 0.451779 7.2692 0.287562 7.64033C0.123345 8.01146 0.0400771 8.41332 0.0433032 8.81915V17.143C0.0433032 17.9007 0.344323 18.6274 0.880141 19.1633C1.41596 19.6991 2.14268 20.0001 2.90045 20.0001H14.329C15.0868 20.0001 15.8135 19.6991 16.3493 19.1633C16.8851 18.6274 17.1862 17.9007 17.1862 17.143V8.80962C17.188 8.4054 17.1041 8.00538 16.9399 7.63599C16.7758 7.2666 16.5351 6.93625 16.2338 6.66677ZM10.5195 18.0953H6.70997V13.3334C6.70997 13.0808 6.81031 12.8386 6.98892 12.66C7.16752 12.4814 7.40976 12.3811 7.66235 12.3811H9.56711C9.8197 12.3811 10.0619 12.4814 10.2405 12.66C10.4192 12.8386 10.5195 13.0808 10.5195 13.3334V18.0953ZM15.2814 17.143C15.2814 17.3955 15.1811 17.6378 15.0025 17.8164C14.8238 17.995 14.5816 18.0953 14.329 18.0953H12.4243V13.3334C12.4243 12.5757 12.1232 11.8489 11.5874 11.3131C11.0516 10.7773 10.3249 10.4763 9.56711 10.4763H7.66235C6.90459 10.4763 6.17786 10.7773 5.64205 11.3131C5.10623 11.8489 4.80521 12.5757 4.80521 13.3334V18.0953H2.90045C2.64786 18.0953 2.40562 17.995 2.22701 17.8164C2.04841 17.6378 1.94807 17.3955 1.94807 17.143V8.80962C1.94824 8.6744 1.9772 8.54076 2.03303 8.4176C2.08887 8.29444 2.17029 8.18459 2.27187 8.09534L7.98616 3.09534C8.15996 2.94265 8.38339 2.85845 8.61473 2.85845C8.84607 2.85845 9.0695 2.94265 9.2433 3.09534L14.9576 8.09534C15.0592 8.18459 15.1406 8.29444 15.1964 8.4176C15.2523 8.54076 15.2812 8.6744 15.2814 8.80962V17.143Z" fill="#E23636"/>
</g>
<defs>
<clipPath id="clip0_905_3916">
<rect width="17.143" height="20" fill="white" transform="translate(0.0432129)"/>
</clipPath>
</defs>
</svg>
