<svg width="22" height="24" viewBox="0 0 22 24" fill="none" xmlns="http://www.w3.org/2000/svg">
<g clip-path="url(#clip0_1114_1144)">
<path d="M14.9564 12.7746C16.0259 11.9331 16.8066 10.7792 17.1898 9.47344C17.5729 8.16764 17.5396 6.77488 17.0944 5.48892C16.6491 4.20296 15.8141 3.08775 14.7056 2.29844C13.597 1.50912 12.27 1.08496 10.9091 1.08496C9.54828 1.08496 8.22126 1.50912 7.11269 2.29844C6.00413 3.08775 5.16914 4.20296 4.72391 5.48892C4.27867 6.77488 4.24533 8.16764 4.62851 9.47344C5.01169 10.7792 5.79234 11.9331 6.86186 12.7746C5.02922 13.5088 3.43017 14.7266 2.2352 16.2981C1.04022 17.8697 0.294109 19.736 0.0764044 21.6982C0.0606458 21.8415 0.0732588 21.9865 0.113523 22.1248C0.153787 22.2632 0.220914 22.3923 0.311072 22.5048C0.493152 22.7319 0.757986 22.8773 1.04731 22.9091C1.33664 22.941 1.62676 22.8566 1.85385 22.6745C2.08094 22.4924 2.2264 22.2276 2.25822 21.9382C2.49777 19.8057 3.51461 17.8362 5.11446 16.406C6.71432 14.9758 8.78502 14.1852 10.931 14.1852C13.0769 14.1852 15.1476 14.9758 16.7474 16.406C18.3473 17.8362 19.3641 19.8057 19.6037 21.9382C19.6333 22.2063 19.7612 22.4539 19.9627 22.6332C20.1642 22.8125 20.4249 22.9108 20.6946 22.9091H20.8146C21.1006 22.8762 21.3619 22.7316 21.5417 22.5069C21.7216 22.2821 21.8053 21.9954 21.7746 21.7091C21.5559 19.7414 20.8057 17.8702 19.6046 16.2963C18.4035 14.7223 16.7967 13.5049 14.9564 12.7746ZM10.9091 12C10.0461 12 9.20242 11.7441 8.48483 11.2646C7.76723 10.7852 7.20793 10.1037 6.87766 9.3063C6.54738 8.50895 6.46097 7.63157 6.62934 6.78511C6.79771 5.93865 7.21331 5.16112 7.82358 4.55085C8.43384 3.94059 9.21137 3.52499 10.0578 3.35662C10.9043 3.18825 11.7817 3.27466 12.579 3.60494C13.3764 3.93521 14.0579 4.49451 14.5374 5.2121C15.0168 5.9297 15.2728 6.77337 15.2728 7.63641C15.2728 8.79372 14.813 9.90363 13.9947 10.722C13.1763 11.5403 12.0664 12 10.9091 12Z" fill={value === 2 ? "#E23636" : "#404040"}/>
</g>
<defs>
<clipPath id="clip0_1114_1144">
<rect width="21.8182" height="24" fill="white"/>
</clipPath>
</defs>
</svg>
