<svg width="48" height="49" viewBox="0 0 48 49" fill="none" xmlns="http://www.w3.org/2000/svg">
<g clip-path="url(#clip0_3046_5583)">
<path d="M-3.8147e-06 6.16129C0.0854988 5.22122 1.18898 4.03831 1.48271 3.73923C1.36804 3.46069 1.13675 2.87411 1.35403 2.75984C1.35403 2.75984 1.65074 2.7822 2.0521 3.17679C2.07322 3.15805 2.0933 3.13656 2.11644 3.11871C2.01686 2.86695 1.91937 2.48667 2.08132 2.17332C2.08132 2.17332 2.4152 2.03401 2.77129 2.60269C2.78035 2.59644 2.79048 2.58935 2.79953 2.5822C2.67279 2.22153 2.49868 1.56536 2.89199 1.51269C2.89199 1.51269 3.4523 1.58231 3.75608 2.05725C3.7762 2.04743 3.79638 2.04035 3.8165 2.03143C3.75614 1.67343 3.70277 1.04493 4.08099 1.08778C4.08099 1.08778 4.69871 1.11358 4.84758 1.75189C4.85462 1.751 4.86259 1.75106 4.87165 1.74928C4.87567 1.40646 4.94511 0.690431 5.45209 0.881481C5.50943 0.9038 5.55775 0.920747 5.59698 0.933246C5.771 1.05823 6.01243 1.31981 5.8535 1.73762C5.85852 1.73851 5.86553 1.73856 5.87056 1.74034C6.11299 1.34753 6.66125 0.594953 6.99018 1.13061C6.99018 1.13061 7.0807 1.47432 6.77591 1.95819C6.79301 1.96533 6.80901 1.97332 6.82711 1.97868C7.16711 1.69389 7.9287 1.14663 8.19526 1.71353C8.19526 1.71353 8.152 2.20638 7.72951 2.47421C12.0781 5.30603 15.6279 11.9963 15.6279 11.9963C23.4609 19.766 31.9166 19.2374 31.9166 19.2374C33.6357 19.6187 42.9525 15.6611 42.9525 15.6611C48.1068 13.7551 46.5879 17.3331 46.5879 17.3331C49.0976 17.2742 47.1814 18.8571 47.1814 18.8571C49.6911 20.7631 45.6292 22.2889 45.6292 22.2889C48.3713 21.9942 46.2227 24.3395 46.2227 24.3395C49.3622 24.8689 45.5287 26.217 45.5287 26.217C46.4551 27.6258 41.3993 28.9453 41.3993 28.9453C41.6629 28.5918 37.8978 31.0548 37.8978 31.0548C35.1215 35.9819 30.6291 37.272 30.6291 37.272C30.3072 38.1434 29.9551 38.7281 29.6101 39.1182C29.4632 40.4101 29.2782 42.9463 29.922 43.9373C29.922 43.9373 30.0356 44.4899 32.0414 43.9739C32.0414 43.9739 32.3713 44.3569 29.946 44.9917C29.946 44.9917 28.0257 46.371 27.2129 48.3448C27.2129 48.3448 27.2371 49.5706 26.4736 48.202C26.4736 48.202 27.8306 45.804 28.1797 45.4728C27.7381 45.7496 24.9538 47.4431 22.3303 47.894C22.3303 47.894 21.7821 48.0252 22.1854 47.5984C22.1854 47.5984 27.6445 46.1665 27.6727 43.8641C27.6727 43.8641 28.2068 41.3358 27.6374 39.7261C24.6066 38.387 22.6311 38.7959 22.6311 38.7959C22.3836 39.1771 22.0456 39.4414 21.6775 39.6217C21.6775 39.6217 19.1627 43.2811 19.3618 44.8363C19.3618 44.8363 19.217 45.3836 21.2882 45.6184C21.2882 45.6184 21.4189 46.0871 18.9081 45.8139C18.9081 45.8139 16.5292 46.4004 14.8996 47.9253C14.8996 47.9253 14.3705 49.0582 14.285 47.5351C14.285 47.5351 16.6126 45.805 17.0753 45.6327C16.5553 45.7291 13.2339 46.3022 10.6215 45.7897C10.6215 45.7897 10.0602 45.7156 10.6215 45.4683C10.6215 45.4683 16.2717 46.0781 17.3279 43.9765C17.3279 43.9765 19.0973 41.6563 19.1677 39.9538C13.4934 36.9434 7.30097 26.3063 7.30097 26.3063C5.31831 22.4933 5.71658 18.5054 5.71658 18.5054C5.34641 11.766 4.17765 9.09847 3.72097 8.29499C3.6757 8.29856 3.63033 8.30207 3.58405 8.30207C2.555 8.30207 1.71811 7.59944 1.71811 6.73168C1.71811 6.31745 1.91232 5.94162 2.22315 5.66129C1.53209 5.39347 -3.8147e-06 6.16129 -3.8147e-06 6.16129Z" fill="#C9AC1D"/>
</g>
<defs>
<clipPath id="clip0_3046_5583">
<rect width="48" height="48" fill="white" transform="translate(0 0.849609)"/>
</clipPath>
</defs>
</svg>
