<svg width="48" height="49" viewBox="0 0 48 49" fill="none" xmlns="http://www.w3.org/2000/svg">
<g clip-path="url(#clip0_3046_6582)">
<path d="M42.8073 13.2082C38.6684 16.4881 33.1113 16.8521 31.0495 16.8521C30.6873 16.8521 26.184 16.8521 26.184 16.8521C26.184 9.52825 23.6007 3.25235 22.2349 0.956392L18.4036 2.87236C19.1324 4.09434 20.7382 7.68828 21.456 12.3362C19.9462 10.1282 18.0655 7.94828 16.2458 6.05031C6.80073 9.00626 0 17.1901 0 26.85C0 38.9998 10.7455 48.8496 24 48.8496C37.2545 48.8496 48 38.9998 48 26.85C48 21.6921 46.0495 16.9601 42.8073 13.2082ZM27.2727 30.8499C25.4662 30.8499 24 29.5059 24 27.85C24 26.194 25.4662 24.85 27.2727 24.85C29.0793 24.85 30.5455 26.194 30.5455 27.85C30.5455 29.5059 29.0793 30.8499 27.2727 30.8499ZM33.8182 38.8498C32.0116 38.8498 30.5455 37.5058 30.5455 35.8498C30.5455 34.1938 32.0116 32.8499 33.8182 32.8499C35.6247 32.8499 37.0909 34.1938 37.0909 35.8498C37.0909 37.5058 35.6247 38.8498 33.8182 38.8498ZM38.1818 30.8499C36.3753 30.8499 34.9091 29.5059 34.9091 27.85C34.9091 26.194 36.3753 24.85 38.1818 24.85C39.9884 24.85 41.4545 26.194 41.4545 27.85C41.4545 29.5059 39.9884 30.8499 38.1818 30.8499ZM30.5542 12.8422C30.5542 12.8422 30.2095 7.12029 33.8487 3.78435C37.488 0.4484 43.6189 0.866393 43.6189 0.866393C43.6189 0.866393 44.0749 6.4863 40.4356 9.82225C36.7964 13.1582 30.5542 12.8422 30.5542 12.8422Z" fill="#C9AC1D"/>
</g>
<defs>
<clipPath id="clip0_3046_6582">
<rect width="48" height="48" fill="white" transform="translate(0 0.849609)"/>
</clipPath>
</defs>
</svg>
