<svg width="48" height="49" viewBox="0 0 48 49" fill="none" xmlns="http://www.w3.org/2000/svg">
<g clip-path="url(#clip0_3046_320)">
<path d="M20 0.849609C14.6975 0.855432 9.61376 2.96426 5.8643 6.7134C2.11483 10.4626 0.00582319 15.5458 0 20.8479C0 31.501 8.412 40.8462 18 40.8462C19.455 40.7514 20.9104 41.0245 22.232 41.6403C23.5536 42.2561 24.6988 43.1949 25.562 44.3699C26.6726 45.8052 28.1059 46.9585 29.7458 47.7362C31.3856 48.5138 33.1857 48.8939 35 48.8455C38.4465 48.8413 41.7507 47.4704 44.1877 45.0335C46.6248 42.5967 47.9958 39.2928 48 35.8466C48 24.0236 39.544 0.849609 20 0.849609ZM8 20.8479C8.00077 18.1621 8.90767 15.5551 10.574 13.4485L12.6 11.4227C14.7067 9.75652 17.3139 8.8497 20 8.84893C20.264 8.84893 20.504 8.90092 20.762 8.91492L8.04 21.6358C8.024 21.3739 8 21.1179 8 20.8479ZM9.384 26.6354L25.878 10.1428C27.1391 10.7018 28.3228 11.421 29.4 12.2826L11.782 29.8931C10.8105 28.9451 10.0005 27.8447 9.384 26.6354ZM20.664 33.0109C19.7803 32.9007 18.8906 32.846 18 32.8469C17.1895 32.8322 16.3876 32.6772 15.63 32.3889L32.568 15.4484C33.4141 16.5106 34.1821 17.6328 34.866 18.8061L20.664 33.0109ZM25.596 34.4227L36.996 23.0237C37.5702 24.3806 38.0716 25.7671 38.498 27.1774L29.052 36.6226C28.0034 35.7402 26.8427 35.0005 25.6 34.4227H25.596ZM39.276 38.3984L37.552 40.1223C36.7832 40.5917 35.9008 40.842 35 40.8462C34.4872 40.9159 33.9651 40.8545 33.4824 40.6678C32.9997 40.481 32.5723 40.175 32.24 39.7783L39.69 32.3289C39.8807 33.4921 39.9843 34.668 40 35.8466C39.9958 36.7473 39.7455 37.6297 39.276 38.3984Z" fill="#9C8616"/>
</g>
<defs>
<clipPath id="clip0_3046_320">
<rect width="48" height="48" fill="white" transform="translate(0 0.849609)"/>
</clipPath>
</defs>
</svg>
