<svg width="48" height="49" viewBox="0 0 48 49" fill="none" xmlns="http://www.w3.org/2000/svg">
<path d="M0.293341 16.9277C3.64205 11.3627 8.48801 6.51741 14.4533 2.76972C16.4315 1.56177 18.8089 0.892197 21.2608 0.852463C23.7127 0.812729 26.1196 1.40477 28.1525 2.54772L51.1469 16.8497H1.56534C1.13974 16.8524 0.714821 16.8784 0.293341 16.9277ZM52.7501 20.8497V48.8497H31.1501C31.1501 47.2584 30.3916 45.7323 29.0413 44.6071C27.6911 43.4819 25.8597 42.8497 23.9501 42.8497C22.0406 42.8497 20.2092 43.4819 18.859 44.6071C17.5087 45.7323 16.7501 47.2584 16.7501 48.8497H6.74934C-6.11946 48.6937 -6.40506 30.5337 -2.72826 23.1117C-2.34341 22.4343 -1.73547 21.8621 -0.975292 21.4616C-0.215114 21.0611 0.665993 20.8489 1.56534 20.8497H52.7501ZM16.7501 30.8497C16.7501 29.7889 16.2444 28.7714 15.3443 28.0213C14.4441 27.2712 13.2232 26.8497 11.9501 26.8497C10.6771 26.8497 9.4562 27.2712 8.55603 28.0213C7.65586 28.7714 7.15014 29.7889 7.15014 30.8497C7.15014 31.9106 7.65586 32.928 8.55603 33.6782C9.4562 34.4283 10.6771 34.8497 11.9501 34.8497C13.2232 34.8497 14.4441 34.4283 15.3443 33.6782C16.2444 32.928 16.7501 31.9106 16.7501 30.8497ZM43.1502 36.8497C43.1502 35.7889 42.6444 34.7714 41.7443 34.0213C40.8441 33.2712 39.6232 32.8497 38.3501 32.8497C37.0771 32.8497 35.8562 33.2712 34.956 34.0213C34.0559 34.7714 33.5501 35.7889 33.5501 36.8497C33.5501 37.9106 34.0559 38.928 34.956 39.6782C35.8562 40.4283 37.0771 40.8497 38.3501 40.8497C39.6232 40.8497 40.8441 40.4283 41.7443 39.6782C42.6444 38.928 43.1502 37.9106 43.1502 36.8497Z" fill="#C9AC1D"/>
</svg>
