<svg width="48" height="49" viewBox="0 0 48 49" fill="none" xmlns="http://www.w3.org/2000/svg">
<g clip-path="url(#clip0_3046_6781)">
<path d="M43.664 23.7396C41.78 20.9136 40 18.2496 40 14.8496V10.8496H42V6.84961H40C40 5.25831 39.3679 3.73219 38.2426 2.60697C37.1174 1.48175 35.5913 0.849609 34 0.849609L30 0.849609C28.4087 0.849609 26.8826 1.48175 25.7574 2.60697C24.6321 3.73219 24 5.25831 24 6.84961H22V10.8496H24V14.8496C24 18.2496 22.22 20.9136 20.336 23.7396C17.7779 26.9063 16.2632 30.7873 16 34.8496C16 40.7476 20.116 47.5976 20.29 47.8876L20.874 48.8496H43.124L43.708 47.8876C43.884 47.5976 48 40.7476 48 34.8496C47.7377 30.7871 46.2229 26.9058 43.664 23.7396ZM28 14.8496V10.8496H36V14.8496C36.1638 18.4698 37.4187 21.9557 39.6 24.8496H24.4C26.5804 21.9553 27.8352 18.4696 28 14.8496ZM32 36.8496C31.6044 36.8496 31.2178 36.7323 30.8889 36.5126C30.56 36.2928 30.3036 35.9804 30.1522 35.615C30.0009 35.2495 29.9613 34.8474 30.0384 34.4594C30.1156 34.0715 30.3061 33.7151 30.5858 33.4354C30.8655 33.1557 31.2219 32.9652 31.6098 32.888C31.9978 32.8109 32.3999 32.8505 32.7654 33.0019C33.1308 33.1532 33.4432 33.4096 33.6629 33.7385C33.8827 34.0674 34 34.454 34 34.8496C34 35.38 33.7893 35.8888 33.4142 36.2638C33.0391 36.6389 32.5304 36.8496 32 36.8496ZM36 42.8496C35.6044 42.8496 35.2178 42.7323 34.8889 42.5126C34.56 42.2928 34.3036 41.9804 34.1522 41.615C34.0009 41.2495 33.9613 40.8474 34.0384 40.4594C34.1156 40.0715 34.3061 39.7151 34.5858 39.4354C34.8655 39.1557 35.2219 38.9652 35.6098 38.888C35.9978 38.8109 36.3999 38.8505 36.7654 39.0019C37.1308 39.1532 37.4432 39.4096 37.6629 39.7385C37.8827 40.0674 38 40.454 38 40.8496C38 41.38 37.7893 41.8888 37.4142 42.2638C37.0391 42.6389 36.5304 42.8496 36 42.8496ZM40 36.8496C39.6044 36.8496 39.2178 36.7323 38.8889 36.5126C38.56 36.2928 38.3036 35.9804 38.1522 35.615C38.0009 35.2495 37.9613 34.8474 38.0384 34.4594C38.1156 34.0715 38.3061 33.7151 38.5858 33.4354C38.8655 33.1557 39.2219 32.9652 39.6098 32.888C39.9978 32.8109 40.3999 32.8505 40.7654 33.0019C41.1308 33.1532 41.4432 33.4096 41.6629 33.7385C41.8827 34.0674 42 34.454 42 34.8496C42 35.38 41.7893 35.8888 41.4142 36.2638C41.0391 36.6389 40.5304 36.8496 40 36.8496ZM16.236 48.8496H4.874L4.29 47.8876C4.116 47.5976 0 40.7476 0 34.8496C0.263233 30.7873 1.77794 26.9063 4.336 23.7396C6.22 20.9136 8 18.2496 8 14.8496V10.8496H6V6.84961H8C8 5.25831 8.63214 3.73219 9.75736 2.60697C10.8826 1.48175 12.4087 0.849609 14 0.849609L18 0.849609C18.6123 0.857363 19.2196 0.960604 19.8 1.15561C18.6302 2.82408 18.0018 4.81192 18 6.84961V10.8496H12V14.8496C11.8352 18.4696 10.5804 21.9553 8.4 24.8496H14.912C13.0572 27.8593 12.051 31.3147 12 34.8496C12.3272 39.778 13.776 44.5665 16.236 48.8496Z" fill="#C9AC1D"/>
</g>
<defs>
<clipPath id="clip0_3046_6781">
<rect width="48" height="48" fill="white" transform="translate(0 0.849609)"/>
</clipPath>
</defs>
</svg>
