<svg width="16" height="16" viewBox="0 0 16 16" fill="none" xmlns="http://www.w3.org/2000/svg">
<path d="M14.6669 9.14334H4.54685L8.94685 12.9033C9.19793 13.1185 9.33898 13.4104 9.33898 13.7148C9.33898 14.0191 9.19793 14.311 8.94685 14.5262C8.69578 14.7414 8.35526 14.8623 8.00019 14.8623C7.64512 14.8623 7.30459 14.7414 7.05352 14.5262L0.386854 8.81191C0.265467 8.70322 0.170313 8.57506 0.106854 8.43477C-0.0265034 8.15653 -0.0265034 7.84444 0.106854 7.5662C0.170313 7.42591 0.265467 7.29775 0.386854 7.18906L7.05352 1.47477C7.17747 1.36766 7.32494 1.28263 7.48742 1.22461C7.6499 1.16659 7.82417 1.13672 8.00019 1.13672C8.1762 1.13672 8.35048 1.16659 8.51296 1.22461C8.67544 1.28263 8.8229 1.36766 8.94685 1.47477C9.07183 1.58102 9.17102 1.70742 9.23871 1.84668C9.3064 1.98595 9.34125 2.13533 9.34125 2.2862C9.34125 2.43707 9.3064 2.58645 9.23871 2.72572C9.17102 2.86499 9.07183 2.99139 8.94685 3.09763L4.54685 6.85763H14.6669C15.0205 6.85763 15.3596 6.97804 15.6097 7.19236C15.8597 7.40669 16.0002 7.69738 16.0002 8.00049C16.0002 8.30359 15.8597 8.59428 15.6097 8.80861C15.3596 9.02293 15.0205 9.14334 14.6669 9.14334Z" fill="#E23636"/>
</svg>
