<svg width="16" height="14" viewBox="0 0 16 14" fill="none" xmlns="http://www.w3.org/2000/svg">
<path d="M1.33315 8.14334H11.4531L7.05315 11.9033C6.80207 12.1185 6.66102 12.4104 6.66102 12.7148C6.66102 13.0191 6.80207 13.311 7.05315 13.5262C7.30422 13.7414 7.64474 13.8623 7.99981 13.8623C8.35488 13.8623 8.69541 13.7414 8.94648 13.5262L15.6131 7.81191C15.7345 7.70322 15.8297 7.57506 15.8931 7.43477C16.0265 7.15653 16.0265 6.84444 15.8931 6.5662C15.8297 6.42591 15.7345 6.29775 15.6131 6.18906L8.94648 0.474773C8.82253 0.367656 8.67506 0.282632 8.51258 0.22461C8.3501 0.166589 8.17583 0.136718 7.99981 0.136718C7.8238 0.136718 7.64952 0.166589 7.48704 0.22461C7.32456 0.282632 7.1771 0.367656 7.05315 0.474773C6.92817 0.581017 6.82898 0.707417 6.76129 0.846684C6.6936 0.985952 6.65875 1.13533 6.65875 1.2862C6.65875 1.43707 6.6936 1.58645 6.76129 1.72572C6.82898 1.86499 6.92817 1.99139 7.05315 2.09763L11.4531 5.85763H1.33315C0.979524 5.85763 0.640385 5.97804 0.390336 6.19236C0.140287 6.40669 -0.00018692 6.69738 -0.00018692 7.00049C-0.00018692 7.30359 0.140287 7.59428 0.390336 7.80861C0.640385 8.02293 0.979524 8.14334 1.33315 8.14334Z" fill="#E23636"/>
</svg>
