<svg width="18" height="5" viewBox="0 0 18 5" fill="none" xmlns="http://www.w3.org/2000/svg">
<g clip-path="url(#clip0_2753_5450)">
<path d="M9 0.949219C8.60444 0.949219 8.21776 1.06652 7.88886 1.28628C7.55996 1.50604 7.30362 1.8184 7.15224 2.18385C7.00087 2.5493 6.96126 2.95144 7.03843 3.3394C7.1156 3.72736 7.30608 4.08373 7.58579 4.36343C7.86549 4.64314 8.22186 4.83362 8.60982 4.91079C8.99778 4.98796 9.39992 4.94835 9.76537 4.79698C10.1308 4.6456 10.4432 4.38926 10.6629 4.06036C10.8827 3.73146 11 3.34478 11 2.94922C11 2.41879 10.7893 1.91008 10.4142 1.53501C10.0391 1.15993 9.53043 0.949219 9 0.949219ZM2 0.949219C1.60444 0.949219 1.21776 1.06652 0.88886 1.28628C0.559962 1.50604 0.303617 1.8184 0.152242 2.18385C0.000866562 2.5493 -0.0387401 2.95144 0.0384303 3.3394C0.115601 3.72736 0.306082 4.08373 0.585787 4.36343C0.865492 4.64314 1.22186 4.83362 1.60982 4.91079C1.99778 4.98796 2.39992 4.94835 2.76537 4.79698C3.13082 4.6456 3.44318 4.38926 3.66294 4.06036C3.8827 3.73146 4 3.34478 4 2.94922C4 2.41879 3.78929 1.91008 3.41421 1.53501C3.03914 1.15993 2.53043 0.949219 2 0.949219ZM16 0.949219C15.6044 0.949219 15.2178 1.06652 14.8889 1.28628C14.56 1.50604 14.3036 1.8184 14.1522 2.18385C14.0009 2.5493 13.9613 2.95144 14.0384 3.3394C14.1156 3.72736 14.3061 4.08373 14.5858 4.36343C14.8655 4.64314 15.2219 4.83362 15.6098 4.91079C15.9978 4.98796 16.3999 4.94835 16.7654 4.79698C17.1308 4.6456 17.4432 4.38926 17.6629 4.06036C17.8827 3.73146 18 3.34478 18 2.94922C18 2.41879 17.7893 1.91008 17.4142 1.53501C17.0391 1.15993 16.5304 0.949219 16 0.949219Z" fill="#404040"/>
</g>
<defs>
<clipPath id="clip0_2753_5450">
<rect width="18" height="4" fill="white" transform="translate(0 0.949219)"/>
</clipPath>
</defs>
</svg>
