<svg width="21" height="22" viewBox="0 0 21 22" fill="none" xmlns="http://www.w3.org/2000/svg">
<g clip-path="url(#clip0_2753_5453)">
<path d="M16.9987 13.4503C16.4079 13.4542 15.8252 13.589 15.2927 13.8449C14.7601 14.1008 14.2909 14.4715 13.9187 14.9303L8.81869 12.5803C9.05847 11.8461 9.05847 11.0546 8.81869 10.3203L13.9187 7.97031C14.5203 8.69628 15.359 9.18639 16.2868 9.35415C17.2146 9.52191 18.1719 9.35654 18.9896 8.88721C19.8074 8.41789 20.4331 7.67479 20.7562 6.78905C21.0794 5.90332 21.0793 4.93189 20.756 4.04622C20.4326 3.16054 19.8068 2.41755 18.989 1.94838C18.1712 1.4792 17.2139 1.314 16.2861 1.48193C15.3583 1.64986 14.5197 2.14013 13.9182 2.8662C13.3167 3.59228 12.9911 4.50749 12.9987 5.45031C13.0017 5.68854 13.0251 5.92608 13.0687 6.16031L7.78869 8.59031C7.22576 8.03989 6.51293 7.66783 5.73949 7.52074C4.96605 7.37365 4.1664 7.45808 3.44074 7.76344C2.71507 8.06881 2.09565 8.58153 1.66009 9.23737C1.22452 9.89321 0.992187 10.663 0.992188 11.4503C0.992187 12.2376 1.22452 13.0074 1.66009 13.6632C2.09565 14.3191 2.71507 14.8318 3.44074 15.1372C4.1664 15.4425 4.96605 15.527 5.73949 15.3799C6.51293 15.2328 7.22576 14.8607 7.78869 14.3103L13.0687 16.7403C13.0251 16.9745 13.0017 17.2121 12.9987 17.4503C12.9987 18.2414 13.2333 19.0148 13.6728 19.6726C14.1123 20.3304 14.737 20.8431 15.468 21.1458C16.1989 21.4486 17.0031 21.5278 17.779 21.3735C18.555 21.2191 19.2677 20.8381 19.8271 20.2787C20.3865 19.7193 20.7675 19.0066 20.9218 18.2307C21.0762 17.4547 20.997 16.6505 20.6942 15.9196C20.3915 15.1887 19.8788 14.564 19.221 14.1244C18.5632 13.6849 17.7898 13.4503 16.9987 13.4503ZM16.9987 3.45031C17.3942 3.45031 17.7809 3.56761 18.1098 3.78737C18.4387 4.00713 18.6951 4.31949 18.8464 4.68494C18.9978 5.0504 19.0374 5.45253 18.9603 5.84049C18.8831 6.22845 18.6926 6.58482 18.4129 6.86452C18.1332 7.14423 17.7768 7.33471 17.3889 7.41188C17.0009 7.48905 16.5988 7.44944 16.2333 7.29807C15.8679 7.14669 15.5555 6.89035 15.3357 6.56145C15.116 6.23255 14.9987 5.84587 14.9987 5.45031C14.9987 4.91988 15.2094 4.41117 15.5845 4.0361C15.9595 3.66102 16.4683 3.45031 16.9987 3.45031ZM4.99869 13.4503C4.60312 13.4503 4.21644 13.333 3.88755 13.1132C3.55865 12.8935 3.3023 12.5811 3.15093 12.2157C2.99955 11.8502 2.95994 11.4481 3.03711 11.0601C3.11428 10.6722 3.30477 10.3158 3.58447 10.0361C3.86418 9.75639 4.22054 9.56591 4.6085 9.48874C4.99647 9.41157 5.3986 9.45118 5.76405 9.60255C6.1295 9.75393 6.44186 10.0103 6.66162 10.3392C6.88139 10.6681 6.99869 11.0547 6.99869 11.4503C6.99869 11.9807 6.78797 12.4895 6.4129 12.8645C6.03783 13.2396 5.52912 13.4503 4.99869 13.4503ZM16.9987 19.4503C16.6031 19.4503 16.2164 19.333 15.8875 19.1132C15.5586 18.8935 15.3023 18.5811 15.1509 18.2157C14.9996 17.8502 14.9599 17.4481 15.0371 17.0601C15.1143 16.6722 15.3048 16.3158 15.5845 16.0361C15.8642 15.7564 16.2205 15.5659 16.6085 15.4887C16.9965 15.4116 17.3986 15.4512 17.7641 15.6026C18.1295 15.7539 18.4419 16.0103 18.6616 16.3392C18.8814 16.6681 18.9987 17.0547 18.9987 17.4503C18.9987 17.9807 18.788 18.4895 18.4129 18.8645C18.0378 19.2396 17.5291 19.4503 16.9987 19.4503Z" fill="#404040"/>
</g>
<defs>
<clipPath id="clip0_2753_5453">
<rect width="21" height="21" fill="white" transform="translate(0 0.449219)"/>
</clipPath>
</defs>
</svg>
