<svg width="27" height="19" viewBox="0 0 27 19" fill="none" xmlns="http://www.w3.org/2000/svg">
<path d="M25.2 18.75H1.8C1.32261 18.75 0.864773 18.5604 0.527208 18.2228C0.189642 17.8852 0 17.4274 0 16.95L0 2.55C0 2.07261 0.189642 1.61477 0.527208 1.27721C0.864773 0.939642 1.32261 0.75 1.8 0.75L25.2 0.75C25.6774 0.75 26.1352 0.939642 26.4728 1.27721C26.8104 1.61477 27 2.07261 27 2.55V16.95C27 17.4274 26.8104 17.8852 26.4728 18.2228C26.1352 18.5604 25.6774 18.75 25.2 18.75ZM20.8455 13.4175C20.8451 13.4175 20.8447 13.4178 20.8447 13.4183V13.8624C20.8447 14.0846 21.009 14.2755 21.2312 14.2762C21.2344 14.2762 21.2376 14.2762 21.2407 14.2762H21.2528C22.2983 14.2762 22.794 13.8698 23.2215 12.666L24.866 8.05434C24.9835 7.72491 24.7392 7.3785 24.3895 7.3785C24.1677 7.3785 23.9718 7.52294 23.9062 7.7348L22.7553 11.4523C22.7533 11.4586 22.7474 11.463 22.7407 11.463C22.7341 11.463 22.7282 11.4586 22.7262 11.4523L21.5782 7.74403C21.5109 7.52669 21.3099 7.3785 21.0824 7.3785C20.7226 7.3785 20.472 7.73555 20.5942 8.07387L22.0727 12.1667C22.1304 12.3266 22.1338 12.5011 22.0822 12.6631C22.0702 12.7005 22.0618 12.7389 22.0531 12.7772C22.0099 12.9659 21.9038 13.135 21.7513 13.2561C21.5833 13.3895 21.3714 13.4548 21.1575 13.4393H21.1605C21.0553 13.4348 20.9503 13.4275 20.8455 13.4175ZM4.28475 6.78975C4.28475 6.79016 4.28441 6.7905 4.284 6.7905H4.26525C3.94953 6.79925 3.64144 6.88957 3.37097 7.05267C3.10049 7.21577 2.87683 7.4461 2.72175 7.72125L2.71725 7.73025C2.08425 8.81925 2.487 10.4857 3.1875 11.5005C3.516 11.9805 3.876 12.45 4.35075 12.45H4.37625C4.575 12.4373 4.75875 12.3855 4.9245 12.3022L4.91625 12.306C5.1165 12.2055 5.352 12.1463 5.601 12.144C5.84175 12.1455 6.06975 12.204 6.27 12.306L6.26175 12.3022C6.423 12.3862 6.61275 12.4373 6.8145 12.4417H6.83625C7.365 12.432 7.6965 11.9467 7.98975 11.5192C8.199 11.2163 8.37225 10.8675 8.49375 10.4948L8.50163 10.4675C8.50187 10.4667 8.502 10.4658 8.502 10.4649C8.502 10.4612 8.4998 10.4578 8.49637 10.4562L8.4885 10.4528C8.1957 10.3215 7.94682 10.1089 7.77155 9.84011C7.59628 9.57135 7.50201 9.25785 7.5 8.937V8.93625C7.50245 8.65289 7.57623 8.37471 7.71451 8.12737C7.8528 7.88003 8.05114 7.67149 8.29125 7.521L8.298 7.51725C8.30542 7.5123 8.30736 7.50223 8.30223 7.49493C8.14933 7.27747 7.94819 7.09822 7.71446 6.97126C7.47597 6.84172 7.21029 6.77028 6.939 6.76275H6.85725C6.53547 6.77829 6.21981 6.8565 5.928 6.993L5.94375 6.98625C5.80582 7.05218 5.65819 7.09548 5.5065 7.1145C5.50201 7.115 5.49748 7.11501 5.493 7.11449C5.33222 7.0961 5.17573 7.05046 5.03025 6.9795L5.0385 6.98325C4.80403 6.87111 4.55016 6.80516 4.29075 6.789H4.2855C4.28509 6.789 4.28475 6.78934 4.28475 6.78975ZM17.87 8.15147C17.8698 8.15194 17.8701 8.1525 17.8707 8.1525C18.5299 8.15286 18.894 8.46183 18.894 9.02175C18.894 9.23615 18.7269 9.41341 18.5129 9.42612L17.5545 9.483C16.2983 9.55875 15.6345 10.068 15.6345 10.9552C15.6367 11.1687 15.6839 11.3793 15.7731 11.5733C15.8623 11.7672 15.9915 11.9401 16.1521 12.0807C16.3128 12.2213 16.5013 12.3264 16.7053 12.3892C16.9094 12.4519 17.1244 12.4708 17.3363 12.4447L17.3288 12.4455L17.3775 12.4462C18.0292 12.4462 18.5993 12.0953 18.9083 11.571L18.9087 11.5701C18.9112 11.5656 18.916 11.5627 18.9211 11.5627C18.9289 11.5627 18.9352 11.5691 18.9352 11.5769V11.976C18.9352 12.2042 19.1203 12.3892 19.3485 12.3892H19.4321C19.7065 12.3892 19.929 12.1668 19.929 11.8924V8.94975C19.929 7.95225 19.1332 7.30875 17.9017 7.30875C17.0081 7.30875 16.2948 7.71194 16.0149 8.32054C15.8886 8.59532 16.1394 8.856 16.4418 8.856C16.6853 8.856 16.8866 8.67805 17.0415 8.49013C17.0966 8.42317 17.1611 8.36362 17.2336 8.31355C17.4209 8.18417 17.6485 8.12672 17.8748 8.15175L17.8708 8.15109C17.8705 8.15104 17.8702 8.15119 17.87 8.15147ZM13.0928 5.478C12.5417 5.478 12.2662 5.478 12.0386 5.53194C11.3029 5.70637 10.7284 6.28086 10.5539 7.01665C10.5 7.24417 10.5 7.5197 10.5 8.07075V11.8534C10.5 12.1497 10.7403 12.39 11.0366 12.39C11.333 12.39 11.5732 12.1497 11.5732 11.8534V11.208C11.5732 10.5552 12.1024 10.026 12.7552 10.026H13.056C13.3615 10.0421 13.667 9.99429 13.9529 9.88555C14.2389 9.77681 14.499 9.60957 14.7166 9.39452C14.9341 9.17948 15.1044 8.92137 15.2165 8.63673C15.3286 8.35208 15.38 8.04716 15.3675 7.7415V7.746C15.3808 7.44359 15.3309 7.14174 15.2208 6.85974C15.1108 6.57775 14.9431 6.32183 14.7285 6.10835C14.5139 5.89488 14.2571 5.72855 13.9745 5.62C13.6919 5.51146 13.3898 5.46309 13.0875 5.478H13.0928ZM6.9401 4.94965C6.93987 4.94988 6.93958 4.95002 6.93926 4.95005C6.51079 4.99117 6.11445 5.19518 5.832 5.52C5.831 5.5215 5.8299 5.52292 5.8287 5.52427C5.68868 5.68101 5.58145 5.86421 5.51332 6.06306C5.44491 6.26276 5.41734 6.47418 5.43225 6.68475C5.43225 6.68226 5.43426 6.68025 5.43675 6.68028C5.46093 6.68059 5.48651 6.68325 5.51475 6.68325C5.71459 6.6724 5.90991 6.61957 6.08798 6.52821C6.26605 6.43685 6.42288 6.309 6.54825 6.153L6.5505 6.15C6.83369 5.81474 6.97376 5.3816 6.9405 4.944V4.94868C6.9405 4.94905 6.94036 4.94939 6.9401 4.94965ZM17.6115 11.625C17.612 11.6251 17.6119 11.6257 17.6114 11.6257C17.0459 11.624 16.68 11.3507 16.68 10.929C16.68 10.4925 17.0325 10.2413 17.7 10.2015L18.5025 10.151C18.7138 10.1377 18.8925 10.3055 18.8925 10.5173C18.8859 10.6758 18.8469 10.8312 18.7779 10.9741C18.7089 11.117 18.6114 11.2442 18.4914 11.348C18.3714 11.4518 18.2314 11.5299 18.0801 11.5775C17.9288 11.6251 17.7693 11.6413 17.6115 11.625ZM12.7958 9.12675C12.7966 9.12693 12.7965 9.12825 12.7956 9.12825H11.6814C11.62 9.12825 11.5702 9.07851 11.5702 9.01715V7.62C11.5702 6.93655 12.1243 6.3825 12.8077 6.3825C12.9983 6.3564 13.1924 6.37321 13.3756 6.4317C13.5589 6.49019 13.7268 6.58889 13.867 6.72057C14.0073 6.85226 14.1163 7.01361 14.1862 7.19283C14.2561 7.37206 14.2851 7.56464 14.271 7.7565V7.752C14.2847 7.94487 14.255 8.13835 14.1842 8.31827C14.1134 8.49819 14.0032 8.65998 13.8618 8.7918C13.7203 8.92362 13.5512 9.02211 13.3667 9.08007C13.1823 9.13803 12.9872 9.15398 12.7958 9.12675Z" fill="#404040"/>
</svg>
