<svg width="29" height="19" viewBox="0 0 29 19" fill="none" xmlns="http://www.w3.org/2000/svg">
<rect x="0.5" y="0.75" width="28" height="18" rx="2" fill="#F2F2F2"/>
<path d="M12.6522 10.3649H2.5V13.747H12.6522V10.3649Z" fill="#84B740"/>
<path d="M12.6522 5.75H2.5V9.13507H12.6522V5.75Z" fill="#259BD6"/>
<path d="M22.8045 13.0597L22.7592 13.0688C22.6025 13.0989 22.5452 13.111 22.4307 13.111C22.1654 13.111 21.8519 12.9753 21.8519 12.3363C21.8519 12.0077 21.9061 11.5707 22.4005 11.5707H22.4035C22.4879 11.5767 22.5844 11.5857 22.7652 11.64L22.8044 11.652L22.8045 13.0597ZM22.8859 9.87358L22.8045 9.88868V11.0703L22.7322 11.0492L22.711 11.0431C22.6296 11.019 22.4428 10.9648 22.2619 10.9648C21.2732 10.9648 21.0652 11.7124 21.0652 12.3393C21.0652 13.1984 21.5475 13.6927 22.3885 13.6927C22.7442 13.6927 23.0064 13.6566 23.2717 13.5692C23.5159 13.4908 23.6033 13.3792 23.6033 13.1411V9.75001C23.3682 9.7922 23.124 9.83438 22.8859 9.87358Z" fill="#27292D"/>
<path d="M25.7435 13.0808L25.7013 13.0929L25.5506 13.1321C25.4089 13.1683 25.2823 13.1894 25.1858 13.1894C24.9537 13.1894 24.815 13.0748 24.815 12.8789C24.815 12.7523 24.8723 12.5383 25.2521 12.5383H25.7434V13.0808H25.7435ZM25.3968 10.9497C25.0924 10.9497 24.7789 11.0039 24.39 11.1245L24.1368 11.1999L24.2212 11.7726L24.4684 11.6912C24.7277 11.6068 25.0502 11.5525 25.2914 11.5525C25.3999 11.5525 25.7315 11.5525 25.7315 11.9112V12.068H25.2703C24.4293 12.068 24.0404 12.3363 24.0404 12.912C24.0404 13.4033 24.3991 13.6987 25.002 13.6987C25.1889 13.6987 25.4481 13.6626 25.6711 13.6083L25.6832 13.6052L25.6953 13.6083L25.7706 13.6203C26.0057 13.6625 26.2499 13.7047 26.488 13.7499V11.8689C26.488 11.2601 26.1203 10.9497 25.3968 10.9497Z" fill="#27292D"/>
<path d="M19.8866 13.0808L19.8444 13.0929L19.6937 13.1321C19.552 13.1683 19.4284 13.1894 19.3289 13.1894C19.0968 13.1894 18.9582 13.0748 18.9582 12.8789C18.9582 12.7523 19.0155 12.5383 19.3923 12.5383H19.8836V13.0808H19.8866ZM19.543 10.9497C19.2355 10.9497 18.9251 11.0039 18.5362 11.1245L18.283 11.1999L18.3673 11.7726L18.6145 11.6912C18.8738 11.6068 19.1963 11.5525 19.4375 11.5525C19.546 11.5525 19.8776 11.5525 19.8776 11.9112V12.068H19.4164C18.5754 12.068 18.1836 12.3363 18.1836 12.912C18.1836 13.4033 18.5423 13.6987 19.1481 13.6987C19.335 13.6987 19.5943 13.6626 19.8173 13.6083L19.8294 13.6052L19.8414 13.6083L19.9137 13.6203C20.1519 13.6625 20.393 13.7047 20.6311 13.753V11.872C20.6342 11.2572 20.2664 10.9497 19.543 10.9497Z" fill="#27292D"/>
<path d="M16.7126 10.9557C16.3297 10.9557 16.0133 11.0823 15.8957 11.1366L15.8656 11.1517L15.8384 11.1305C15.6757 11.013 15.4375 10.9527 15.1059 10.9527C14.8136 10.9527 14.5393 10.9949 14.2408 11.0823C13.9846 11.1606 13.8851 11.2843 13.8851 11.5164V13.6656H14.687V11.6791L14.7262 11.6671C14.8889 11.6128 14.9854 11.6038 15.0789 11.6038C15.311 11.6038 15.4285 11.7273 15.4285 11.9685V13.6686H16.2183V11.9353C16.2183 11.8328 16.1972 11.7726 16.1942 11.7605L16.167 11.7093L16.2213 11.6852C16.3418 11.6309 16.4745 11.6038 16.6131 11.6038C16.7728 11.6038 16.9628 11.6671 16.9628 11.9685V13.6686H17.7495V11.8902C17.7495 11.2601 17.4119 10.9557 16.7126 10.9557Z" fill="#27292D"/>
<path d="M25.1526 7.95646C25.0351 7.95646 24.8391 7.94441 24.6854 7.91427L24.6402 7.90521V6.74467C24.6402 6.64819 24.6221 6.58792 24.6191 6.57886L24.595 6.53064L24.6462 6.50952C24.6583 6.50349 24.6703 6.50045 24.6854 6.49443L24.6945 6.4884C24.7126 6.48238 24.7307 6.47635 24.7487 6.47032C24.7578 6.46728 24.7638 6.4643 24.7699 6.4643C24.9477 6.41608 25.1105 6.42211 25.1828 6.41608H25.1859C25.6772 6.41608 25.7345 6.85315 25.7345 7.18174C25.7314 7.82083 25.4149 7.95646 25.1526 7.95646ZM25.1497 5.75C25.1436 5.75 25.1346 5.75 25.1285 5.75C24.6674 5.75 24.1941 5.87661 24.0253 6.12376C23.9348 6.24435 23.8836 6.39507 23.8806 6.57288V7.76958C23.8806 7.87209 23.8595 7.91123 23.8565 7.9203L23.8293 7.97155H22.3734V7.1396H22.3704C22.3523 6.26243 21.8339 5.78013 21.0833 5.78013H20.3508C20.3207 5.99416 20.2966 6.14488 20.2664 6.35891H20.9959C21.3787 6.35891 21.5807 6.68446 21.5807 7.18483V8.02281L21.5294 7.99566C21.5204 7.99262 21.4571 7.97155 21.3576 7.97155H20.0976C20.0735 8.13129 20.0433 8.33929 20.0102 8.54729H23.8836C24.0162 8.52014 24.1699 8.49603 24.3026 8.47497C24.4985 8.57145 24.8632 8.62265 25.1134 8.62265C25.9544 8.62265 26.5 8.05897 26.5 7.19086C26.497 6.33176 25.9695 5.76808 25.1497 5.75Z" fill="#27292D"/>
<path d="M18.3945 8.89998C19.2356 8.89998 19.6274 8.62265 19.6274 7.93843C19.6274 7.44707 19.2687 7.05523 18.6658 7.05523H17.8912C17.6591 7.05523 17.5204 6.92259 17.5204 6.69955C17.5204 6.54883 17.5777 6.36195 17.9575 6.36195H19.6515C19.6877 6.14189 19.7057 6.00323 19.7389 5.78317H17.9785C17.1586 5.78317 16.7457 6.1268 16.7457 6.69955C16.7457 7.26622 17.1044 7.56163 17.7072 7.56163H18.4819C18.714 7.56163 18.8527 7.74552 18.8527 7.93843C18.8527 8.06505 18.7954 8.32729 18.4186 8.32729H18.289L15.8082 8.32126H15.356C14.9732 8.32126 14.7049 8.10425 14.7049 7.60083V7.25416C14.7049 6.72968 14.9129 6.40413 15.356 6.40413H16.0915C16.1247 6.18109 16.1457 6.03939 16.1759 5.8284H15.1721C14.4216 5.8284 13.9031 6.33181 13.885 7.20894V7.60083C13.9031 8.47801 14.4216 8.89699 15.1721 8.89699H15.9046L17.249 8.90003L18.3945 8.89998Z" fill="#27292D"/>
</svg>
