<svg width="36" height="24" viewBox="0 0 36 24" fill="none" xmlns="http://www.w3.org/2000/svg">
<rect width="36" height="24" rx="3" fill="#F2F2F2"/>
<mask id="mask0_1368_999" style="mask-type:alpha" maskUnits="userSpaceOnUse" x="2" y="7" width="32" height="10">
<path d="M30.2297 8.86156L28.2739 16.3314V16.3549H29.8056L31.7614 8.88513H30.2297V8.86156ZM6.05302 13.1031C5.81738 13.2209 5.58174 13.268 5.32253 13.268C4.78056 13.268 4.47423 13.1738 4.4271 12.7261V12.7025C4.4271 12.6789 4.4271 12.6789 4.4271 12.6554V8.90869L3.06038 9.07364C3.97938 8.88513 4.49779 8.1782 4.49779 7.44772V7H2.96613V9.0972L2.87187 9.12077V12.9853C2.919 14.0692 3.64949 14.729 4.80412 14.729C5.22828 14.729 5.676 14.6348 6.02946 14.4698L6.05302 13.1031Z" fill="#292929"/>
<path d="M6.28866 8.57879L2 9.23859V10.3225L6.28866 9.66274V8.57879ZM6.28866 10.1811L2 10.8409V11.8778L6.28866 11.218V10.1811ZM11.0957 10.676C11.025 9.47423 10.271 8.74374 9.04566 8.74374C8.33873 8.74374 7.74963 9.02651 7.34904 9.54492C6.94845 10.0633 6.73638 10.8174 6.73638 11.7364C6.73638 12.6554 6.94845 13.4094 7.34904 13.9278C7.74963 14.4462 8.33873 14.7055 9.04566 14.7055C10.271 14.7055 11.025 13.9985 11.0957 12.7732V14.5876H12.6274V8.88513L11.0957 9.12077V10.676ZM11.19 11.7364C11.19 12.7968 10.6244 13.5037 9.75258 13.5037C8.85714 13.5037 8.31517 12.8439 8.31517 11.7364C8.31517 10.6289 8.85714 9.96907 9.75258 9.96907C10.1767 9.96907 10.5538 10.134 10.813 10.4639C11.0486 10.7703 11.19 11.218 11.19 11.7364ZM17.081 8.74374C15.8557 8.74374 15.1016 9.45066 15.0309 10.676V7.21208L13.4993 7.44772V14.5876H15.0309V12.7732C15.1016 13.9985 15.8557 14.7055 17.081 14.7055C18.5184 14.7055 19.3903 13.5979 19.3903 11.7364C19.3903 9.87482 18.5184 8.74374 17.081 8.74374ZM16.3976 13.5037C15.5258 13.5037 14.9602 12.8203 14.9602 11.7364C14.9602 11.218 15.1016 10.7703 15.3373 10.4639C15.5965 10.134 15.9499 9.96907 16.3976 9.96907C17.2931 9.96907 17.8351 10.6289 17.8351 11.7364C17.8351 12.8439 17.2931 13.5037 16.3976 13.5037ZM23.5376 8.74374C22.3122 8.74374 21.5582 9.45066 21.4875 10.676V7.21208L19.9558 7.44772V14.5876H21.4875V12.7732C21.5582 13.9985 22.3122 14.7055 23.5376 14.7055C24.975 14.7055 25.8468 13.5979 25.8468 11.7364C25.8468 9.87482 24.975 8.74374 23.5376 8.74374ZM22.8542 13.5037C21.9823 13.5037 21.4168 12.8203 21.4168 11.7364C21.4168 11.218 21.5582 10.7703 21.7938 10.4639C22.053 10.134 22.4065 9.96907 22.8542 9.96907C23.7496 9.96907 24.2916 10.6289 24.2916 11.7364C24.2916 12.8439 23.7496 13.5037 22.8542 13.5037ZM25.8468 8.86156H27.4728L28.7923 14.5876H27.3314L25.8468 8.86156ZM33.0103 9.45066V9.00295H32.8218V8.90869H33.3166V9.00295H33.1281V9.45066H33.0103ZM33.3402 9.45066V8.88513H33.5287L33.623 9.14433C33.6465 9.21502 33.6701 9.23859 33.6701 9.26215C33.6701 9.23859 33.6937 9.21502 33.7172 9.14433L33.8115 8.88513H34V9.45066H33.8822V9.00295L33.7172 9.45066H33.5994L33.458 9.00295V9.45066H33.3402Z" fill="#292929"/>
</mask>
<g mask="url(#mask0_1368_999)">
<rect width="36" height="24" rx="2" fill="#262626"/>
</g>
</svg>
