<svg width="29" height="13" viewBox="0 0 29 13" fill="none" xmlns="http://www.w3.org/2000/svg">
<path d="M18.6545 9.60287V3.2643H19.3928V3.77139C19.6287 3.35146 19.9879 3.1164 20.3616 3.14017C21.2088 3.14017 21.8129 4.12529 21.8129 5.53826C21.8129 6.95123 21.2016 7.95484 20.3616 7.95484C19.9897 7.97861 19.6305 7.74884 19.3928 7.33155V9.60287H18.6545ZM19.3928 4.95459V6.1193C19.5343 6.61582 19.8663 6.93803 20.2346 6.93539C20.7244 6.93539 21.051 6.40717 21.051 5.53298C21.051 4.65878 20.7244 4.14642 20.2346 4.14642C19.8663 4.13585 19.5307 4.45806 19.3928 4.95459Z" fill="#00C48C"/>
<path d="M22.2955 6.53923C22.2719 5.80237 22.6602 5.17643 23.1663 5.13682L24.4199 4.9044V4.66407C24.4399 4.46599 24.3474 4.27847 24.2095 4.24942C24.1895 4.24414 24.1677 4.24414 24.1478 4.24678H22.5731V3.26958H24.1786C24.8136 3.26958 25.1637 3.72385 25.1637 4.53201V7.82543H24.4199V7.26552C24.1768 7.73299 23.7886 7.99446 23.3858 7.96012C22.7382 7.96012 22.2973 7.38173 22.2973 6.52866M23.5673 7.08857C23.9301 7.10178 24.2639 6.80333 24.4199 6.3253V5.74691L23.4638 5.94235C23.1972 5.99781 23.052 6.20645 23.052 6.52866C23.052 6.85087 23.2334 7.08857 23.5673 7.08857Z" fill="#00C48C"/>
<path d="M25.7007 8.62567H26.245C26.4191 8.64944 26.577 8.47777 26.6078 8.22687L26.7058 7.82543L25.5683 3.26958H26.323L27.0323 6.43887H27.0505L27.7272 3.26958H28.5L27.2537 8.50154C27.0849 9.21991 26.86 9.60287 26.3103 9.60287H25.7098L25.7007 8.62567Z" fill="#00C48C"/>
<path d="M3.20675 12.7352C4.06486 12.7352 4.77057 12.3443 5.23319 11.6788C5.58877 11.1585 5.7847 10.4533 5.77744 9.71908C5.7847 9.04032 5.60509 8.38534 5.27854 7.89938C4.88849 7.36324 4.39685 7.01198 3.86711 6.89049L2.8802 6.61054C2.4702 6.49961 2.2398 6.20117 2.2398 5.78916C2.2398 5.26095 2.60263 4.87535 3.17591 4.87535C3.49702 4.85687 3.81087 5.02589 4.04672 5.34282C4.18096 5.55411 4.26623 5.8235 4.29163 6.10873L5.71394 5.64126C5.6704 5.04966 5.48354 4.50032 5.18783 4.09095C4.63632 3.34881 3.90702 2.95265 3.15595 2.98963C2.46475 2.95794 1.79169 3.30392 1.26921 3.96154C0.882792 4.47919 0.66509 5.21077 0.666904 5.97668C0.652391 6.61846 0.819295 7.23911 1.12952 7.69337C1.50687 8.19782 1.97311 8.54116 2.47564 8.68378L3.44985 9.01919C3.93787 9.18822 4.15557 9.44969 4.15557 9.91716C4.15557 10.4956 3.79273 10.831 3.20675 10.831C2.8421 10.86 2.48471 10.6672 2.21984 10.3028C2.06382 10.073 1.9713 9.76661 1.96223 9.4444L0.5 9.91187C0.54354 10.5352 0.735843 11.1188 1.04425 11.5546C1.53227 12.2994 2.31418 12.7484 3.1995 12.7484M14.0229 12.7484C14.8302 12.7801 15.6121 12.3443 16.1999 11.5361C16.5682 11.0185 16.833 10.3688 16.9691 9.65041L15.4797 8.91619C15.3019 9.85905 14.6996 10.5008 14.0283 10.4665C13.6038 10.4639 13.1992 10.2209 12.8981 9.7851C12.5697 9.26217 12.3956 8.57021 12.4137 7.85976C12.3937 7.15196 12.5679 6.45999 12.8981 5.9397C13.1992 5.50921 13.6056 5.27415 14.0265 5.28736C14.4038 5.26095 14.7703 5.46431 15.0406 5.84727C15.2202 6.12722 15.3527 6.46528 15.4252 6.83503L16.951 6.09024C16.8221 5.393 16.5718 4.7565 16.2253 4.2415C15.623 3.40692 14.8175 2.95529 13.9866 2.98963C13.1194 2.97642 12.2831 3.46766 11.6644 4.35242C11.0386 5.29 10.6957 6.55243 10.7084 7.85976C10.6957 9.17502 11.0476 10.4401 11.6844 11.3724C12.3103 12.2624 13.1557 12.7537 14.0301 12.7352M8.84884 12.7352C9.51646 12.7352 9.98996 12.4367 10.1968 12.1753V10.1601C9.94279 10.4084 9.64345 10.5405 9.33685 10.5325C9.10464 10.5589 8.87424 10.4533 8.69464 10.2367C8.55132 9.97262 8.48238 9.6372 8.50233 9.30179V0.75H6.80971V3.26958H10.1968V5.65975H6.80971V9.88546C6.78612 10.6329 6.96573 11.3645 7.31042 11.9191C7.67325 12.4473 8.19574 12.7114 8.84884 12.7114" fill="#4F008C"/>
</svg>
