<svg width="28" height="19" viewBox="0 0 28 19" fill="none" xmlns="http://www.w3.org/2000/svg">
<rect x="0.5" y="0.75" width="27" height="18" rx="2" fill="url(#paint0_linear_2180_8850)"/>
<mask id="mask0_2180_8850" style="mask-type:alpha" maskUnits="userSpaceOnUse" x="2" y="6" width="24" height="8">
<path d="M23.1723 7.41183C23.1723 7.40946 23.1689 7.40903 23.1683 7.41132L21.706 12.9966C21.7056 12.9979 21.7055 12.9992 21.7055 13.0005C21.7055 13.0092 21.7125 13.0162 21.7211 13.0162H22.3538C22.6486 13.0162 22.9063 12.8173 22.981 12.5321L24.1568 8.04102C24.2399 7.72386 24.0006 7.41384 23.6727 7.41384H23.1743C23.1732 7.41384 23.1723 7.41294 23.1723 7.41183ZM5.02999 11.1442C5.03444 10.8862 4.75 10.701 4.4919 10.701C4.08542 10.701 3.85567 10.6303 3.82032 10.2946V10.2769C3.82032 10.2592 3.82032 10.2592 3.82032 10.2415V8.46399C3.82032 7.91497 3.34036 7.48944 2.79529 7.55523C3.48454 7.41384 3.87334 6.88365 3.87334 6.33579C3.87334 6.15034 3.72301 6 3.53756 6H3.29897C2.98175 6 2.7246 6.25716 2.7246 6.57437V7.53647C2.7246 7.55788 2.71002 7.57655 2.68925 7.58174C2.66848 7.58693 2.6539 7.6056 2.6539 7.62701V10.489C2.68925 11.3019 3.23711 11.7968 4.10309 11.7968C4.32291 11.7968 4.55117 11.763 4.75871 11.7013C4.92388 11.6522 5.02398 11.4931 5.02695 11.3208L5.02999 11.1442Z" fill="#292929"/>
<path d="M5.2165 7.65238C5.2165 7.40615 4.99702 7.21786 4.75365 7.2553L2.34066 7.62653C2.14468 7.65668 2 7.82532 2 8.02361C2 8.26984 2.21948 8.45814 2.46284 8.42069L4.87583 8.04947C5.07182 8.01931 5.2165 7.85068 5.2165 7.65238ZM5.2165 8.83379C5.2165 8.59827 5.00656 8.41816 4.77378 8.45397L2.32585 8.83058C2.13839 8.85942 2 9.02072 2 9.21039C2 9.44592 2.20994 9.62602 2.44272 9.59021L4.89064 9.21361C5.07811 9.18477 5.2165 9.02346 5.2165 8.83379ZM8.8218 8.757C8.76878 7.85567 8.20324 7.30781 7.28424 7.30781C6.75405 7.30781 6.31222 7.51988 6.01178 7.90869C5.71134 8.2975 5.55228 8.86304 5.55228 9.55228C5.55228 10.2415 5.71134 10.8071 6.01178 11.1959C6.31222 11.5847 6.75405 11.7791 7.28424 11.7791C8.20324 11.7791 8.76878 11.2489 8.8218 10.3299V11.1163C8.8218 11.4336 9.07895 11.6907 9.39617 11.6907C9.71339 11.6907 9.97055 11.4336 9.97055 11.1163V8.08334C9.97055 7.73132 9.65677 7.46212 9.30883 7.51565C9.02864 7.55875 8.8218 7.79985 8.8218 8.08334V8.757ZM8.89249 9.55228C8.89249 10.3476 8.46834 10.8778 7.81443 10.8778C7.14286 10.8778 6.73638 10.3829 6.73638 9.55228C6.73638 8.72165 7.14286 8.22681 7.81443 8.22681C8.13255 8.22681 8.41532 8.35052 8.60972 8.59794C8.78645 8.82769 8.89249 9.16348 8.89249 9.55228ZM13.3108 7.30781C12.3918 7.30781 11.8262 7.838 11.7732 8.757V6.82855C11.7732 6.47653 11.4594 6.20733 11.1115 6.26086C10.8313 6.30397 10.6244 6.54506 10.6244 6.82855V11.1163C10.6244 11.4336 10.8816 11.6907 11.1988 11.6907C11.516 11.6907 11.7732 11.4336 11.7732 11.1163V10.3299C11.8262 11.2489 12.3918 11.7791 13.3108 11.7791C14.3888 11.7791 15.0427 10.9485 15.0427 9.55228C15.0427 8.15611 14.3888 7.30781 13.3108 7.30781ZM12.7982 10.8778C12.1443 10.8778 11.7202 10.3652 11.7202 9.55228C11.7202 9.16348 11.8262 8.82769 12.0029 8.59794C12.1973 8.35052 12.4624 8.22681 12.7982 8.22681C13.4698 8.22681 13.8763 8.72165 13.8763 9.55228C13.8763 10.3829 13.4698 10.8778 12.7982 10.8778ZM18.1532 7.30781C17.2342 7.30781 16.6686 7.838 16.6156 8.757V6.82855C16.6156 6.47653 16.3018 6.20733 15.9539 6.26086C15.6737 6.30397 15.4669 6.54506 15.4669 6.82855V11.1163C15.4669 11.4336 15.724 11.6907 16.0412 11.6907C16.3585 11.6907 16.6156 11.4336 16.6156 11.1163V10.3299C16.6686 11.2489 17.2342 11.7791 18.1532 11.7791C19.2312 11.7791 19.8851 10.9485 19.8851 9.55228C19.8851 8.15611 19.2312 7.30781 18.1532 7.30781ZM17.6406 10.8778C16.9867 10.8778 16.5626 10.3652 16.5626 9.55228C16.5626 9.16348 16.6686 8.82769 16.8454 8.59794C17.0398 8.35052 17.3049 8.22681 17.6406 8.22681C18.3122 8.22681 18.7187 8.72165 18.7187 9.55228C18.7187 10.3829 18.3122 10.8778 17.6406 10.8778ZM20.0745 8.12673C19.9787 7.75693 20.2578 7.39617 20.6398 7.39617C20.9119 7.39617 21.1478 7.58396 21.2089 7.84902L21.942 11.0299C22.0199 11.368 21.7631 11.6907 21.4161 11.6907C21.1702 11.6907 20.9554 11.5245 20.8937 11.2865L20.0745 8.12673ZM25.3019 7.838C25.2775 7.838 25.2577 7.81822 25.2577 7.79382V7.5729C25.2577 7.53386 25.2261 7.50221 25.187 7.50221H25.1517C25.1322 7.50221 25.1163 7.48638 25.1163 7.46686C25.1163 7.44734 25.1322 7.43152 25.1517 7.43152H25.4521C25.4717 7.43152 25.4875 7.44734 25.4875 7.46686C25.4875 7.48638 25.4717 7.50221 25.4521 7.50221H25.4168C25.3778 7.50221 25.3461 7.53386 25.3461 7.5729V7.79381C25.3461 7.81822 25.3263 7.838 25.3019 7.838ZM25.5493 7.838C25.5249 7.838 25.5052 7.81822 25.5052 7.79382V7.49699C25.5052 7.45107 25.5424 7.41384 25.5883 7.41384C25.6233 7.41384 25.6545 7.43572 25.6664 7.46857L25.7172 7.60825C25.7349 7.66127 25.7526 7.67894 25.7526 7.69661C25.7526 7.67894 25.7703 7.66127 25.7879 7.60825L25.8387 7.46858C25.8507 7.43572 25.8819 7.41384 25.9169 7.41384C25.9628 7.41384 26 7.45107 26 7.49699V7.79382C26 7.81822 25.9802 7.838 25.9558 7.838C25.9314 7.838 25.9116 7.81822 25.9116 7.79382V7.78717C25.9116 7.73043 25.8327 7.71636 25.8131 7.76961L25.8016 7.80086C25.7934 7.82317 25.7721 7.838 25.7483 7.838H25.7353C25.714 7.838 25.6952 7.8242 25.6888 7.80391L25.6811 7.77965C25.6657 7.73074 25.5935 7.74244 25.5935 7.79373C25.5935 7.81813 25.5737 7.838 25.5493 7.838Z" fill="#292929"/>
</mask>
<g mask="url(#mask0_2180_8850)">
<rect x="0.5" y="0.75" width="27" height="18" rx="2" fill="#262626"/>
</g>
<defs>
<linearGradient id="paint0_linear_2180_8850" x1="14" y1="0.75" x2="14" y2="18.75" gradientUnits="userSpaceOnUse">
<stop stop-color="#8FEF8F"/>
<stop offset="1" stop-color="#36E236"/>
</linearGradient>
</defs>
</svg>
