<svg width="28" height="19" viewBox="0 0 28 19" fill="none" xmlns="http://www.w3.org/2000/svg">
<rect x="0.5" y="0.75" width="27" height="18" rx="2" fill="#F2F2F2"/>
<mask id="mask0_2180_8855" style="mask-type:alpha" maskUnits="userSpaceOnUse" x="2" y="5" width="25" height="9">
<path d="M4.71643 7.95662C4.62783 7.95662 4.49759 8.04523 4.45062 8.13383C4.30971 8.39964 4.20545 8.69178 4.06988 8.96292C3.99693 9.10881 4.02825 9.19243 4.13251 9.31235C4.40899 9.62513 4.70077 9.92759 4.93029 10.277C5.20677 10.6891 5.17012 11.1321 4.81571 11.4762C4.5499 11.737 4.23712 11.9715 3.89801 12.133C3.41301 12.3626 2.88638 12.5084 2.38074 12.7013C2.31313 12.7273 2.20353 12.8159 2.19321 12.8785C2.1619 13.066 2.26616 13.1183 2.33911 13.1497C2.61057 13.2695 2.88438 13.3837 3.16212 13.4969C3.72024 13.7245 4.38455 13.5388 4.69045 13.0194C5.62879 11.4449 5.83766 9.82333 4.97192 8.1445C4.93562 8.0559 4.80503 7.96196 4.71643 7.95662Z" fill="black"/>
<path d="M25.5096 5.91805L25.4886 5.89706C25.2071 5.61559 24.7588 5.61559 24.477 5.89706C24.1955 6.17852 24.1955 6.62687 24.477 6.90869L24.4979 6.92969C24.9047 7.3364 25.3584 7.08625 25.5096 6.92969C25.791 6.64822 25.791 6.19987 25.5096 5.91805Z" fill="black"/>
<path d="M22.5377 5.94438C22.4093 6.07274 22.4625 6.27393 22.5998 6.39269L23.3115 7.00841C23.3973 7.08268 23.5263 7.09856 23.6066 7.01829L23.6276 6.9973C24.0553 6.56958 23.7891 6.08992 23.6276 5.92339C23.3305 5.62627 22.8508 5.62627 22.5537 5.92339L22.5377 5.94438Z" fill="black"/>
<path d="M6.6358 5.25513C6.5605 5.24084 6.30775 5.67775 6.27531 5.74719C6.19147 5.9267 6.08819 6.15091 6.02519 6.29879C5.97822 6.41337 5.94192 6.54894 5.95224 6.6742C5.99921 7.66484 6.03551 8.65548 6.10881 9.64078C6.18176 10.6471 6.67708 11.3822 7.61043 11.8046C8.26232 12.1017 8.9505 12.2373 9.65932 12.2789C10.551 12.3312 11.4424 12.3572 12.3391 12.3622C13.8251 12.3725 15.2954 12.2683 16.75 11.9765C17.1984 11.9192 18.6011 11.5541 18.8409 11.4239C19.112 11.278 19.0964 11.3093 19.3729 11.3822C20.0404 11.5491 21.8025 11.5125 22.3135 11.3612C22.6434 11.2649 23.2945 11.4435 23.6078 11.5847C23.7282 11.639 23.8718 11.6592 24.0603 11.6427C24.5972 11.5957 24.6442 11.5698 25.1708 11.4498C25.6089 11.3509 25.9373 11.0691 26.0675 10.6417C26.1508 10.3759 26.1405 10.2507 26.1615 10.0525C26.2447 9.34865 26.1355 8.68644 25.7288 8.09718C25.6612 8.00324 25.6245 7.90965 25.39 7.92495C25.3171 7.93029 25.2128 8.03455 25.1658 8.12315C25.0303 8.38398 24.9314 8.66544 24.8008 8.92591C24.7278 9.07181 24.7591 9.17607 24.8737 9.28566C25.2002 9.58421 25.0104 10.1499 24.5706 10.1986C24.5051 10.2058 24.4349 10.2127 24.3577 10.219C23.8468 10.2606 22.9188 10.2503 22.6579 9.7913C22.4651 9.45255 22.3452 9.22304 22.0324 8.99352C21.5161 8.61278 20.6766 8.61278 19.9781 8.97253C19.66 9.13408 19.3316 9.45219 19.2743 9.83294C19.2483 9.99982 19.191 10.1404 19.0032 10.1927C16.1095 10.9382 12.7152 11.2822 9.86855 10.9645C9.14372 10.8812 8.42422 10.7613 7.73604 10.4951C7.12614 10.2553 6.84966 9.83293 6.85997 9.17073C6.88011 8.00057 6.86653 6.83073 6.86068 5.6606C6.86025 5.57547 6.86132 5.78829 6.83745 5.63769C6.83354 5.61302 6.74264 5.26942 6.73384 5.24604C6.68011 5.10335 6.92635 5.54124 6.82786 5.36608C6.79818 5.31332 6.74193 5.26422 6.6358 5.25513ZM21.6524 9.6826C22.1519 9.9623 21.6417 10.5225 21.0693 10.5162C20.3561 10.5084 19.8989 9.71857 20.5948 9.56239C20.6696 9.54559 20.7505 9.53485 20.8378 9.53154C21.2091 9.51611 21.4698 9.58031 21.6524 9.6826Z" fill="black"/>
<path d="M3.17318 5.71551C3.17318 5.63488 3.17318 5.83646 3.15243 5.69351C3.149 5.66995 3.0689 5.34309 3.06104 5.32061C3.01335 5.18426 3.23179 5.60317 3.14441 5.43561C3.1157 5.38055 3.05928 5.32791 2.94901 5.31847C2.89089 5.31209 2.82093 5.39736 2.77602 5.46332C2.75885 5.48853 2.80176 5.42551 2.77725 5.4654C2.76965 5.47777 2.72208 5.56091 2.71527 5.57373C2.6933 5.61507 2.69319 5.6153 2.69296 5.61577C2.61557 5.77944 2.43677 6.16002 2.34445 6.37672C2.29748 6.4913 2.26118 6.62687 2.2715 6.75213C2.29249 7.23713 2.31313 7.72711 2.33911 8.21211C2.37042 8.90563 2.40672 9.59382 2.43803 10.2873C2.45565 10.6463 2.47302 11.0012 2.4935 11.362C2.50013 11.4789 2.59701 11.5701 2.71411 11.5701C2.82013 11.5701 2.91102 11.4949 2.93448 11.3915C3.03051 10.9683 3.16382 10.5518 3.17318 10.1311C3.17318 9.51581 3.17318 6.73761 3.17318 5.71551Z" fill="black"/>
</mask>
<g mask="url(#mask0_2180_8855)">
<rect x="0.5" y="0.75" width="27" height="18" rx="2" fill="#262626"/>
</g>
</svg>
