<svg width="21" height="25" viewBox="0 0 21 25" fill="none" xmlns="http://www.w3.org/2000/svg">
<path d="M17.4528 23.416C16.1463 24.6825 14.7198 24.4825 13.3466 23.8826C11.8935 23.2693 10.5603 23.2427 9.02718 23.8826C7.10742 24.7092 6.09421 24.4692 4.94769 23.416C-1.55815 16.7102 -0.598275 6.49813 6.78746 6.12485C8.58723 6.21817 9.84041 7.11139 10.8936 7.19138C12.4667 6.87142 13.9732 5.95154 15.653 6.07152C17.6661 6.2315 19.1859 7.0314 20.1858 8.47122C16.0263 10.9642 17.0128 16.4435 20.8257 17.9767C20.0658 19.9764 19.0792 21.9628 17.4394 23.4293L17.4528 23.416ZM10.7603 6.04486C10.5603 3.0719 12.9733 0.618876 15.7463 0.378906C16.1329 3.81847 12.6267 6.37815 10.7603 6.04486Z" fill="#404040"/>
</svg>
