<svg width="21" height="24" viewBox="0 0 21 24" fill="none" xmlns="http://www.w3.org/2000/svg">
<path d="M17.277 23.0371C15.9705 24.3036 14.544 24.1036 13.1709 23.5037C11.7177 22.8904 10.3845 22.8638 8.85139 23.5037C6.93164 24.3303 5.91843 24.0903 4.77191 23.0371C-1.73394 16.3313 -0.774056 6.11923 6.61168 5.74594C8.41145 5.83926 9.66463 6.73248 10.7178 6.81247C12.291 6.49251 13.7974 5.57263 15.4772 5.69261C17.4903 5.85259 19.0101 6.65249 20.01 8.09231C15.8505 10.5853 16.8371 16.0646 20.6499 17.5978C19.89 19.5975 18.9035 21.5839 17.2637 23.0504L17.277 23.0371ZM10.5845 5.66595C10.3845 2.69299 12.7976 0.23997 15.5705 0C15.9572 3.43957 12.4509 5.99924 10.5845 5.66595Z" fill="#F2F2F2"/>
</svg>
