<svg width="72" height="73" viewBox="0 0 72 73" fill="none" xmlns="http://www.w3.org/2000/svg">
<path d="M12 33.25H33V12.25H12V33.25ZM18 18.25H27V27.25H18V18.25ZM60 12.25H39V33.25H60V12.25ZM54 27.25H45V18.25H54V27.25ZM12 60.25H33V39.25H12V60.25ZM18 45.25H27V54.25H18V45.25ZM9 66.25H21V72.25H9C4.038 72.25 0 68.212 0 63.25V51.25H6V63.25C6 64.903 7.347 66.25 9 66.25ZM66 51.25H72V63.25C72 68.212 67.962 72.25 63 72.25H51V66.25H63C64.653 66.25 66 64.903 66 63.25V51.25ZM72 9.25V21.25H66V9.25C66 7.597 64.653 6.25 63 6.25H51V0.25H63C67.962 0.25 72 4.288 72 9.25ZM6 21.25H0V9.25C0 4.288 4.038 0.25 9 0.25H21V6.25H9C7.347 6.25 6 7.597 6 9.25V21.25ZM39 51.25H48V60.25H39V51.25ZM51 48.25V39.25H60V48.25H51ZM39 39.25H48V48.25H39V39.25Z" fill="#F2F2F2"/>
</svg>
