<svg width="24" height="24" viewBox="0 0 24 24" fill="none" xmlns="http://www.w3.org/2000/svg">
<path d="M0 12.6001V18.6001C0 18.9184 0.114935 19.2236 0.31952 19.4486C0.524105 19.6737 0.801582 19.8001 1.09091 19.8001H2.18182C2.18182 20.7549 2.52662 21.6705 3.14038 22.3457C3.75413 23.0208 4.58656 23.4001 5.45455 23.4001C6.32253 23.4001 7.15496 23.0208 7.76871 22.3457C8.38247 21.6705 8.72727 20.7549 8.72727 19.8001H15.2727C15.2727 20.7549 15.6175 21.6705 16.2313 22.3457C16.845 23.0208 17.6775 23.4001 18.5455 23.4001C19.4134 23.4001 20.2459 23.0208 20.8596 22.3457C21.4734 21.6705 21.8182 20.7549 21.8182 19.8001H22.9091C23.1984 19.8001 23.4759 19.6737 23.6805 19.4486C23.8851 19.2236 24 18.9184 24 18.6001V4.2001C24 3.24532 23.6552 2.32964 23.0414 1.65451C22.4277 0.979382 21.5953 0.600098 20.7273 0.600098H10.9091C10.0411 0.600098 9.20868 0.979382 8.59492 1.65451C7.98117 2.32964 7.63636 3.24532 7.63636 4.2001V6.6001H5.45455C4.94647 6.6001 4.44537 6.73022 3.99094 6.98016C3.5365 7.2301 3.14121 7.59299 2.83636 8.0401L0.218182 11.8801C0.186274 11.9323 0.160608 11.9887 0.141818 12.0481L0.0763637 12.1801C0.0282175 12.3139 0.00235096 12.4562 0 12.6001ZM17.4545 19.8001C17.4545 19.5628 17.5185 19.3308 17.6384 19.1334C17.7583 18.9361 17.9286 18.7823 18.128 18.6914C18.3273 18.6006 18.5467 18.5769 18.7583 18.6232C18.9699 18.6695 19.1643 18.7837 19.3168 18.9516C19.4694 19.1194 19.5733 19.3332 19.6154 19.566C19.6575 19.7988 19.6359 20.04 19.5533 20.2593C19.4708 20.4786 19.3309 20.666 19.1515 20.7979C18.9721 20.9297 18.7612 21.0001 18.5455 21.0001C18.2561 21.0001 17.9787 20.8737 17.7741 20.6486C17.5695 20.4236 17.4545 20.1184 17.4545 19.8001ZM9.81818 4.2001C9.81818 3.88184 9.93312 3.57661 10.1377 3.35157C10.3423 3.12653 10.6198 3.0001 10.9091 3.0001H20.7273C21.0166 3.0001 21.2941 3.12653 21.4987 3.35157C21.7032 3.57661 21.8182 3.88184 21.8182 4.2001V17.4001H20.9673C20.6605 17.0289 20.2866 16.7323 19.8696 16.5293C19.4525 16.3263 19.0015 16.2215 18.5455 16.2215C18.0894 16.2215 17.6384 16.3263 17.2213 16.5293C16.8043 16.7323 16.4304 17.0289 16.1236 17.4001H9.81818V4.2001ZM7.63636 11.4001H3.27273L4.58182 9.4801C4.68343 9.33106 4.8152 9.2101 4.96668 9.12678C5.11816 9.04347 5.28519 9.0001 5.45455 9.0001H7.63636V11.4001ZM4.36364 19.8001C4.36364 19.5628 4.42762 19.3308 4.54749 19.1334C4.66736 18.9361 4.83774 18.7823 5.03707 18.6914C5.23641 18.6006 5.45576 18.5769 5.66737 18.6232C5.87899 18.6695 6.07337 18.7837 6.22593 18.9516C6.3785 19.1194 6.4824 19.3332 6.52449 19.566C6.56659 19.7988 6.54498 20.04 6.46241 20.2593C6.37985 20.4786 6.24002 20.666 6.06062 20.7979C5.88122 20.9297 5.67031 21.0001 5.45455 21.0001C5.16522 21.0001 4.88774 20.8737 4.68316 20.6486C4.47857 20.4236 4.36364 20.1184 4.36364 19.8001ZM2.18182 13.8001H7.63636V17.1361C6.99254 16.5032 6.14742 16.1758 5.28512 16.2252C4.42282 16.2747 3.61323 16.697 3.03273 17.4001H2.18182V13.8001Z" fill="#262626"/>
</svg>
