<svg width="24" height="24" viewBox="0 0 24 24" fill="none" xmlns="http://www.w3.org/2000/svg">
<path d="M9.6 14.6667H14.4C14.7183 14.6667 15.0235 14.5262 15.2485 14.2761C15.4736 14.0261 15.6 13.687 15.6 13.3333C15.6 12.9797 15.4736 12.6406 15.2485 12.3905C15.0235 12.1405 14.7183 12 14.4 12H9.6C9.28174 12 8.97652 12.1405 8.75147 12.3905C8.52643 12.6406 8.4 12.9797 8.4 13.3333C8.4 13.687 8.52643 14.0261 8.75147 14.2761C8.97652 14.5262 9.28174 14.6667 9.6 14.6667ZM20.4 0H3.6C2.64522 0 1.72955 0.421427 1.05442 1.17157C0.379285 1.92172 0 2.93913 0 4V8C0 8.35362 0.126428 8.69276 0.351472 8.94281C0.576515 9.19286 0.88174 9.33333 1.2 9.33333H2.4V20C2.4 21.0609 2.77928 22.0783 3.45442 22.8284C4.12955 23.5786 5.04522 24 6 24H18C18.9548 24 19.8705 23.5786 20.5456 22.8284C21.2207 22.0783 21.6 21.0609 21.6 20V9.33333H22.8C23.1183 9.33333 23.4235 9.19286 23.6485 8.94281C23.8736 8.69276 24 8.35362 24 8V4C24 2.93913 23.6207 1.92172 22.9456 1.17157C22.2705 0.421427 21.3548 0 20.4 0ZM19.2 20C19.2 20.3536 19.0736 20.6928 18.8485 20.9428C18.6235 21.1929 18.3183 21.3333 18 21.3333H6C5.68174 21.3333 5.37652 21.1929 5.15147 20.9428C4.92643 20.6928 4.8 20.3536 4.8 20V9.33333H19.2V20ZM21.6 6.66667H2.4V4C2.4 3.64638 2.52643 3.30724 2.75147 3.05719C2.97652 2.80714 3.28174 2.66667 3.6 2.66667H20.4C20.7183 2.66667 21.0235 2.80714 21.2485 3.05719C21.4736 3.30724 21.6 3.64638 21.6 4V6.66667Z" fill="#262626"/>
</svg>
