<svg width="104" height="65" viewBox="0 0 104 65" fill="none" xmlns="http://www.w3.org/2000/svg">
<path d="M0.196198 7.58224C0.378601 6.32881 2.7327 4.7516 3.35932 4.35283C3.11469 3.98145 2.62127 3.19934 3.08479 3.04697C3.08479 3.04697 3.71778 3.07678 4.57401 3.60291C4.61908 3.57792 4.66192 3.54927 4.71128 3.52546C4.49883 3.18979 4.29086 2.68275 4.63636 2.26494C4.63636 2.26494 5.34863 2.0792 6.10829 2.83744C6.1276 2.82911 6.14923 2.81965 6.16854 2.81013C5.89816 2.32923 5.52673 1.45433 6.36579 1.3841C6.36579 1.3841 7.5611 1.47693 8.20918 2.11019C8.2521 2.0971 8.29514 2.08766 8.33807 2.07576C8.2093 1.59843 8.09544 0.760421 8.90232 0.817558C8.90232 0.817558 10.2201 0.851954 10.5377 1.70305C10.5527 1.70186 10.5697 1.70194 10.5891 1.69956C10.5976 1.24247 10.7458 0.287762 11.8273 0.542495C11.9496 0.572254 12.0527 0.59485 12.1364 0.611515C12.5077 0.778163 13.0227 1.12693 12.6837 1.68401C12.6944 1.6852 12.7093 1.68526 12.7201 1.68765C13.2372 1.1639 14.4069 0.160459 15.1086 0.874663C15.1086 0.874663 15.3017 1.33295 14.6515 1.97811C14.688 1.98763 14.7221 1.99829 14.7607 2.00543C15.486 1.62571 17.1107 0.896034 17.6794 1.6519C17.6794 1.6519 17.5871 2.30903 16.6858 2.66613C25.9628 6.44189 33.5356 15.3623 33.5356 15.3623C50.2461 25.7218 68.2849 25.0171 68.2849 25.0171C71.9524 25.5254 91.8281 20.2486 91.8281 20.2486C102.824 17.7073 99.5836 22.4781 99.5836 22.4781C104.938 22.3995 100.85 24.51 100.85 24.51C106.204 27.0514 97.5385 29.0857 97.5385 29.0857C103.388 28.6928 98.8047 31.8199 98.8047 31.8199C105.502 32.5257 97.324 34.3232 97.324 34.3232C99.3004 36.2015 88.5148 37.9609 88.5148 37.9609C89.077 37.4895 81.0448 40.7736 81.0448 40.7736C75.122 47.3431 65.5383 49.0632 65.5383 49.0632C64.8516 50.225 64.1004 51.0047 63.3643 51.5248C63.051 53.2473 62.6563 56.629 64.0297 57.9502C64.0297 57.9502 64.2721 58.6871 68.5511 57.9991C68.5511 57.9991 69.2549 58.5097 64.0811 59.3561C64.0811 59.3561 59.9844 61.1951 58.2504 63.827C58.2504 63.827 58.302 65.4613 56.6732 63.6365C56.6732 63.6365 59.5682 60.4392 60.3128 59.9976C59.3708 60.3666 53.4309 62.6247 47.8343 63.2258C47.8343 63.2258 46.6646 63.4008 47.5252 62.8318C47.5252 62.8318 59.1711 60.9225 59.2312 57.8526C59.2312 57.8526 60.3706 54.4815 59.156 52.3354C52.6903 50.5499 48.4758 51.095 48.4758 51.095C47.9479 51.6033 47.2269 51.9557 46.4414 52.1962C46.4414 52.1962 41.0766 57.0753 41.5015 59.1489C41.5015 59.1489 41.1925 59.8787 45.611 60.1917C45.611 60.1917 45.8898 60.8166 40.5335 60.4524C40.5335 60.4524 35.4584 61.2344 31.982 63.2675C31.982 63.2675 30.8533 64.7781 30.6709 62.7473C30.6709 62.7473 35.6364 60.4405 36.6236 60.2108C35.5141 60.3393 28.4284 61.1034 22.8554 60.4201C22.8554 60.4201 21.658 60.3214 22.8554 59.9916C22.8554 59.9916 34.9092 60.8046 37.1624 58.0026C37.1624 58.0026 40.9371 54.9089 41.0873 52.6389C28.982 48.6251 15.7716 34.4422 15.7716 34.4422C11.5419 29.3582 12.3916 24.0411 12.3916 24.0411C11.6019 15.0552 9.10852 11.4985 8.13426 10.4272C8.0377 10.4319 7.9409 10.4366 7.84218 10.4366C5.64687 10.4366 3.86149 9.49978 3.86149 8.34277C3.86149 7.79045 4.27582 7.28935 4.93892 6.91558C3.46465 6.55848 0.196198 7.58224 0.196198 7.58224Z" fill="url(#paint0_linear_1188_1848)"/>
<defs>
<linearGradient id="paint0_linear_1188_1848" x1="51.3962" y1="0.5" x2="51.3962" y2="64.5" gradientUnits="userSpaceOnUse">
<stop stop-color="#262626"/>
<stop offset="0.5" stop-color="#737373"/>
<stop offset="1" stop-color="#262626"/>
</linearGradient>
</defs>
</svg>
