<svg width="104" height="65" viewBox="0 0 104 65" fill="none" xmlns="http://www.w3.org/2000/svg">
<path d="M29.8541 62.6838C29.9575 61.557 31.2856 61.012 30.5431 59.7409C30.6139 59.2144 31.4865 59.3326 31.8042 59.0041C32.5927 55.6836 31.6263 52.9587 32.2616 49.7134C32.5238 48.3809 33.3525 47.1267 33.7524 45.7573C34.1792 44.2897 34.2327 42.8652 34.7858 41.4329C36.1025 43.074 36.6882 45.3061 38.1101 46.8612C38.2939 48.4623 38.5903 49.9176 38.9138 51.4604C39.2142 52.905 39.9952 54.6351 39.7158 56.0597C39.4095 57.6148 36.9351 58.4959 37.4212 60.4763C39.7388 61.3175 42.774 60.7004 44.1883 59.5583C43.8553 58.1936 43.369 56.7705 44.7623 56.0612C43.6886 53.1736 42.1978 50.0496 41.8935 46.8627C41.794 45.8019 42.4353 44.8869 42.1252 44.0103C42.0334 43.7494 41.9033 43.49 41.7559 43.229L41.7615 43.2305C41.7615 43.2305 40.8449 39.4388 42.906 38.0433C45.5699 38.0556 48.0175 38.3657 51.0719 38.86C54.1798 39.362 57.1827 40.3246 60.4743 40.145C62.0972 40.059 64.2846 39.5953 65.7505 39.1348C66.9772 38.7495 69.5147 37.5121 70.3396 37.6641C71.5969 37.8929 71.2258 39.8011 72.1769 40.8849C72.6803 41.4621 74.2953 41.8597 74.4656 42.7255C74.5919 43.3626 74.395 43.728 74.4505 44.3666L74.4409 44.3681C74.4409 44.3681 74.3892 44.6229 74.7107 44.8194C74.7107 44.824 74.7126 44.824 74.7126 44.8271C74.7279 44.8348 74.7489 44.8394 74.7623 44.8471C74.8408 44.8885 74.9327 44.9253 75.0494 44.9575C75.059 44.9621 75.0686 44.9637 75.08 44.9652C75.0896 44.9698 75.0953 44.9714 75.1029 44.9729L75.1048 44.9714C75.9775 45.2232 77.1296 45.1034 77.8051 44.8271C78.3391 44.3957 77.3594 43.6973 78.0196 43.3672C79.4434 43.6389 77.6503 45.4703 78.7066 46.0337C79.4396 46.0905 80.4787 45.9677 80.7716 46.5864C79.0166 50.3889 75.5222 52.8006 73.662 56.5218C73.5013 56.7628 72.9195 56.6599 72.7453 56.8887C71.8344 58.06 70.0507 59.0225 70.1081 60.6621C70.1846 60.7496 70.2937 60.7864 70.4181 60.7941L70.4125 60.7987C70.4125 60.7987 75.2369 61.4296 76.7163 60.8478C76.7258 60.8478 76.7411 60.8478 76.7565 60.8432C76.7813 60.8309 76.7967 60.814 76.8235 60.8018C76.9709 60.7235 77.0779 60.6328 77.1181 60.5208H77.1125C77.3632 60.0848 77.0264 59.5122 77.1029 59.0041C77.3134 57.5457 79.0779 56.4942 81.2308 56.7045C81.3571 53.3947 83.2613 51.1058 84.9014 48.8829C85.5042 48.0677 86.3559 47.2679 87.1903 46.4927C87.9577 45.7819 89.2438 44.9744 89.6016 44.2852C90.0284 43.4577 89.6264 42.5628 90.4053 41.8934C91.2703 42.6042 92.9927 43.275 93.5037 44.3773C93.653 44.7135 93.5879 45.1141 93.7333 45.481C94.361 47.1221 95.8558 48.1952 96.5984 49.7134C97.3868 51.313 97.6318 53.0554 97.7428 55.0465C97.8041 56.1196 98.1198 57.6946 97.7428 59.0947C97.2663 60.8662 94.5428 61.706 94.9906 64.156C95.4997 64.3356 95.9935 64.4292 96.4911 64.4738C96.4988 64.4738 96.5063 64.4738 96.5063 64.4738C97.8593 64.5889 99.243 64.3018 100.952 64.0654C101.191 63.4913 101.446 63.0492 101.53 62.4981C101.622 61.884 101.321 61.2822 101.413 60.7511C101.521 60.1478 101.909 59.612 102.292 59.0655C102.292 59.0655 103.983 57.5212 103.264 54.8132C103.264 54.8055 103.258 54.7948 103.256 54.7886C103.025 53.6373 102.556 52.4168 102.332 51.092C101.993 49.0902 101.599 47.0024 101.76 45.2032C101.901 43.5913 102.77 41.5941 101.874 40.2371C101.055 38.9967 99.3043 38.8723 99.0057 37.2005C98.9139 36.6786 98.9464 35.9248 99.0057 35.2708C99.2143 32.9451 99.7923 30.4351 100.152 27.8193C100.319 26.6188 100.516 25.3047 100.726 24.049C100.927 22.8301 101.375 21.5713 101.413 20.3678C101.415 20.3048 101.421 20.2372 101.423 20.1743C102.056 24.4942 101.186 29.29 101.174 29.3606C100.845 32.4554 99.9397 36.8398 100.667 37.8069L100.675 37.8115C100.722 37.8745 100.78 37.9236 100.841 37.9543C101.252 38.2997 102.322 39.1302 103.13 39.2177C103.176 39.2285 103.222 39.2315 103.262 39.2284C104.106 37.8284 102.56 33.0234 102.927 29.5279C103.013 29.0919 105.063 18.0481 100.332 13.7221C99.5377 12.996 98.5981 12.494 97.5207 12.2208C94.5237 10.9144 90.172 11.1017 86.1626 10.8023C83.9695 10.6396 81.9429 10.2957 79.8511 10.3433C77.5584 10.3939 75.1604 10.8223 72.8582 10.8023C68.8029 10.767 64.8146 10.0332 60.6981 9.88276C55.6095 9.69855 50.4251 9.87815 45.101 10.067C43.3078 10.1314 41.5491 10.2465 39.8286 10.1606C37.5436 10.047 35.5074 9.61101 33.2683 9.31627C31.8617 9.12898 30.3709 8.99852 28.6925 9.03536C28.8303 8.14959 28.1835 7.69672 27.2955 7.48027C26.9166 7.38662 26.4935 7.33747 26.0687 7.31752C26.0419 7.31752 26.0113 7.31599 25.9826 7.31292C25.973 7.31292 25.9597 7.31294 25.9501 7.30833C25.9291 7.30833 25.9099 7.30833 25.8927 7.30833C25.33 7.29145 24.7751 7.31907 24.3253 7.35284C24.3043 7.35744 24.2871 7.35743 24.266 7.35743C24.0287 7.37585 23.7856 7.40192 23.5368 7.43876C23.4468 7.44951 23.376 7.4588 23.3416 7.4634C23.3205 7.46801 23.3053 7.47109 23.3053 7.47109H23.311C23.0105 7.52021 22.7101 7.58468 22.3943 7.67525C20.7466 8.15882 19.4681 9.39 18.4979 7.67525C19.8911 7.51867 21.1733 7.77655 22.1665 7.21623C23.1177 6.68047 23.2402 5.50762 23.6593 4.54969C23.9732 3.83125 24.7176 3.10049 24.7463 2.48029C24.7559 2.26537 24.6794 2.06122 24.4612 1.88007C21.8106 2.25925 22.025 5.28343 19.5314 5.46765C18.8348 5.51984 17.6999 4.76612 16.7794 4.63871C16.5058 4.60186 16.3468 4.74306 15.9756 4.73231C14.7182 4.69547 13.2715 3.96478 12.1902 3.90337C10.9558 3.83582 9.99699 3.55033 8.6344 3.80977C8.4813 3.84047 8.32435 3.86653 8.16168 3.8911C6.63642 4.12597 4.91409 4.0968 4.39164 2.98382C4.03568 2.21472 4.66145 1.22612 3.93422 0.5C2.87018 1.13708 2.46442 2.86254 2.78976 3.99547C2.95817 4.58957 3.3601 5.07925 3.90934 5.45996C4.54854 5.89901 5.39061 6.18916 6.34558 6.29509C6.36663 6.69115 6.2518 6.9721 6.08148 7.21004C5.84226 7.53242 5.49202 7.76575 5.19538 8.04208C3.78112 7.689 2.76303 6.37031 1.18227 6.20298C0.541159 6.13544 -2.29314 10.1499 5.19538 12.0903C5.86903 13.6576 5.44992 15.9619 5.08056 17.5185C4.56002 17.8455 3.97633 17.976 3.8194 18.7144C3.74477 19.0598 4.07775 19.33 4.04905 19.726C4.01077 20.2649 3.66052 20.5458 3.70645 20.9219C3.76578 21.3824 4.06248 21.82 4.51604 22.1992L4.52176 22.2007L4.72267 22.3618C5.95704 23.2599 8.11585 23.7788 10.131 23.4073C10.554 23.329 10.9634 23.0481 11.3902 23.0404C12.3375 23.0158 14.9766 23.9753 15.522 24.6032C16.01 25.1635 15.9852 26.3072 16.3259 27.3618C16.7182 28.5945 17.8319 29.7044 18.1573 30.492C18.4061 31.083 18.1879 31.912 18.3869 32.5138C18.806 33.7695 19.9543 33.8585 21.0279 34.9976C21.3819 35.3737 21.7092 35.8081 22.046 36.2579C22.9014 37.4047 23.7799 38.6665 25.1578 39.4126C25.8162 39.7718 27.129 39.9515 27.2209 40.6086C27.3835 41.7968 27.2055 43.3979 27.2209 44.6567C27.2419 45.9186 27.8619 47.2526 27.9078 48.6128C27.9556 49.9575 27.5538 51.8995 27.4505 53.671C27.3739 54.9774 27.6802 56.1979 27.3357 57.1681C26.7175 58.9212 24.0057 59.7885 23.8947 62.1342L24.1396 62.3307C25.3797 63.1919 28.3002 63.4421 29.8541 62.6838Z" fill="url(#paint0_linear_1188_2528)"/>
<defs>
<linearGradient id="paint0_linear_1188_2528" x1="51.8206" y1="0.5" x2="51.8206" y2="64.5" gradientUnits="userSpaceOnUse">
<stop stop-color="#262626"/>
<stop offset="0.5" stop-color="#737373"/>
<stop offset="1" stop-color="#262626"/>
</linearGradient>
</defs>
</svg>
